SplineFontDB: 2.0
FontName: ArundinaSans-Oblique
FullName: Arundina Sans Oblique
FamilyName: Arundina Sans
Weight: Book
Copyright: Copyright (c) 2003 by Bitstream, Inc. All Rights Reserved.\nCopyright (c) 2007 by Software Industry Promotion Agency (Public Organization). All Rights Reserved.
Version: 1.20
ItalicAngle: -10.9
UnderlinePosition: -153
UnderlineWidth: 102
Ascent: 1638
Descent: 410
Order2: 1
NeedsXUIDChange: 1
XUID: [1021 375 425136265 13002690]
FSType: 4
OS2Version: 2
OS2_WeightWidthSlopeOnly: 0
OS2_UseTypoMetrics: 1
CreationTime: 1130778780
ModificationTime: 1195226541
PfmFamily: 33
TTFWeight: 400
TTFWidth: 5
LineGap: 72
VLineGap: 0
Panose: 2 11 3 0 2 2 2 2 2 4
OS2TypoAscent: 0
OS2TypoAOffset: 1
OS2TypoDescent: -410
OS2TypoDOffset: 1
OS2TypoLinegap: 0
OS2WinAscent: 53
OS2WinAOffset: 1
OS2WinDescent: 125
OS2WinDOffset: 1
HheadAscent: 53
HheadAOffset: 1
HheadDescent: -125
HheadDOffset: 1
OS2SubXSize: 1434
OS2SubYSize: 1331
OS2SubXOff: 0
OS2SubYOff: 287
OS2SupXSize: 1434
OS2SupYSize: 1331
OS2SupXOff: 0
OS2SupYOff: 977
OS2StrikeYSize: 102
OS2StrikeYPos: 512
OS2FamilyClass: 2050
OS2Vendor: 'BLWK'
Lookup: 4 0 0 "'frac' Diagonal Fractions in Latin lookup 0"  {"'frac' Diagonal Fractions in Latin lookup 0 subtable"  } ['frac' ('latn' <'dflt' > ) ]
Lookup: 6 0 0 "'liga' Standard Ligatures in Latin lookup 1"  {"'liga' Standard Ligatures in Latin lookup 1 subtable"  } ['liga' ('latn' <'dflt' > ) ]
Lookup: 6 0 0 "'liga' Standard Ligatures in Latin lookup 2"  {"'liga' Standard Ligatures in Latin lookup 2 subtable"  } ['liga' ('latn' <'dflt' > ) ]
Lookup: 6 0 0 "'liga' Standard Ligatures in Latin lookup 3"  {"'liga' Standard Ligatures in Latin lookup 3 subtable"  } ['liga' ('latn' <'dflt' > ) ]
Lookup: 6 0 0 "'liga' Standard Ligatures in Latin lookup 4"  {"'liga' Standard Ligatures in Latin lookup 4 subtable"  } ['liga' ('latn' <'dflt' > ) ]

StartChar: .notdef
Encoding: 65536 -1 0
Width: 1229
VWidth: 3555
Flags: W
HStem: -363 115<-7 786> 1330 118<299 1092>
Fore
207 1448 m 1,0,-1
 1231 1448 l 1,1,-1
 878 -363 l 1,2,-1
 -146 -363 l 1,3,-1
 207 1448 l 1,0,-1
786 -248 m 1,4,-1
 1092 1330 l 1,5,-1
 299 1330 l 1,6,-1
 -7 -248 l 1,7,-1
 786 -248 l 1,4,-1
EndSplineSet
EndChar
StartChar: exclam
Encoding: 33 33 4
Width: 824
VWidth: 3555
Flags: W
HStem: 0 252<177 335> 1473 20G<416.092 621>
VStem: 132 489<0 1493>
Fore
380 252 m 1,0,-1
 335 0 l 1,1,-1
 132 0 l 1,2,-1
 177 252 l 1,3,-1
 380 252 l 1,0,-1
621 1493 m 1,4,-1
 495 838 l 1,5,-1
 410 479 l 1,6,-1
 245 479 l 1,7,-1
 292 838 l 1,8,-1
 420 1493 l 1,9,-1
 621 1493 l 1,4,-1
EndSplineSet
EndChar
StartChar: quotedbl
Encoding: 34 34 5
Width: 944
VWidth: 3555
Flags: W
HStem: 1473 20G<305.173 479 682.173 858>
VStem: 203 655<939 1493>
Fore
373 939 m 1,0,-1
 203 939 l 1,1,-1
 309 1493 l 1,2,-1
 479 1493 l 1,3,-1
 373 939 l 1,0,-1
750 939 m 1,4,-1
 580 939 l 1,5,-1
 686 1493 l 1,6,-1
 858 1493 l 1,7,-1
 750 939 l 1,4,-1
EndSplineSet
EndChar
StartChar: numbersign
Encoding: 35 35 6
Width: 1716
VWidth: 3555
Flags: W
HStem: 0 21G<193 360.765 648 815.765> 413 156<89 373 608 828 1059 1347> 903 156<295 594 821 1045 1272 1557>
Fore
753 903 m 1,0,-1
 608 569 l 1,1,-1
 899 569 l 1,2,-1
 1045 903 l 1,3,-1
 753 903 l 1,0,-1
821 1059 m 1,4,-1
 1113 1059 l 1,5,-1
 1299 1472 l 1,6,-1
 1458 1472 l 1,7,-1
 1272 1059 l 1,8,-1
 1585 1059 l 1,9,-1
 1557 903 l 1,10,-1
 1205 903 l 1,11,-1
 1059 569 l 1,12,-1
 1380 569 l 1,13,-1
 1347 413 l 1,14,-1
 988 413 l 1,15,-1
 807 0 l 1,16,-1
 648 0 l 1,17,-1
 828 413 l 1,18,-1
 533 413 l 1,19,-1
 352 0 l 1,20,-1
 193 0 l 1,21,-1
 373 413 l 1,22,-1
 57 413 l 1,23,-1
 89 569 l 1,24,-1
 444 569 l 1,25,-1
 594 903 l 1,26,-1
 267 903 l 1,27,-1
 295 1059 l 1,28,-1
 658 1059 l 1,29,-1
 842 1472 l 1,30,-1
 1003 1472 l 1,31,-1
 821 1059 l 1,4,-1
EndSplineSet
EndChar
StartChar: dollar
Encoding: 36 36 7
Width: 1303
VWidth: 3555
Flags: W
HStem: 0 142<232.036 417> 1180 146<771 945.404>
Fore
356 -302 m 1,0,-1
 417 0 l 1,1,2
 210 0 210 0 7 92 c 1,3,-1
 40 271 l 1,4,5
 132 210 132 210 229 176 c 128,-1,6
 326 142 326 142 441 142 c 1,7,-1
 529 601 l 1,8,9
 316 634 316 634 231 720.5 c 128,-1,10
 146 807 146 807 174 957 c 0,11,12
 207 1120 207 1120 334.5 1214.5 c 128,-1,13
 462 1309 462 1309 672 1323 c 1,14,-1
 719 1557 l 1,15,-1
 818 1557 l 1,16,-1
 771 1326 l 1,17,18
 865 1323 865 1323 948 1308 c 128,-1,19
 1031 1293 1031 1293 1113 1262 c 1,20,-1
 1078 1088 l 1,21,22
 920 1174 920 1174 743 1180 c 1,23,-1
 661 753 l 1,24,25
 882 719 882 719 970.5 629.5 c 128,-1,26
 1059 540 1059 540 1028 380 c 0,27,28
 995 210 995 210 864 113.5 c 128,-1,29
 733 17 733 17 516 0 c 1,30,-1
 455 -302 l 1,31,-1
 356 -302 l 1,0,-1
644 1184 m 1,32,33
 398 1156 398 1156 366 974 c 0,34,35
 349 889 349 889 395 839.5 c 128,-1,36
 441 790 441 790 562 767 c 1,37,-1
 644 1184 l 1,32,33
540 146 m 1,38,39
 807 174 807 174 838 363 c 0,40,41
 858 451 858 451 807.5 502.5 c 128,-1,42
 757 554 757 554 625 580 c 1,43,-1
 540 146 l 1,38,39
EndSplineSet
EndChar
StartChar: percent
Encoding: 37 37 8
Width: 1947
VWidth: 3555
Flags: W
HStem: -28 127<1225.33 1450.21> 658 125<1317.49 1540.42> 708 127<336.754 557.675> 1394 128<432.047 650.818>
Fore
1436 658 m 0,0,1
 1347 658 1347 658 1287 583.5 c 128,-1,2
 1227 509 1227 509 1198 377 c 0,3,4
 1174 245 1174 245 1207.5 172 c 128,-1,5
 1241 99 1241 99 1330 99 c 0,6,7
 1415 99 1415 99 1481 172 c 128,-1,8
 1547 245 1547 245 1571 377 c 0,9,10
 1601 509 1601 509 1561.5 583.5 c 128,-1,11
 1522 658 1522 658 1436 658 c 0,0,1
1462 783 m 256,12,13
 1621 783 1621 783 1694 676 c 128,-1,14
 1767 569 1767 569 1727 377 c 0,15,16
 1693 193 1693 193 1579 82.5 c 128,-1,17
 1465 -28 1465 -28 1305 -28 c 256,18,19
 1144 -28 1144 -28 1073.5 82.5 c 128,-1,20
 1003 193 1003 193 1038 377 c 0,21,22
 1078 569 1078 569 1190 676 c 128,-1,23
 1302 783 1302 783 1462 783 c 256,12,13
550 1394 m 0,24,25
 465 1394 465 1394 400 1319.5 c 128,-1,26
 335 1245 335 1245 309 1116 c 0,27,28
 281 984 281 984 316.5 909.5 c 128,-1,29
 352 835 352 835 441 835 c 0,30,31
 526 835 526 835 590 909.5 c 128,-1,32
 654 984 654 984 682 1116 c 0,33,34
 708 1245 708 1245 671 1319.5 c 128,-1,35
 634 1394 634 1394 550 1394 c 0,24,25
1639 1522 m 1,36,-1
 401 -28 l 1,37,-1
 245 -28 l 1,38,-1
 1479 1522 l 1,39,-1
 1639 1522 l 1,36,-1
576 1522 m 256,40,41
 736 1522 736 1522 809 1415.5 c 128,-1,42
 882 1309 882 1309 845 1116 c 0,43,44
 807 924 807 924 691.5 816 c 128,-1,45
 576 708 576 708 417 708 c 256,46,47
 255 708 255 708 185 816 c 128,-1,48
 115 924 115 924 153 1116 c 0,49,50
 189 1302 189 1302 303 1412 c 128,-1,51
 417 1522 417 1522 576 1522 c 256,40,41
EndSplineSet
EndChar
StartChar: ampersand
Encoding: 38 38 9
Width: 1598
VWidth: 3555
Flags: W
HStem: -28 160<358.755 743.746> 1364 158<647.728 1007.92>
Fore
476 807 m 1,0,1
 363 722 363 722 307.5 642 c 128,-1,2
 252 562 252 562 234 472 c 0,3,4
 207 323 207 323 293.5 227.5 c 128,-1,5
 380 132 380 132 543 132 c 0,6,7
 722 132 722 132 899 260 c 1,8,-1
 476 807 l 1,0,1
1042 394 m 1,9,10
 1123 484 1123 484 1175 586.5 c 128,-1,11
 1227 689 1227 689 1259 804 c 1,12,-1
 1439 804 l 1,13,14
 1373 536 1373 536 1130 285 c 1,15,-1
 1358 0 l 1,16,-1
 1109 0 l 1,17,-1
 988 146 l 1,18,19
 746 -28 746 -28 495 -28 c 0,20,21
 248 -28 248 -28 122 106 c 0,22,23
 -3 241 -3 241 40 462 c 0,24,25
 85 719 85 719 394 917 c 1,26,27
 323 1042 323 1042 345 1163 c 0,28,29
 377 1326 377 1326 509 1424 c 128,-1,30
 641 1522 641 1522 825 1522 c 0,31,32
 981 1522 981 1522 1144 1451 c 1,33,-1
 1109 1266 l 1,34,35
 953 1364 953 1364 811 1364 c 0,36,37
 705 1364 705 1364 629.5 1308 c 128,-1,38
 554 1252 554 1252 536 1167 c 0,39,40
 526 1113 526 1113 547.5 1061.5 c 128,-1,41
 569 1010 569 1010 641 917 c 2,42,-1
 1042 394 l 1,9,10
EndSplineSet
EndChar
StartChar: quotesingle
Encoding: 39 39 10
Width: 564
VWidth: 3555
Flags: W
HStem: 1473 20G<305.173 479>
VStem: 203 276<939 1493>
Fore
373 939 m 1,0,-1
 203 939 l 1,1,-1
 309 1493 l 1,2,-1
 479 1493 l 1,3,-1
 373 939 l 1,0,-1
EndSplineSet
EndChar
StartChar: parenleft
Encoding: 40 40 11
Width: 798
VWidth: 3555
Flags: W
VStem: 108.5 651.5<192.5 1557>
Fore
760 1557 m 1,0,1
 580 1323 580 1323 473 1100.5 c 128,-1,2
 366 878 366 878 319 644 c 256,3,4
 274 410 274 410 293 187.5 c 128,-1,5
 312 -35 312 -35 404 -271 c 1,6,-1
 245 -271 l 1,7,8
 142 -35 142 -35 108.5 192.5 c 128,-1,9
 75 420 75 420 122 644 c 0,10,11
 207 1088 207 1088 601 1557 c 1,12,-1
 760 1557 l 1,0,1
EndSplineSet
EndChar
StartChar: parenright
Encoding: 41 41 12
Width: 798
VWidth: 3555
Flags: W
VStem: -68 648.5<-271 1093.5>
Fore
448 1557 m 1,0,1
 550 1319 550 1319 580.5 1093.5 c 128,-1,2
 611 868 611 868 569 644 c 0,3,4
 476 196 476 196 92 -271 c 1,5,-1
 -68 -271 l 1,6,7
 109 -35 109 -35 219.5 187.5 c 128,-1,8
 330 410 330 410 377 644 c 256,9,10
 424 878 424 878 398.5 1100.5 c 128,-1,11
 373 1323 373 1323 288 1557 c 1,12,-1
 448 1557 l 1,0,1
EndSplineSet
EndChar
StartChar: asterisk
Encoding: 42 42 13
Width: 1022
VWidth: 3555
Flags: W
HStem: 587 935<509 576>
VStem: 50 978<858 1248>
Fore
628 1055 m 1,0,-1
 950 858 l 1,1,-1
 875 760 l 1,2,-1
 580 963 l 1,3,-1
 509 587 l 1,4,-1
 394 587 l 1,5,-1
 465 963 l 1,6,-1
 89 760 l 1,7,-1
 50 858 l 1,8,-1
 444 1055 l 1,9,-1
 128 1248 l 1,10,-1
 203 1347 l 1,11,-1
 502 1144 l 1,12,-1
 576 1522 l 1,13,-1
 689 1522 l 1,14,-1
 615 1144 l 1,15,-1
 988 1347 l 1,16,-1
 1028 1248 l 1,17,-1
 628 1055 l 1,0,-1
EndSplineSet
EndChar
StartChar: plus
Encoding: 43 43 14
Width: 1716
VWidth: 3555
Flags: W
HStem: 0 21G<594 770.864> 559 170<181 700 906 1429>
Fore
906 729 m 1,0,-1
 1462 729 l 1,1,-1
 1429 559 l 1,2,-1
 875 559 l 1,3,-1
 767 0 l 1,4,-1
 594 0 l 1,5,-1
 700 559 l 1,6,-1
 149 559 l 1,7,-1
 181 729 l 1,8,-1
 733 729 l 1,9,-1
 842 1286 l 1,10,-1
 1017 1286 l 1,11,-1
 906 729 l 1,0,-1
EndSplineSet
EndChar
StartChar: comma
Encoding: 44 44 15
Width: 649
VWidth: 3555
Flags: W
HStem: -238 490<61 323>
VStem: -71 394<-238 252>
Fore
323 252 m 1,0,-1
 292 82 l 1,1,-1
 61 -238 l 1,2,-1
 -71 -238 l 1,3,-1
 75 82 l 1,4,-1
 106 252 l 1,5,-1
 323 252 l 1,0,-1
EndSplineSet
EndChar
StartChar: hyphen
Encoding: 45 45 16
Width: 737
VWidth: 3555
Flags: W
HStem: 479 165<47 554>
VStem: 14 573<479 644>
Fore
587 644 m 1,0,-1
 554 479 l 1,1,-1
 14 479 l 1,2,-1
 47 644 l 1,3,-1
 587 644 l 1,0,-1
EndSplineSet
EndChar
StartChar: period
Encoding: 46 46 17
Width: 649
VWidth: 3555
Flags: W
HStem: 0 252<89 255>
VStem: 43 259<0 252>
Fore
302 252 m 1,0,-1
 255 0 l 1,1,-1
 43 0 l 1,2,-1
 89 252 l 1,3,-1
 302 252 l 1,0,-1
EndSplineSet
EndChar
StartChar: slash
Encoding: 47 47 18
Width: 689
VWidth: 3555
Flags: W
HStem: 1473 20G<618.012 800>
VStem: -214 1014<-193 1493>
Fore
800 1493 m 1,0,-1
 -50 -193 l 1,1,-1
 -214 -193 l 1,2,-1
 628 1493 l 1,3,-1
 800 1493 l 1,0,-1
EndSplineSet
EndChar
StartChar: zero
Encoding: 48 48 19
Width: 1303
VWidth: 3555
Flags: W
HStem: -28 160<361.477 652.205> 1361 161<585.75 872.327>
Fore
736 1361 m 0,0,1
 424 1361 424 1361 302 746 c 0,2,3
 184 132 184 132 498 132 c 0,4,5
 814 132 814 132 932 746 c 0,6,7
 1052 1361 1052 1361 736 1361 c 0,0,1
767 1522 m 256,8,9
 1024 1522 1024 1522 1116 1322.5 c 128,-1,10
 1208 1123 1208 1123 1134 746 c 0,11,12
 1062 370 1062 370 892 171 c 128,-1,13
 722 -28 722 -28 465 -28 c 256,14,15
 210 -28 210 -28 119 171 c 128,-1,16
 28 370 28 370 99 746 c 0,17,18
 174 1123 174 1123 343 1322.5 c 128,-1,19
 512 1522 512 1522 767 1522 c 256,8,9
EndSplineSet
EndChar
StartChar: one
Encoding: 49 49 20
Width: 1303
VWidth: 3555
Flags: W
HStem: 0 167<106 441 637 939> 1473 20G<584.176 892>
VStem: 75 895<0 167>
Fore
441 167 m 1,0,-1
 661 1312 l 1,1,-1
 288 1238 l 1,2,-1
 323 1425 l 1,3,-1
 693 1493 l 1,4,-1
 892 1493 l 1,5,-1
 637 167 l 1,6,-1
 970 167 l 1,7,-1
 939 0 l 1,8,-1
 75 0 l 1,9,-1
 106 167 l 1,10,-1
 441 167 l 1,0,-1
EndSplineSet
EndChar
StartChar: two
Encoding: 50 50 21
Width: 1303
VWidth: 3555
Flags: W
HStem: 0 167<245 920> 1351 171<516.728 836.403>
Fore
953 167 m 1,0,-1
 920 0 l 1,1,-1
 -28 0 l 1,2,-1
 3 167 l 1,3,4
 71 227 71 227 165.5 307 c 128,-1,5
 260 387 260 387 377 488 c 0,6,7
 498 590 498 590 573 656 c 128,-1,8
 648 722 648 722 682 750 c 0,9,10
 800 858 800 858 851.5 932.5 c 128,-1,11
 903 1007 903 1007 920 1082 c 0,12,13
 943 1201 943 1201 873.5 1276 c 128,-1,14
 804 1351 804 1351 668 1351 c 0,15,16
 479 1351 479 1351 217 1219 c 1,17,-1
 255 1425 l 1,18,19
 387 1472 387 1472 499 1497 c 128,-1,20
 611 1522 611 1522 700 1522 c 0,21,22
 936 1522 936 1522 1049.5 1406 c 128,-1,23
 1163 1290 1163 1290 1123 1095 c 0,24,25
 1106 1003 1106 1003 1056.5 920.5 c 128,-1,26
 1007 838 1007 838 892 726 c 0,27,28
 865 696 865 696 702.5 560 c 128,-1,29
 540 424 540 424 245 167 c 1,30,-1
 953 167 l 1,0,-1
EndSplineSet
EndChar
StartChar: three
Encoding: 51 51 22
Width: 1303
VWidth: 3555
Flags: W
HStem: -28 170<129.297 648.832> 715 167<404 748.508> 1351 171<478.871 867.168>
Fore
811 807 m 1,0,1
 950 771 950 771 1011.5 675.5 c 128,-1,2
 1073 580 1073 580 1045 437 c 0,3,4
 1003 214 1003 214 828.5 93 c 128,-1,5
 654 -28 654 -28 373 -28 c 0,6,7
 189 -28 189 -28 -17 43 c 1,8,-1
 21 238 l 1,9,10
 177 142 177 142 398 142 c 0,11,12
 590 142 590 142 702 215 c 128,-1,13
 814 288 814 288 842 437 c 0,14,15
 871 569 871 569 793 642 c 128,-1,16
 715 715 715 715 550 715 c 2,17,-1
 373 715 l 1,18,-1
 404 882 l 1,19,-1
 590 882 l 2,20,21
 896 882 896 882 939 1113 c 0,22,23
 963 1227 963 1227 892 1289 c 128,-1,24
 821 1351 821 1351 672 1351 c 0,25,26
 587 1351 587 1351 490.5 1333.5 c 128,-1,27
 394 1316 394 1316 271 1276 c 1,28,-1
 306 1458 l 1,29,30
 550 1522 550 1522 726 1522 c 0,31,32
 960 1522 960 1522 1072 1419 c 128,-1,33
 1184 1316 1184 1316 1149 1134 c 0,34,35
 1092 875 1092 875 811 807 c 1,0,1
EndSplineSet
EndChar
StartChar: four
Encoding: 52 52 23
Width: 1303
VWidth: 3555
Flags: W
HStem: 0 21G<594 803.864> 352 167<184 661 899 1082> 1473 20G<814.99 1088>
Fore
184 519 m 1,0,-1
 693 519 l 1,1,-1
 849 1319 l 1,2,-1
 184 519 l 1,0,-1
1088 1493 m 1,3,-1
 899 519 l 1,4,-1
 1113 519 l 1,5,-1
 1082 352 l 1,6,-1
 868 352 l 1,7,-1
 800 0 l 1,8,-1
 594 0 l 1,9,-1
 661 352 l 1,10,-1
 -10 352 l 1,11,-1
 24 543 l 1,12,-1
 832 1493 l 1,13,-1
 1088 1493 l 1,3,-1
EndSplineSet
EndChar
StartChar: five
Encoding: 53 53 24
Width: 1303
VWidth: 3555
Flags: W
HStem: -28 170<168.795 615.714> 821 167<415.174 726.4> 1326 167<484 1092>
Fore
1123 1493 m 1,0,-1
 1092 1326 l 1,1,-1
 484 1326 l 1,2,-1
 413 960 l 1,3,4
 516 988 516 988 597 988 c 0,5,6
 854 988 854 988 969.5 851.5 c 128,-1,7
 1085 715 1085 715 1038 479 c 0,8,9
 988 234 988 234 814.5 103 c 128,-1,10
 641 -28 641 -28 370 -28 c 0,11,12
 184 -28 184 -28 -17 35 c 1,13,-1
 24 238 l 1,14,15
 106 193 106 193 197 167.5 c 128,-1,16
 288 142 288 142 391 142 c 0,17,18
 573 142 573 142 690 230.5 c 128,-1,19
 807 319 807 319 838 479 c 0,20,21
 868 641 868 641 786.5 731 c 128,-1,22
 705 821 705 821 523 821 c 0,23,24
 444 821 444 821 359 800 c 128,-1,25
 274 779 274 779 189 743 c 1,26,-1
 335 1493 l 1,27,-1
 1123 1493 l 1,0,-1
EndSplineSet
EndChar
StartChar: six
Encoding: 54 54 25
Width: 1303
VWidth: 3555
Flags: W
HStem: -28 160<370.629 692.985> 828 160<499.68 811.398> 1351 171<644.094 955.765>
Fore
661 828 m 0,0,1
 519 828 519 828 421 734.5 c 128,-1,2
 323 641 323 641 295 479 c 0,3,4
 264 319 264 319 324 225.5 c 128,-1,5
 384 132 384 132 526 132 c 0,6,7
 661 132 661 132 759.5 225.5 c 128,-1,8
 858 319 858 319 889 479 c 0,9,10
 917 641 917 641 857 734.5 c 128,-1,11
 797 828 797 828 661 828 c 0,0,1
1144 1276 m 1,12,13
 1078 1316 1078 1316 1003.5 1333.5 c 128,-1,14
 929 1351 929 1351 849 1351 c 0,15,16
 451 1351 451 1351 323 811 c 1,17,18
 394 896 394 896 495.5 942 c 128,-1,19
 597 988 597 988 705 988 c 0,20,21
 932 988 932 988 1034.5 851.5 c 128,-1,22
 1137 715 1137 715 1092 479 c 0,23,24
 1045 248 1045 248 882 110 c 128,-1,25
 719 -28 719 -28 495 -28 c 0,26,27
 227 -28 227 -28 131 171 c 128,-1,28
 35 370 35 370 106 746 c 0,29,30
 142 924 142 924 213.5 1066 c 128,-1,31
 285 1208 285 1208 386.5 1309.5 c 128,-1,32
 488 1411 488 1411 614 1466.5 c 128,-1,33
 740 1522 740 1522 878 1522 c 0,34,35
 957 1522 957 1522 1029.5 1505.5 c 128,-1,36
 1102 1489 1102 1489 1180 1462 c 1,37,-1
 1144 1276 l 1,12,13
EndSplineSet
EndChar
StartChar: seven
Encoding: 55 55 26
Width: 1303
VWidth: 3555
Flags: W
HStem: 0 21G<200 421.58> 1326 167<278 963>
Fore
1241 1493 m 1,0,-1
 1227 1411 l 1,1,-1
 410 0 l 1,2,-1
 200 0 l 1,3,-1
 963 1326 l 1,4,-1
 245 1326 l 1,5,-1
 278 1493 l 1,6,-1
 1241 1493 l 1,0,-1
EndSplineSet
EndChar
StartChar: eight
Encoding: 56 56 27
Width: 1303
VWidth: 3555
Flags: W
HStem: -28 160<326.992 693.536> 712 156<473.16 787.458> 1361 161<550.613 902.979>
Fore
608 712 m 0,0,1
 465 712 465 712 369.5 635.5 c 128,-1,2
 274 559 274 559 245 420 c 0,3,4
 220 285 220 285 288 208.5 c 128,-1,5
 356 132 356 132 498 132 c 0,6,7
 648 132 648 132 743 208.5 c 128,-1,8
 838 285 838 285 865 420 c 0,9,10
 892 559 892 559 824.5 635.5 c 128,-1,11
 757 712 757 712 608 712 c 0,0,1
427 797 m 1,12,13
 302 828 302 828 243 917.5 c 128,-1,14
 184 1007 184 1007 214 1134 c 0,15,16
 248 1316 248 1316 395.5 1419 c 128,-1,17
 543 1522 543 1522 767 1522 c 256,18,19
 991 1522 991 1522 1099.5 1419 c 128,-1,20
 1208 1316 1208 1316 1174 1134 c 0,21,22
 1144 1007 1144 1007 1053.5 917.5 c 128,-1,23
 963 828 963 828 828 797 c 1,24,25
 970 760 970 760 1032.5 664.5 c 128,-1,26
 1095 569 1095 569 1066 420 c 0,27,28
 1028 207 1028 207 871.5 89.5 c 128,-1,29
 715 -28 715 -28 465 -28 c 256,30,31
 217 -28 217 -28 108.5 89.5 c 128,-1,32
 0 207 0 207 40 420 c 0,33,34
 68 569 68 569 169.5 664.5 c 128,-1,35
 271 760 271 760 427 797 c 1,12,13
417 1116 m 0,36,37
 391 998 391 998 450 933 c 128,-1,38
 509 868 509 868 641 868 c 0,39,40
 767 868 767 868 856.5 933 c 128,-1,41
 946 998 946 998 970 1116 c 0,42,43
 991 1231 991 1231 928 1296 c 128,-1,44
 865 1361 865 1361 736 1361 c 0,45,46
 604 1361 604 1361 520.5 1296 c 128,-1,47
 437 1231 437 1231 417 1116 c 0,36,37
EndSplineSet
EndChar
StartChar: nine
Encoding: 57 57 28
Width: 1303
VWidth: 3555
Flags: W
HStem: -28 170<220.809 587.486> 505 160<426.285 731.737> 1361 161<545.155 862.718>
Fore
89 217 m 1,0,1
 156 177 156 177 231 159.5 c 128,-1,2
 306 142 306 142 380 142 c 0,3,4
 583 142 583 142 714 276 c 128,-1,5
 845 410 845 410 913 686 c 1,6,7
 835 601 835 601 738 553 c 128,-1,8
 641 505 641 505 533 505 c 0,9,10
 306 505 306 505 202.5 639.5 c 128,-1,11
 99 774 99 774 146 1014 c 0,12,13
 193 1245 193 1245 356 1383.5 c 128,-1,14
 519 1522 519 1522 743 1522 c 0,15,16
 1003 1522 1003 1522 1102 1322.5 c 128,-1,17
 1201 1123 1201 1123 1127 746 c 0,18,19
 1055 391 1055 391 849.5 181.5 c 128,-1,20
 644 -28 644 -28 356 -28 c 0,21,22
 203 -28 203 -28 54 28 c 1,23,-1
 89 217 l 1,0,1
576 665 m 256,24,25
 712 665 712 665 811 757 c 128,-1,26
 910 849 910 849 943 1014 c 256,27,28
 974 1177 974 1177 909.5 1269 c 128,-1,29
 845 1361 845 1361 712 1361 c 256,30,31
 576 1361 576 1361 480 1269 c 128,-1,32
 384 1177 384 1177 352 1014 c 256,33,34
 319 849 319 849 380 757 c 128,-1,35
 441 665 441 665 576 665 c 256,24,25
EndSplineSet
EndChar
StartChar: colon
Encoding: 58 58 29
Width: 689
VWidth: 3555
Flags: W
HStem: 0 252<106 278> 807 255<267 434>
VStem: 61 423<0 1062>
Fore
323 252 m 1,0,-1
 278 0 l 1,1,-1
 61 0 l 1,2,-1
 106 252 l 1,3,-1
 323 252 l 1,0,-1
484 1062 m 1,4,-1
 434 807 l 1,5,-1
 217 807 l 1,6,-1
 267 1062 l 1,7,-1
 484 1062 l 1,4,-1
EndSplineSet
EndChar
StartChar: semicolon
Encoding: 59 59 30
Width: 689
VWidth: 3555
Flags: W
HStem: 807 255<267 434>
VStem: -71 555<-238 1062>
Fore
484 1062 m 1,0,-1
 434 807 l 1,1,-1
 217 807 l 1,2,-1
 267 1062 l 1,3,-1
 484 1062 l 1,0,-1
323 252 m 1,4,-1
 292 82 l 1,5,-1
 61 -238 l 1,6,-1
 -71 -238 l 1,7,-1
 75 82 l 1,8,-1
 106 252 l 1,9,-1
 323 252 l 1,4,-1
EndSplineSet
EndChar
StartChar: less
Encoding: 60 60 31
Width: 1716
VWidth: 3555
Flags: W
Fore
413 641 m 1,0,-1
 1377 278 l 1,1,-1
 1340 95 l 1,2,-1
 149 562 l 1,3,-1
 181 726 l 1,4,-1
 1554 1191 l 1,5,-1
 1517 1007 l 1,6,-1
 413 641 l 1,0,-1
EndSplineSet
EndChar
StartChar: equal
Encoding: 61 61 32
Width: 1716
VWidth: 3555
Flags: W
HStem: 352 171<142 1391> 760 172<220 1469>
Fore
1500 932 m 1,0,-1
 1469 760 l 1,1,-1
 189 760 l 1,2,-1
 220 932 l 1,3,-1
 1500 932 l 1,0,-1
1422 523 m 1,4,-1
 1391 352 l 1,5,-1
 109 352 l 1,6,-1
 142 523 l 1,7,-1
 1422 523 l 1,4,-1
EndSplineSet
EndChar
StartChar: greater
Encoding: 62 62 33
Width: 1716
VWidth: 3555
Flags: W
Fore
274 1191 m 1,0,-1
 1462 726 l 1,1,-1
 1429 562 l 1,2,-1
 61 95 l 1,3,-1
 95 278 l 1,4,-1
 1191 641 l 1,5,-1
 238 1007 l 1,6,-1
 274 1191 l 1,0,-1
EndSplineSet
EndChar
StartChar: question
Encoding: 63 63 34
Width: 1086
VWidth: 3555
Flags: W
HStem: 0 252<260 420> 1358 164<409.091 739.516>
VStem: 203 788<1219 1250.04 1170 1219>
Fore
465 252 m 1,0,-1
 420 0 l 1,1,-1
 214 0 l 1,2,-1
 260 252 l 1,3,-1
 465 252 l 1,0,-1
292 401 m 1,4,-1
 323 559 l 2,5,6
 342 654 342 654 384.5 720 c 128,-1,7
 427 786 427 786 529 871 c 2,8,-1
 641 963 l 2,9,10
 767 1059 767 1059 790 1156 c 0,11,12
 807 1248 807 1248 751.5 1303 c 128,-1,13
 696 1358 696 1358 587 1358 c 0,14,15
 509 1358 509 1358 412.5 1324 c 128,-1,16
 316 1290 316 1290 203 1219 c 1,17,-1
 241 1411 l 1,18,19
 462 1522 462 1522 654 1522 c 0,20,21
 838 1522 838 1522 931 1426 c 128,-1,22
 1024 1330 1024 1330 991 1170 c 0,23,24
 977 1092 977 1092 926 1024.5 c 128,-1,25
 875 957 875 957 771 868 c 2,26,-1
 668 783 l 2,27,28
 608 736 608 736 587 711 c 128,-1,29
 566 686 566 686 547 658 c 1,30,31
 540 637 540 637 531.5 608.5 c 128,-1,32
 523 580 523 580 512 523 c 2,33,-1
 488 401 l 1,34,-1
 292 401 l 1,4,-1
EndSplineSet
EndChar
StartChar: at
Encoding: 64 64 35
Width: 2050
VWidth: 3555
Flags: W
HStem: -356 142<559.26 1075.78> 89 142<747.417 1031.14> 842 146<849.684 1157.28> 1302 146<875.527 1383.98>
Fore
686 536 m 0,0,1
 658 394 658 394 712.5 312.5 c 128,-1,2
 767 231 767 231 892 231 c 256,3,4
 1017 231 1017 231 1105.5 312.5 c 128,-1,5
 1194 394 1194 394 1224 536 c 256,6,7
 1252 679 1252 679 1193 760.5 c 128,-1,8
 1134 842 1134 842 1014 842 c 256,9,10
 892 842 892 842 803.5 764 c 128,-1,11
 715 686 715 686 686 536 c 0,0,1
1177 238 m 1,12,13
 1028 89 1028 89 828 89 c 0,14,15
 658 89 658 89 574.5 212 c 128,-1,16
 491 335 491 335 529 536 c 256,17,18
 569 740 569 740 702 864 c 128,-1,19
 835 988 835 988 1007 988 c 0,20,21
 1109 988 1109 988 1177 952.5 c 128,-1,22
 1245 917 1245 917 1290 838 c 1,23,-1
 1319 970 l 1,24,-1
 1462 970 l 1,25,-1
 1316 231 l 1,26,27
 1472 252 1472 252 1572 362 c 128,-1,28
 1672 472 1672 472 1706 654 c 0,29,30
 1750 875 1750 875 1656 1028 c 0,31,32
 1578 1163 1578 1163 1441.5 1232.5 c 128,-1,33
 1305 1302 1305 1302 1134 1302 c 0,34,35
 1010 1302 1010 1302 888.5 1268 c 128,-1,36
 767 1234 767 1234 661 1174 c 0,37,38
 479 1069 479 1069 360 902.5 c 128,-1,39
 241 736 241 736 203 540 c 0,40,41
 174 380 174 380 202.5 243 c 128,-1,42
 231 106 231 106 323 0 c 0,43,44
 498 -214 498 -214 821 -214 c 0,45,46
 950 -214 950 -214 1081 -171 c 128,-1,47
 1212 -128 1212 -128 1333 -43 c 1,48,-1
 1401 -153 l 1,49,50
 1255 -252 1255 -252 1099 -304 c 128,-1,51
 943 -356 943 -356 793 -356 c 0,52,53
 410 -356 410 -356 196 -99 c 0,54,55
 92 24 92 24 58 190 c 128,-1,56
 24 356 24 356 61 540 c 256,57,58
 95 726 95 726 195 892.5 c 128,-1,59
 295 1059 295 1059 444 1184 c 0,60,61
 601 1309 601 1309 784 1378.5 c 128,-1,62
 967 1448 967 1448 1160 1448 c 0,63,64
 1373 1448 1373 1448 1534.5 1358.5 c 128,-1,65
 1696 1269 1696 1269 1788 1109 c 0,66,67
 1849 1010 1849 1010 1864.5 894.5 c 128,-1,68
 1880 779 1880 779 1856 658 c 0,69,70
 1805 391 1805 391 1615 240 c 128,-1,71
 1425 89 1425 89 1144 85 c 1,72,-1
 1177 238 l 1,12,13
EndSplineSet
EndChar
StartChar: A
Encoding: 65 65 36
Width: 1399
VWidth: 3555
Flags: W
HStem: 0 21G<-163 64.8421 994.737 1205> 380 174<359 906> 1473 20G<684.493 932.697>
Fore
359 554 m 1,0,-1
 906 554 l 1,1,-1
 771 1299 l 1,2,-1
 359 554 l 1,0,-1
929 1493 m 1,3,-1
 1205 0 l 1,4,-1
 998 0 l 1,5,-1
 936 380 l 1,6,-1
 260 380 l 1,7,-1
 54 0 l 1,8,-1
 -163 0 l 1,9,-1
 696 1493 l 1,10,-1
 929 1493 l 1,3,-1
EndSplineSet
EndChar
StartChar: B
Encoding: 66 66 37
Width: 1407
VWidth: 3555
Flags: W
HStem: 0 163<252 789.393> 715 163<394 882.713> 1330 163<479 973.203>
Fore
252 163 m 1,0,-1
 580 163 l 2,1,2
 899 163 899 163 957 441 c 0,3,4
 1010 715 1010 715 689 715 c 2,5,-1
 363 715 l 1,6,-1
 252 163 l 1,0,-1
394 878 m 1,7,-1
 696 878 l 2,8,9
 984 878 984 878 1031 1102 c 0,10,11
 1073 1330 1073 1330 783 1330 c 2,12,-1
 479 1330 l 1,13,-1
 394 878 l 1,7,-1
828 1493 m 2,14,15
 1062 1493 1062 1493 1169 1399 c 128,-1,16
 1276 1305 1276 1305 1241 1123 c 0,17,18
 1212 988 1212 988 1132 908 c 128,-1,19
 1052 828 1052 828 929 807 c 1,20,21
 1066 771 1066 771 1130 673.5 c 128,-1,22
 1194 576 1194 576 1163 417 c 0,23,24
 1123 220 1123 220 967 110 c 128,-1,25
 811 0 811 0 562 0 c 2,26,-1
 24 0 l 1,27,-1
 312 1493 l 1,28,-1
 828 1493 l 2,14,15
EndSplineSet
EndChar
StartChar: C
Encoding: 67 67 38
Width: 1432
VWidth: 3555
Flags: W
HStem: -28 167<473.891 943.017> 1354 168<694.735 1171.55>
Fore
1368 1167 m 1,0,1
 1201 1354 1201 1354 943 1354 c 0,2,3
 686 1354 686 1354 521 1201.5 c 128,-1,4
 356 1049 356 1049 295 746 c 0,5,6
 238 448 238 448 343 293.5 c 128,-1,7
 448 139 448 139 705 139 c 0,8,9
 963 139 963 139 1205 326 c 1,10,-1
 1167 115 l 1,11,12
 924 -28 924 -28 661 -28 c 0,13,14
 316 -28 316 -28 161.5 176 c 128,-1,15
 7 380 7 380 78 746 c 0,16,17
 115 929 115 929 193 1070.5 c 128,-1,18
 271 1212 271 1212 386.5 1313.5 c 128,-1,19
 502 1415 502 1415 647.5 1468.5 c 128,-1,20
 793 1522 793 1522 963 1522 c 0,21,22
 1227 1522 1227 1522 1411 1380 c 1,23,-1
 1368 1167 l 1,0,1
EndSplineSet
EndChar
StartChar: D
Encoding: 68 68 39
Width: 1578
VWidth: 3555
Flags: W
HStem: 0 163<252 797.875> 1330 163<479 1007.52>
Fore
252 163 m 1,0,-1
 498 163 l 2,1,2
 811 163 811 163 982 305.5 c 128,-1,3
 1153 448 1153 448 1212 750 c 0,4,5
 1269 1052 1269 1052 1153.5 1191 c 128,-1,6
 1038 1330 1038 1330 726 1330 c 2,7,-1
 479 1330 l 1,8,-1
 252 163 l 1,0,-1
726 1493 m 2,9,10
 1167 1493 1167 1493 1333.5 1315 c 128,-1,11
 1500 1137 1500 1137 1425 750 c 0,12,13
 1347 363 1347 363 1111 181.5 c 128,-1,14
 875 0 875 0 437 0 c 2,15,-1
 24 0 l 1,16,-1
 312 1493 l 1,17,-1
 726 1493 l 2,9,10
EndSplineSet
EndChar
StartChar: E
Encoding: 69 69 40
Width: 1296
VWidth: 3555
Flags: W
HStem: 0 167<255 988> 712 170<394 1073> 1326 167<479 1224>
Fore
1255 1493 m 1,0,-1
 1224 1326 l 1,1,-1
 479 1326 l 1,2,-1
 394 882 l 1,3,-1
 1109 882 l 1,4,-1
 1073 712 l 1,5,-1
 359 712 l 1,6,-1
 255 167 l 1,7,-1
 1021 167 l 1,8,-1
 988 0 l 1,9,-1
 24 0 l 1,10,-1
 312 1493 l 1,11,-1
 1255 1493 l 1,0,-1
EndSplineSet
EndChar
StartChar: F
Encoding: 70 70 41
Width: 1178
VWidth: 3555
Flags: W
HStem: 0 21G<24 227.888> 715 167<394 957> 1326 167<479 1141>
Fore
1174 1493 m 1,0,-1
 1141 1326 l 1,1,-1
 479 1326 l 1,2,-1
 394 882 l 1,3,-1
 988 882 l 1,4,-1
 957 715 l 1,5,-1
 363 715 l 1,6,-1
 224 0 l 1,7,-1
 24 0 l 1,8,-1
 312 1493 l 1,9,-1
 1174 1493 l 1,0,-1
EndSplineSet
EndChar
StartChar: G
Encoding: 71 71 42
Width: 1588
VWidth: 3555
Flags: W
HStem: -28 167<482.252 915.549> 615 164<861 1160> 1354 168<702.437 1212.07>
Fore
1160 615 m 1,0,-1
 828 615 l 1,1,-1
 861 779 l 1,2,-1
 1394 779 l 1,3,-1
 1269 139 l 1,4,5
 1134 54 1134 54 984.5 13 c 128,-1,6
 835 -28 835 -28 675 -28 c 0,7,8
 323 -28 323 -28 165 176 c 128,-1,9
 7 380 7 380 78 746 c 256,10,11
 149 1113 149 1113 388.5 1317.5 c 128,-1,12
 628 1522 628 1522 977 1522 c 0,13,14
 1279 1522 1279 1522 1469 1380 c 1,15,-1
 1425 1167 l 1,16,17
 1245 1354 1245 1354 963 1354 c 0,18,19
 417 1354 417 1354 295 746 c 0,20,21
 177 139 177 139 726 139 c 0,22,23
 832 139 832 139 919.5 154.5 c 128,-1,24
 1007 170 1007 170 1082 214 c 1,25,-1
 1160 615 l 1,0,-1
EndSplineSet
EndChar
StartChar: H
Encoding: 72 72 43
Width: 1541
VWidth: 3555
Flags: W
HStem: 0 21G<24 227.792 960 1166.86> 712 170<394 1095> 1473 20G<308.142 512 1244.14 1451>
Fore
512 1493 m 1,0,-1
 394 882 l 1,1,-1
 1130 882 l 1,2,-1
 1248 1493 l 1,3,-1
 1451 1493 l 1,4,-1
 1163 0 l 1,5,-1
 960 0 l 1,6,-1
 1095 712 l 1,7,-1
 359 712 l 1,8,-1
 224 0 l 1,9,-1
 24 0 l 1,10,-1
 312 1493 l 1,11,-1
 512 1493 l 1,0,-1
EndSplineSet
EndChar
StartChar: I
Encoding: 73 73 44
Width: 604
VWidth: 3555
Flags: W
HStem: 0 21G<24 227.858> 1473 20G<308.142 512>
VStem: 24 488<0 1493>
Fore
512 1493 m 1,0,-1
 224 0 l 1,1,-1
 24 0 l 1,2,-1
 312 1493 l 1,3,-1
 512 1493 l 1,0,-1
EndSplineSet
EndChar
StartChar: J
Encoding: 74 74 45
Width: 604
VWidth: 3555
Flags: W
HStem: -410 172<-330 -101.916> 1473 20G<308.132 512>
VStem: -363 875<-410 1493>
Fore
512 1493 m 1,0,-1
 241 102 l 2,1,2
 193 -163 193 -163 66 -286.5 c 128,-1,3
 -61 -410 -61 -410 -285 -410 c 2,4,-1
 -363 -410 l 1,5,-1
 -330 -238 l 1,6,-1
 -267 -238 l 2,7,8
 -132 -238 -132 -238 -64.5 -163.5 c 128,-1,9
 3 -89 3 -89 43 102 c 2,10,-1
 312 1493 l 1,11,-1
 512 1493 l 1,0,-1
EndSplineSet
EndChar
StartChar: K
Encoding: 75 75 46
Width: 1343
VWidth: 3555
Flags: W
HStem: 0 21G<24 227.85 926.934 1208> 1473 20G<308.142 512 1158.75 1443>
Fore
512 1493 m 1,0,-1
 391 865 l 1,1,-1
 1184 1493 l 1,2,-1
 1443 1493 l 1,3,-1
 569 800 l 1,4,-1
 1208 0 l 1,5,-1
 943 0 l 1,6,-1
 363 722 l 1,7,-1
 224 0 l 1,8,-1
 24 0 l 1,9,-1
 312 1493 l 1,10,-1
 512 1493 l 1,0,-1
EndSplineSet
EndChar
StartChar: L
Encoding: 76 76 47
Width: 1140
VWidth: 3555
Flags: W
HStem: 0 167<255 953> 1473 20G<308.142 512>
VStem: 24 960<0 167>
Fore
512 1493 m 1,0,-1
 255 167 l 1,1,-1
 984 167 l 1,2,-1
 953 0 l 1,3,-1
 24 0 l 1,4,-1
 312 1493 l 1,5,-1
 512 1493 l 1,0,-1
EndSplineSet
EndChar
StartChar: M
Encoding: 77 77 48
Width: 1765
VWidth: 3555
Flags: W
HStem: 0 21G<24 220.841 1194 1397.86> 1473 20G<308.142 614.658 1365.59 1682>
Fore
611 1493 m 1,0,-1
 797 476 l 1,1,-1
 1377 1493 l 1,2,-1
 1682 1493 l 1,3,-1
 1394 0 l 1,4,-1
 1194 0 l 1,5,-1
 1448 1312 l 1,6,-1
 865 288 l 1,7,-1
 658 288 l 1,8,-1
 469 1312 l 1,9,-1
 217 0 l 1,10,-1
 24 0 l 1,11,-1
 312 1493 l 1,12,-1
 611 1493 l 1,0,-1
EndSplineSet
EndChar
StartChar: N
Encoding: 78 78 49
Width: 1534
VWidth: 3555
Flags: W
HStem: 0 21G<24 220.862 878.157 1159.84> 1473 20G<308.142 589.795 1244.14 1443>
Fore
583 1493 m 1,0,-1
 1007 245 l 1,1,-1
 1248 1493 l 1,2,-1
 1443 1493 l 1,3,-1
 1156 0 l 1,4,-1
 885 0 l 1,5,-1
 458 1248 l 1,6,-1
 217 0 l 1,7,-1
 24 0 l 1,8,-1
 312 1493 l 1,9,-1
 583 1493 l 1,0,-1
EndSplineSet
EndChar
StartChar: O
Encoding: 79 79 50
Width: 1612
VWidth: 3555
Flags: W
HStem: -28 163<461.127 869.313> 1358 164<683.252 1087.83>
Fore
896 1358 m 0,0,1
 672 1358 672 1358 512 1193 c 128,-1,2
 352 1028 352 1028 295 746 c 0,3,4
 241 458 241 458 337.5 296.5 c 128,-1,5
 434 135 434 135 658 135 c 0,6,7
 875 135 875 135 1036.5 296.5 c 128,-1,8
 1198 458 1198 458 1252 746 c 0,9,10
 1309 1028 1309 1028 1211 1193 c 128,-1,11
 1113 1358 1113 1358 896 1358 c 0,0,1
929 1522 m 0,12,13
 1085 1522 1085 1522 1200.5 1466.5 c 128,-1,14
 1316 1411 1316 1411 1385.5 1309.5 c 128,-1,15
 1455 1208 1455 1208 1475.5 1066 c 128,-1,16
 1496 924 1496 924 1462 746 c 256,17,18
 1425 569 1425 569 1348.5 427 c 128,-1,19
 1272 285 1272 285 1163.5 183.5 c 128,-1,20
 1055 82 1055 82 919 27 c 128,-1,21
 783 -28 783 -28 625 -28 c 0,22,23
 312 -28 312 -28 156 181 c 0,24,25
 10 394 10 394 78 746 c 0,26,27
 149 1102 149 1102 377 1309 c 0,28,29
 611 1522 611 1522 929 1522 c 0,12,13
EndSplineSet
EndChar
StartChar: P
Encoding: 80 80 51
Width: 1236
VWidth: 3555
Flags: W
HStem: 0 21G<24 227.827> 601 163<370 812.078> 1330 163<479 909.432>
Fore
370 764 m 1,0,-1
 625 764 l 2,1,2
 767 764 767 764 858.5 840.5 c 128,-1,3
 950 917 950 917 977 1049 c 0,4,5
 1007 1184 1007 1184 942.5 1257 c 128,-1,6
 878 1330 878 1330 736 1330 c 2,7,-1
 479 1330 l 1,8,-1
 370 764 l 1,0,-1
767 1493 m 2,9,10
 1017 1493 1017 1493 1125.5 1379.5 c 128,-1,11
 1234 1266 1234 1266 1191 1049 c 0,12,13
 1149 825 1149 825 995.5 713 c 128,-1,14
 842 601 842 601 594 601 c 2,15,-1
 339 601 l 1,16,-1
 224 0 l 1,17,-1
 24 0 l 1,18,-1
 312 1493 l 1,19,-1
 767 1493 l 2,9,10
EndSplineSet
EndChar
StartChar: Q
Encoding: 81 81 52
Width: 1612
VWidth: 3555
Flags: W
HStem: -24 159<461.127 696.72 656.989 708> 1358 164<683.252 1087.83>
Fore
896 1358 m 0,0,1
 672 1358 672 1358 512 1193 c 128,-1,2
 352 1028 352 1028 295 746 c 0,3,4
 241 458 241 458 337.5 296.5 c 128,-1,5
 434 135 434 135 658 135 c 0,6,7
 875 135 875 135 1036.5 296.5 c 128,-1,8
 1198 458 1198 458 1252 746 c 0,9,10
 1309 1028 1309 1028 1211 1193 c 128,-1,11
 1113 1358 1113 1358 896 1358 c 0,0,1
1127 -264 m 1,12,-1
 882 -264 l 1,13,-1
 708 -24 l 1,14,15
 672 -24 672 -24 656.5 -26 c 128,-1,16
 641 -28 641 -28 625 -28 c 0,17,18
 312 -28 312 -28 156 181 c 0,19,20
 10 394 10 394 78 746 c 0,21,22
 149 1102 149 1102 377 1309 c 0,23,24
 611 1522 611 1522 929 1522 c 0,25,26
 1085 1522 1085 1522 1200.5 1466.5 c 128,-1,27
 1316 1411 1316 1411 1385.5 1309.5 c 128,-1,28
 1455 1208 1455 1208 1475.5 1066 c 128,-1,29
 1496 924 1496 924 1462 746 c 0,30,31
 1411 488 1411 488 1272.5 301.5 c 128,-1,32
 1134 115 1134 115 917 24 c 1,33,-1
 1127 -264 l 1,12,-1
EndSplineSet
EndChar
StartChar: R
Encoding: 82 82 53
Width: 1425
VWidth: 3555
Flags: W
HStem: 0 21G<24 227.854 960.789 1187> 628 172<377 648.727> 1330 163<479 912.425>
Fore
868 700 m 1,0,1
 981 665 981 665 1062 404 c 2,2,-1
 1187 0 l 1,3,-1
 967 0 l 1,4,-1
 849 380 l 2,5,6
 828 455 828 455 803.5 504.5 c 128,-1,7
 779 554 779 554 745.5 581 c 128,-1,8
 712 608 712 608 668.5 618 c 128,-1,9
 625 628 625 628 566 628 c 2,10,-1
 345 628 l 1,11,-1
 224 0 l 1,12,-1
 24 0 l 1,13,-1
 312 1493 l 1,14,-1
 767 1493 l 2,15,16
 1279 1493 1279 1493 1194 1066 c 0,17,18
 1167 924 1167 924 1082.5 830 c 128,-1,19
 998 736 998 736 868 700 c 1,0,1
377 800 m 1,20,-1
 634 800 l 2,21,22
 929 800 929 800 981 1066 c 0,23,24
 1031 1330 1031 1330 736 1330 c 2,25,-1
 479 1330 l 1,26,-1
 377 800 l 1,20,-1
EndSplineSet
EndChar
StartChar: S
Encoding: 83 83 54
Width: 1300
VWidth: 3555
Flags: W
HStem: -28 163<279.265 698.084> 1358 164<536.904 950.333>
Fore
1163 1248 m 1,0,1
 953 1358 953 1358 771 1358 c 0,2,3
 601 1358 601 1358 499.5 1294.5 c 128,-1,4
 398 1231 398 1231 373 1113 c 0,5,6
 356 1010 356 1010 405.5 960 c 128,-1,7
 455 910 455 910 615 878 c 2,8,-1
 733 854 l 2,9,10
 953 814 953 814 1038 705.5 c 128,-1,11
 1123 597 1123 597 1088 413 c 0,12,13
 1045 196 1045 196 878.5 84 c 128,-1,14
 712 -28 712 -28 431 -28 c 0,15,16
 323 -28 323 -28 209 -5.5 c 128,-1,17
 95 17 95 17 -24 68 c 1,18,-1
 14 274 l 1,19,20
 125 207 125 207 237 171 c 128,-1,21
 349 135 349 135 462 135 c 0,22,23
 634 135 634 135 741.5 203 c 128,-1,24
 849 271 849 271 875 394 c 0,25,26
 896 509 896 509 839.5 568.5 c 128,-1,27
 783 628 783 628 641 661 c 2,28,-1
 519 689 l 2,29,30
 299 733 299 733 217 828.5 c 128,-1,31
 135 924 135 924 167 1095 c 0,32,33
 207 1299 207 1299 368 1410.5 c 128,-1,34
 529 1522 529 1522 774 1522 c 0,35,36
 882 1522 882 1522 987 1502.5 c 128,-1,37
 1092 1483 1092 1483 1201 1448 c 1,38,-1
 1163 1248 l 1,0,1
EndSplineSet
EndChar
StartChar: T
Encoding: 84 84 55
Width: 1249
VWidth: 3555
Flags: W
HStem: 0 21G<345 553.876> 1326 167<106 601 807 1337>
Fore
1368 1493 m 1,0,-1
 1337 1326 l 1,1,-1
 807 1326 l 1,2,-1
 550 0 l 1,3,-1
 345 0 l 1,4,-1
 601 1326 l 1,5,-1
 75 1326 l 1,6,-1
 106 1493 l 1,7,-1
 1368 1493 l 1,0,-1
EndSplineSet
EndChar
StartChar: U
Encoding: 85 85 56
Width: 1499
VWidth: 3555
Flags: W
HStem: -28 163<400.005 811.681> 1473 20G<284.09 491 1227.11 1432>
Fore
491 1493 m 1,0,-1
 316 587 l 2,1,2
 267 349 267 349 335.5 242 c 128,-1,3
 404 135 404 135 597 135 c 0,4,5
 793 135 793 135 900 242 c 128,-1,6
 1007 349 1007 349 1055 587 c 2,7,-1
 1231 1493 l 1,8,-1
 1432 1493 l 1,9,-1
 1252 562 l 2,10,11
 1194 271 1194 271 1019.5 121.5 c 128,-1,12
 845 -28 845 -28 566 -28 c 256,13,14
 285 -28 285 -28 167.5 121.5 c 128,-1,15
 50 271 50 271 106 562 c 2,16,-1
 288 1493 l 1,17,-1
 491 1493 l 1,0,-1
EndSplineSet
EndChar
StartChar: V
Encoding: 86 86 57
Width: 1399
VWidth: 3555
Flags: W
HStem: 0 21G<406.182 652.413> 1473 20G<125 342.606 1274.56 1493>
Fore
125 1493 m 1,0,-1
 339 1493 l 1,1,-1
 566 234 l 1,2,-1
 1286 1493 l 1,3,-1
 1493 1493 l 1,4,-1
 641 0 l 1,5,-1
 410 0 l 1,6,-1
 125 1493 l 1,0,-1
EndSplineSet
EndChar
StartChar: W
Encoding: 87 87 58
Width: 2029
VWidth: 3555
Flags: W
HStem: 0 21G<265.848 527.714 1151.95 1416.85> 1473 20G<181 381.125 1001.14 1239.13 1854.22 2069>
VStem: 181 199<217.826 1481.82>
Fore
380 1493 m 1,0,-1
 451 231 l 1,1,-1
 1010 1493 l 1,2,-1
 1238 1493 l 1,3,-1
 1309 231 l 1,4,-1
 1863 1493 l 1,5,-1
 2069 1493 l 1,6,-1
 1408 0 l 1,7,-1
 1153 0 l 1,8,-1
 1085 1299 l 1,9,-1
 519 0 l 1,10,-1
 267 0 l 1,11,-1
 181 1493 l 1,12,-1
 380 1493 l 1,0,-1
EndSplineSet
EndChar
StartChar: X
Encoding: 88 88 59
Width: 1407
VWidth: 3555
Flags: W
HStem: 0 21G<-115 116.237 936.644 1163> 1473 20G<238 467.531 1183.71 1418>
Fore
458 1493 m 1,0,-1
 722 939 l 1,1,-1
 1201 1493 l 1,2,-1
 1418 1493 l 1,3,-1
 800 774 l 1,4,-1
 1163 0 l 1,5,-1
 946 0 l 1,6,-1
 648 637 l 1,7,-1
 99 0 l 1,8,-1
 -115 0 l 1,9,-1
 573 800 l 1,10,-1
 238 1493 l 1,11,-1
 458 1493 l 1,0,-1
EndSplineSet
EndChar
StartChar: Y
Encoding: 89 89 60
Width: 1249
VWidth: 3555
Flags: W
HStem: 0 21G<345 553.82> 1473 20G<106 332.594 1135.6 1364>
Fore
323 1493 m 1,0,-1
 618 878 l 1,1,-1
 1153 1493 l 1,2,-1
 1364 1493 l 1,3,-1
 686 712 l 1,4,-1
 550 0 l 1,5,-1
 345 0 l 1,6,-1
 479 712 l 1,7,-1
 106 1493 l 1,8,-1
 323 1493 l 1,0,-1
EndSplineSet
EndChar
StartChar: Z
Encoding: 90 90 61
Width: 1407
VWidth: 3555
Flags: W
HStem: 0 167<200 1134> 1326 167<224 1113>
Fore
1401 1493 m 1,0,-1
 1373 1340 l 1,1,-1
 200 167 l 1,2,-1
 1167 167 l 1,3,-1
 1134 0 l 1,4,-1
 -85 0 l 1,5,-1
 -57 153 l 1,6,-1
 1113 1326 l 1,7,-1
 193 1326 l 1,8,-1
 224 1493 l 1,9,-1
 1401 1493 l 1,0,-1
EndSplineSet
EndChar
StartChar: bracketleft
Encoding: 91 91 62
Width: 798
VWidth: 3555
Flags: W
HStem: -271 143<160 370> 1415 142<458 696>
VStem: -57 783<-271 1557>
Fore
726 1557 m 1,0,-1
 696 1415 l 1,1,-1
 458 1415 l 1,2,-1
 160 -128 l 1,3,-1
 398 -128 l 1,4,-1
 370 -271 l 1,5,-1
 -57 -271 l 1,6,-1
 299 1557 l 1,7,-1
 726 1557 l 1,0,-1
EndSplineSet
EndChar
StartChar: backslash
Encoding: 92 92 63
Width: 689
VWidth: 3555
Flags: W
HStem: 1473 20G<109 280.301>
VStem: 109 363<-193 1493> 302 170<-193 1484.79>
Fore
472 -193 m 1,0,-1
 302 -193 l 1,1,-1
 109 1493 l 1,2,-1
 278 1493 l 1,3,-1
 472 -193 l 1,0,-1
EndSplineSet
EndChar
StartChar: bracketright
Encoding: 93 93 64
Width: 798
VWidth: 3555
Flags: W
HStem: -271 143<-3 238> 1415 142<323 536>
VStem: -31 777<-271 1557>
Fore
391 -271 m 1,0,-1
 -31 -271 l 1,1,-1
 -3 -128 l 1,2,-1
 238 -128 l 1,3,-1
 536 1415 l 1,4,-1
 295 1415 l 1,5,-1
 323 1557 l 1,6,-1
 746 1557 l 1,7,-1
 391 -271 l 1,0,-1
EndSplineSet
EndChar
StartChar: asciicircum
Encoding: 94 94 65
Width: 1716
VWidth: 3555
Flags: W
HStem: 939 554<871 1503>
Fore
1503 939 m 1,0,-1
 1305 939 l 1,1,-1
 936 1333 l 1,2,-1
 420 939 l 1,3,-1
 224 939 l 1,4,-1
 871 1493 l 1,5,-1
 1066 1493 l 1,6,-1
 1503 939 l 1,0,-1
EndSplineSet
EndChar
StartChar: underscore
Encoding: 95 95 66
Width: 1022
VWidth: 3555
Flags: W
HStem: -484 142<-260 774>
Fore
774 -484 m 1,0,-1
 -288 -484 l 1,1,-1
 -260 -342 l 1,2,-1
 804 -342 l 1,3,-1
 774 -484 l 1,0,-1
EndSplineSet
EndChar
StartChar: grave
Encoding: 96 96 67
Width: 1022
VWidth: 3555
Flags: W
HStem: 1266 373<306 715>
VStem: 306 409<1266 1639>
Fore
715 1266 m 1,0,-1
 566 1266 l 1,1,-1
 306 1639 l 1,2,-1
 509 1639 l 1,3,-1
 715 1266 l 1,0,-1
EndSplineSet
EndChar
StartChar: a
Encoding: 97 97 68
Width: 1253
VWidth: 3555
Flags: W
HStem: -28 153<241.44 538.383> 566 142<334.885 814> 991 153<423.557 767.966>
VStem: 7 1007<326 339 641 708 326 641>
Fore
634 566 m 1,0,1
 410 566 410 566 315 514 c 128,-1,2
 220 462 220 462 196 339 c 0,3,4
 177 238 177 238 229 181.5 c 128,-1,5
 281 125 281 125 387 125 c 0,6,7
 547 125 547 125 659 233.5 c 128,-1,8
 771 342 771 342 807 523 c 2,9,-1
 814 566 l 1,10,-1
 634 566 l 1,0,1
892 0 m 1,11,-1
 708 0 l 1,12,-1
 740 167 l 1,13,14
 576 -28 576 -28 312 -28 c 0,15,16
 142 -28 142 -28 60.5 67.5 c 128,-1,17
 -21 163 -21 163 7 326 c 0,18,19
 82 708 82 708 583 708 c 2,20,-1
 842 708 l 1,21,-1
 845 726 l 2,22,23
 871 854 871 854 802 922.5 c 128,-1,24
 733 991 733 991 583 991 c 0,25,26
 387 991 387 991 203 899 c 1,27,-1
 234 1069 l 1,28,29
 339 1109 339 1109 439.5 1126.5 c 128,-1,30
 540 1144 540 1144 628 1144 c 0,31,32
 1113 1144 1113 1144 1014 641 c 2,33,-1
 892 0 l 1,11,-1
EndSplineSet
Substitution2: "Single Substitution lookup 22 subtable" uni0E38
Substitution2: "Single Substitution lookup 22 subtable" uni0E38
EndChar
StartChar: b
Encoding: 98 98 69
Width: 1300
VWidth: 3555
Flags: W
HStem: -28 153<380.623 695.26> 991 153<557.213 850.241>
Fore
924 562 m 0,0,1
 963 764 963 764 906 877.5 c 128,-1,2
 849 991 849 991 700 991 c 256,3,4
 550 991 550 991 446 877.5 c 128,-1,5
 342 764 342 764 302 562 c 0,6,7
 264 356 264 356 322 240.5 c 128,-1,8
 380 125 380 125 529 125 c 256,9,10
 679 125 679 125 782 240.5 c 128,-1,11
 885 356 885 356 924 562 c 0,0,1
380 953 m 1,12,13
 526 1144 526 1144 771 1144 c 0,14,15
 977 1144 977 1144 1073.5 986 c 128,-1,16
 1170 828 1170 828 1120 562 c 0,17,18
 1095 431 1095 431 1039.5 320.5 c 128,-1,19
 984 210 984 210 908 133.5 c 128,-1,20
 832 57 832 57 740 14.5 c 128,-1,21
 648 -28 648 -28 543 -28 c 0,22,23
 302 -28 302 -28 227 167 c 1,24,-1
 196 0 l 1,25,-1
 10 0 l 1,26,-1
 312 1557 l 1,27,-1
 498 1557 l 1,28,-1
 380 953 l 1,12,13
EndSplineSet
Substitution2: "Single Substitution lookup 22 subtable" uni0E39
Substitution2: "Single Substitution lookup 22 subtable" uni0E39
EndChar
StartChar: c
Encoding: 99 99 70
Width: 1126
VWidth: 3555
Flags: W
HStem: -28 156<345.845 685.272> 991 153<497.639 918.786>
VStem: 43 985<562 877.5 991 1078 562 1078>
Fore
995 906 m 1,0,1
 865 991 865 991 700 991 c 0,2,3
 519 991 519 991 398.5 877.5 c 128,-1,4
 278 764 278 764 238 562 c 0,5,6
 200 356 200 356 274.5 242 c 128,-1,7
 349 128 349 128 529 128 c 0,8,9
 608 128 608 128 693.5 147.5 c 128,-1,10
 779 167 779 167 861 214 c 1,11,-1
 828 43 l 1,12,13
 658 -28 658 -28 479 -28 c 0,14,15
 224 -28 224 -28 107 128.5 c 128,-1,16
 -10 285 -10 285 43 562 c 256,17,18
 95 838 95 838 275 991 c 128,-1,19
 455 1144 455 1144 722 1144 c 0,20,21
 896 1144 896 1144 1028 1078 c 1,22,-1
 995 906 l 1,0,1
EndSplineSet
Substitution2: "Single Substitution lookup 22 subtable" uni0E3A
Substitution2: "Single Substitution lookup 22 subtable" uni0E3A
EndChar
StartChar: d
Encoding: 100 100 71
Width: 1300
VWidth: 3555
Flags: W
HStem: -28 153<309.582 598.258> 991 153<459.543 780.664>
Fore
1055 1557 m 1,0,-1
 1241 1557 l 1,1,-1
 939 0 l 1,2,-1
 753 0 l 1,3,-1
 786 167 l 1,4,5
 705 71 705 71 608.5 21.5 c 128,-1,6
 512 -28 512 -28 387 -28 c 0,7,8
 184 -28 184 -28 88.5 133.5 c 128,-1,9
 -7 295 -7 295 43 562 c 0,10,11
 68 693 68 693 122.5 801.5 c 128,-1,12
 177 910 177 910 251.5 986 c 128,-1,13
 326 1062 326 1062 421 1103 c 128,-1,14
 516 1144 516 1144 615 1144 c 0,15,16
 858 1144 858 1144 939 953 c 1,17,-1
 1055 1557 l 1,0,-1
231 562 m 0,18,19
 193 356 193 356 251 240.5 c 128,-1,20
 309 125 309 125 458 125 c 256,21,22
 608 125 608 125 714.5 240.5 c 128,-1,23
 821 356 821 356 861 562 c 0,24,25
 899 764 899 764 839 877.5 c 128,-1,26
 779 991 779 991 628 991 c 256,27,28
 479 991 479 991 375 877.5 c 128,-1,29
 271 764 271 764 231 562 c 0,18,19
EndSplineSet
EndChar
StartChar: e
Encoding: 101 101 72
Width: 1262
VWidth: 3555
Flags: W
HStem: -28 156<352.663 822.467> 516 145<260 920> 991 153<481.513 836.645>
Fore
1073 516 m 1,0,-1
 224 516 l 1,1,2
 184 128 184 128 550 128 c 0,3,4
 764 128 764 128 974 231 c 1,5,-1
 943 57 l 1,6,7
 729 -28 729 -28 512 -28 c 0,8,9
 245 -28 245 -28 117.5 126.5 c 128,-1,10
 -10 281 -10 281 43 550 c 0,11,12
 95 828 95 828 271.5 986 c 128,-1,13
 448 1144 448 1144 705 1144 c 0,14,15
 932 1144 932 1144 1036.5 1001 c 128,-1,16
 1141 858 1141 858 1092 608 c 2,17,-1
 1073 516 l 1,0,-1
920 661 m 1,18,19
 950 814 950 814 884 902.5 c 128,-1,20
 818 991 818 991 679 991 c 0,21,22
 526 991 526 991 416 906 c 128,-1,23
 306 821 306 821 260 658 c 1,24,-1
 920 661 l 1,18,19
EndSplineSet
EndChar
StartChar: f
Encoding: 102 102 73
Width: 720
VWidth: 3555
Flags: W
HStem: 0 21G<47 230.889> 977 143<85 234 444 722> 1408 149<533.512 854>
VStem: 47 838<0 1557>
Fore
854 1408 m 1,0,-1
 679 1408 l 2,1,2
 580 1408 580 1408 532 1367 c 128,-1,3
 484 1326 484 1326 462 1219 c 2,4,-1
 444 1120 l 1,5,-1
 750 1120 l 1,6,-1
 722 977 l 1,7,-1
 417 977 l 1,8,-1
 227 0 l 1,9,-1
 47 0 l 1,10,-1
 234 977 l 1,11,-1
 57 977 l 1,12,-1
 85 1120 l 1,13,-1
 264 1120 l 1,14,-1
 278 1201 l 2,15,16
 316 1387 316 1387 417.5 1472 c 128,-1,17
 519 1557 519 1557 712 1557 c 2,18,-1
 885 1557 l 1,19,-1
 854 1408 l 1,0,-1
EndSplineSet
EndChar
StartChar: g
Encoding: 103 103 74
Width: 1300
VWidth: 3555
Flags: W
HStem: -431 157<242.555 548.646> 0 153<314.366 603.89> 991 153<458.554 780.57>
Fore
865 576 m 0,0,1
 903 771 903 771 841 881 c 128,-1,2
 779 991 779 991 628 991 c 256,3,4
 479 991 479 991 376.5 881 c 128,-1,5
 274 771 274 771 234 576 c 0,6,7
 196 373 196 373 256 263 c 128,-1,8
 316 153 316 153 465 153 c 256,9,10
 615 153 615 153 720 263 c 128,-1,11
 825 373 825 373 865 576 c 0,0,1
963 139 m 1,12,13
 854 -431 854 -431 339 -431 c 0,14,15
 238 -431 238 -431 158 -412.5 c 128,-1,16
 78 -394 78 -394 -3 -370 c 1,17,-1
 31 -189 l 1,18,19
 106 -231 106 -231 180.5 -252.5 c 128,-1,20
 255 -274 255 -274 342 -274 c 0,21,22
 696 -274 696 -274 771 106 c 2,23,-1
 790 200 l 1,24,25
 641 0 641 0 394 0 c 0,26,27
 189 0 189 0 93 158 c 128,-1,28
 -3 316 -3 316 47 576 c 0,29,30
 71 705 71 705 124 809 c 128,-1,31
 177 913 177 913 251.5 987.5 c 128,-1,32
 326 1062 326 1062 419 1103 c 128,-1,33
 512 1144 512 1144 615 1144 c 0,34,35
 868 1144 868 1144 939 953 c 1,36,-1
 970 1120 l 1,37,-1
 1156 1120 l 1,38,-1
 963 139 l 1,12,13
EndSplineSet
EndChar
StartChar: h
Encoding: 104 104 75
Width: 1300
VWidth: 3555
Flags: W
HStem: 0 21G<10 199.785 764 949.888> 988 156<567.213 849.613>
Fore
946 0 m 1,0,-1
 764 0 l 1,1,-1
 892 668 l 2,2,3
 957 988 957 988 708 988 c 0,4,5
 554 988 554 988 451.5 896 c 128,-1,6
 349 804 349 804 316 634 c 2,7,-1
 196 0 l 1,8,-1
 10 0 l 1,9,-1
 312 1557 l 1,10,-1
 498 1557 l 1,11,-1
 377 950 l 1,12,13
 465 1049 465 1049 561.5 1096.5 c 128,-1,14
 658 1144 658 1144 774 1144 c 0,15,16
 970 1144 970 1144 1045 1025 c 128,-1,17
 1120 906 1120 906 1078 679 c 2,18,-1
 946 0 l 1,0,-1
EndSplineSet
EndChar
StartChar: i
Encoding: 105 105 76
Width: 571
VWidth: 3555
Flags: W
HStem: 0 21G<17 203.875> 1100 20G<230.125 417> 1326 231<319 455>
VStem: 17 485<0 1557>
Fore
417 1120 m 1,0,-1
 200 0 l 1,1,-1
 17 0 l 1,2,-1
 234 1120 l 1,3,-1
 417 1120 l 1,0,-1
502 1557 m 1,4,-1
 455 1326 l 1,5,-1
 274 1326 l 1,6,-1
 319 1557 l 1,7,-1
 502 1557 l 1,4,-1
EndSplineSet
EndChar
StartChar: j
Encoding: 106 106 77
Width: 571
VWidth: 3555
Flags: W
HStem: -431 160<-264 -75.8281> 1100 20G<230.13 417> 1326 231<319 455>
VStem: -295 797<-431 1557>
Fore
417 1120 m 1,0,-1
 196 -17 l 2,1,2
 153 -234 153 -234 53 -332.5 c 128,-1,3
 -47 -431 -47 -431 -227 -431 c 2,4,-1
 -295 -431 l 1,5,-1
 -264 -271 l 1,6,-1
 -217 -271 l 2,7,8
 -115 -271 -115 -271 -66 -220.5 c 128,-1,9
 -17 -170 -17 -170 14 -17 c 2,10,-1
 234 1120 l 1,11,-1
 417 1120 l 1,0,-1
502 1557 m 1,12,-1
 455 1326 l 1,13,-1
 274 1326 l 1,14,-1
 319 1557 l 1,15,-1
 502 1557 l 1,12,-1
EndSplineSet
EndChar
StartChar: k
Encoding: 107 107 78
Width: 1187
VWidth: 3555
Flags: W
HStem: 0 21G<10 199.794 746.873 1007> 1100 20G<933.333 1194>
Fore
498 1557 m 1,0,-1
 316 637 l 1,1,-1
 960 1120 l 1,2,-1
 1194 1120 l 1,3,-1
 498 597 l 1,4,-1
 1007 0 l 1,5,-1
 764 0 l 1,6,-1
 299 543 l 1,7,-1
 196 0 l 1,8,-1
 10 0 l 1,9,-1
 312 1557 l 1,10,-1
 498 1557 l 1,0,-1
EndSplineSet
EndChar
StartChar: l
Encoding: 108 108 79
Width: 571
VWidth: 3555
Flags: W
HStem: 0 21G<17 203.879>
VStem: 17 485<0 1557>
Fore
502 1557 m 1,0,-1
 200 0 l 1,1,-1
 17 0 l 1,2,-1
 319 1557 l 1,3,-1
 502 1557 l 1,0,-1
EndSplineSet
EndChar
StartChar: m
Encoding: 109 109 80
Width: 1992
VWidth: 3555
Flags: W
HStem: 0 21G<10 199.785 733 923.849 1458 1649.89> 988 156<562.197 828.265 1295.06 1549.26>
Fore
1062 906 m 1,0,1
 1245 1144 1245 1144 1500 1144 c 0,2,3
 1675 1144 1675 1144 1748 1023.5 c 128,-1,4
 1821 903 1821 903 1778 679 c 2,5,-1
 1646 0 l 1,6,-1
 1458 0 l 1,7,-1
 1585 668 l 2,8,9
 1649 988 1649 988 1422 988 c 0,10,11
 1272 988 1272 988 1172.5 896 c 128,-1,12
 1073 804 1073 804 1042 634 c 2,13,-1
 920 0 l 1,14,-1
 733 0 l 1,15,-1
 861 668 l 2,16,17
 892 838 892 838 853 913 c 128,-1,18
 814 988 814 988 696 988 c 0,19,20
 547 988 547 988 448 896 c 128,-1,21
 349 804 349 804 316 634 c 2,22,-1
 196 0 l 1,23,-1
 10 0 l 1,24,-1
 227 1120 l 1,25,-1
 413 1120 l 1,26,-1
 377 950 l 1,27,28
 462 1052 462 1052 558 1098 c 128,-1,29
 654 1144 654 1144 774 1144 c 0,30,31
 1024 1144 1024 1144 1062 906 c 1,0,1
EndSplineSet
EndChar
StartChar: n
Encoding: 110 110 81
Width: 1300
VWidth: 3555
Flags: W
HStem: 0 21G<10 199.785 764 949.888> 988 156<567.213 849.613>
Fore
946 0 m 1,0,-1
 764 0 l 1,1,-1
 892 668 l 2,2,3
 957 988 957 988 708 988 c 0,4,5
 554 988 554 988 451.5 896 c 128,-1,6
 349 804 349 804 316 634 c 2,7,-1
 196 0 l 1,8,-1
 10 0 l 1,9,-1
 227 1120 l 1,10,-1
 413 1120 l 1,11,-1
 377 950 l 1,12,13
 465 1049 465 1049 561.5 1096.5 c 128,-1,14
 658 1144 658 1144 774 1144 c 0,15,16
 970 1144 970 1144 1045 1025 c 128,-1,17
 1120 906 1120 906 1078 679 c 2,18,-1
 946 0 l 1,0,-1
EndSplineSet
EndChar
StartChar: o
Encoding: 111 111 82
Width: 1253
VWidth: 3555
Flags: W
HStem: -28 156<320.328 634.841> 991 153<470.104 789.561>
Fore
641 991 m 256,0,1
 491 991 491 991 384.5 877.5 c 128,-1,2
 278 764 278 764 238 562 c 256,3,4
 200 359 200 359 259.5 243.5 c 128,-1,5
 319 128 319 128 469 128 c 256,6,7
 618 128 618 128 728 243.5 c 128,-1,8
 838 359 838 359 878 562 c 0,9,10
 917 757 917 757 853.5 874 c 128,-1,11
 790 991 790 991 641 991 c 256,0,1
668 1144 m 256,12,13
 913 1144 913 1144 1018 991 c 128,-1,14
 1123 838 1123 838 1069 562 c 256,15,16
 1017 285 1017 285 851.5 128.5 c 128,-1,17
 686 -28 686 -28 441 -28 c 256,18,19
 196 -28 196 -28 93 128.5 c 128,-1,20
 -10 285 -10 285 43 562 c 256,21,22
 95 838 95 838 259.5 991 c 128,-1,23
 424 1144 424 1144 668 1144 c 256,12,13
EndSplineSet
EndChar
StartChar: p
Encoding: 112 112 83
Width: 1300
VWidth: 3555
Flags: W
HStem: -431 21G<-75 112.946> -28 153<380.623 695.26> 991 153<557.213 850.241>
Fore
109 -431 m 1,0,-1
 -75 -431 l 1,1,-1
 227 1120 l 1,2,-1
 413 1120 l 1,3,-1
 380 953 l 1,4,5
 526 1144 526 1144 771 1144 c 0,6,7
 977 1144 977 1144 1073.5 986 c 128,-1,8
 1170 828 1170 828 1120 562 c 0,9,10
 1095 431 1095 431 1039.5 320.5 c 128,-1,11
 984 210 984 210 908 133.5 c 128,-1,12
 832 57 832 57 740 14.5 c 128,-1,13
 648 -28 648 -28 543 -28 c 0,14,15
 302 -28 302 -28 227 167 c 1,16,-1
 109 -431 l 1,0,-1
924 562 m 0,17,18
 963 764 963 764 906 877.5 c 128,-1,19
 849 991 849 991 700 991 c 256,20,21
 550 991 550 991 446 877.5 c 128,-1,22
 342 764 342 764 302 562 c 0,23,24
 264 356 264 356 322 240.5 c 128,-1,25
 380 125 380 125 529 125 c 256,26,27
 679 125 679 125 782 240.5 c 128,-1,28
 885 356 885 356 924 562 c 0,17,18
EndSplineSet
EndChar
StartChar: q
Encoding: 113 113 84
Width: 1300
VWidth: 3555
Flags: W
HStem: -431 21G<668 857.894> -28 153<309.582 598.258> 991 153<459.543 780.664>
Fore
231 562 m 0,0,1
 193 356 193 356 251 240.5 c 128,-1,2
 309 125 309 125 458 125 c 256,3,4
 608 125 608 125 714.5 240.5 c 128,-1,5
 821 356 821 356 861 562 c 0,6,7
 899 764 899 764 839 877.5 c 128,-1,8
 779 991 779 991 628 991 c 256,9,10
 479 991 479 991 375 877.5 c 128,-1,11
 271 764 271 764 231 562 c 0,0,1
786 167 m 1,12,13
 705 71 705 71 608.5 21.5 c 128,-1,14
 512 -28 512 -28 387 -28 c 0,15,16
 184 -28 184 -28 88.5 133.5 c 128,-1,17
 -7 295 -7 295 43 562 c 0,18,19
 68 693 68 693 122.5 801.5 c 128,-1,20
 177 910 177 910 251.5 986 c 128,-1,21
 326 1062 326 1062 421 1103 c 128,-1,22
 516 1144 516 1144 615 1144 c 0,23,24
 858 1144 858 1144 939 953 c 1,25,-1
 970 1120 l 1,26,-1
 1156 1120 l 1,27,-1
 854 -431 l 1,28,-1
 668 -431 l 1,29,-1
 786 167 l 1,12,13
EndSplineSet
EndChar
StartChar: r
Encoding: 114 114 85
Width: 841
VWidth: 3555
Flags: W
HStem: 0 21G<10 199.831> 984 160<562.5 843.582>
VStem: 10 875<0 1137>
Fore
845 950 m 1,0,1
 800 984 800 984 708 984 c 0,2,3
 547 984 547 984 448 883.5 c 128,-1,4
 349 783 349 783 309 590 c 2,5,-1
 196 0 l 1,6,-1
 10 0 l 1,7,-1
 227 1120 l 1,8,-1
 413 1120 l 1,9,-1
 377 950 l 1,10,11
 455 1052 455 1052 556.5 1098 c 128,-1,12
 658 1144 658 1144 793 1144 c 0,13,14
 811 1144 811 1144 834.5 1144 c 128,-1,15
 858 1144 858 1144 885 1137 c 1,16,-1
 845 950 l 1,0,1
EndSplineSet
EndChar
StartChar: s
Encoding: 115 115 86
Width: 1069
VWidth: 3555
Flags: W
HStem: -28 153<110.418 556.631> 991 153<366.143 708.371>
VStem: -61 1000<40 1088>
Fore
906 917 m 1,0,1
 838 957 838 957 756.5 974 c 128,-1,2
 675 991 675 991 587 991 c 0,3,4
 309 991 309 991 278 828 c 0,5,6
 264 760 264 760 306.5 724.5 c 128,-1,7
 349 689 349 689 488 654 c 2,8,-1
 550 641 l 2,9,10
 743 601 743 601 810.5 524.5 c 128,-1,11
 878 448 878 448 849 309 c 0,12,13
 821 149 821 149 678.5 60.5 c 128,-1,14
 536 -28 536 -28 319 -28 c 0,15,16
 139 -28 139 -28 -61 40 c 1,17,-1
 -24 231 l 1,18,19
 163 125 163 125 352 125 c 0,20,21
 479 125 479 125 560 171 c 128,-1,22
 641 217 641 217 658 295 c 0,23,24
 672 370 672 370 629.5 410.5 c 128,-1,25
 587 451 587 451 420 488 c 2,26,-1
 363 502 l 2,27,28
 193 536 193 536 134 612.5 c 128,-1,29
 75 689 75 689 99 821 c 0,30,31
 132 981 132 981 259.5 1062.5 c 128,-1,32
 387 1144 387 1144 594 1144 c 0,33,34
 693 1144 693 1144 780.5 1132 c 128,-1,35
 868 1120 868 1120 939 1088 c 1,36,-1
 906 917 l 1,0,1
EndSplineSet
EndChar
StartChar: t
Encoding: 116 116 87
Width: 805
VWidth: 3555
Flags: W
HStem: 0 153<272.474 387 387 576> 977 143<92 203 417 764>
VStem: 64 729<977 1120>
Fore
417 1120 m 1,0,-1
 793 1120 l 1,1,-1
 764 977 l 1,2,-1
 387 977 l 1,3,-1
 271 370 l 2,4,5
 241 231 241 231 271.5 192 c 128,-1,6
 302 153 302 153 417 153 c 2,7,-1
 604 153 l 1,8,-1
 576 0 l 1,9,-1
 387 0 l 2,10,11
 174 0 174 0 108.5 78 c 128,-1,12
 43 156 43 156 85 370 c 2,13,-1
 203 977 l 1,14,-1
 64 977 l 1,15,-1
 92 1120 l 1,16,-1
 231 1120 l 1,17,-1
 292 1439 l 1,18,-1
 476 1439 l 1,19,-1
 417 1120 l 1,0,-1
EndSplineSet
EndChar
StartChar: u
Encoding: 117 117 88
Width: 1300
VWidth: 3555
Flags: W
HStem: -28 160<312.06 586.758> 1100 20G<206.095 398 966.044 1153>
Fore
210 1120 m 1,0,-1
 398 1120 l 1,1,-1
 267 451 l 2,2,3
 203 132 203 132 455 132 c 0,4,5
 604 132 604 132 709 227.5 c 128,-1,6
 814 323 814 323 845 488 c 2,7,-1
 970 1120 l 1,8,-1
 1153 1120 l 1,9,-1
 936 0 l 1,10,-1
 753 0 l 1,11,-1
 786 170 l 1,12,13
 693 71 693 71 597.5 21.5 c 128,-1,14
 502 -28 502 -28 384 -28 c 0,15,16
 -14 -28 -14 -28 78 444 c 2,17,-1
 210 1120 l 1,0,-1
EndSplineSet
EndChar
StartChar: v
Encoding: 118 118 89
Width: 1215
VWidth: 3555
Flags: W
HStem: 0 21G<298.429 565.375> 1100 20G<102 298.542 983.696 1191>
Fore
295 1120 m 1,0,-1
 462 177 l 1,1,-1
 995 1120 l 1,2,-1
 1191 1120 l 1,3,-1
 554 0 l 1,4,-1
 302 0 l 1,5,-1
 102 1120 l 1,6,-1
 295 1120 l 1,0,-1
EndSplineSet
EndChar
StartChar: w
Encoding: 119 119 90
Width: 1676
VWidth: 3555
Flags: W
HStem: 0 21G<201.607 429.087 901.587 1129.14> 1100 20G<125 310.394 757.926 989.394 1438.88 1632>
VStem: 125 184<230.08 1107.2>
Fore
309 1120 m 1,0,-1
 370 245 l 1,1,-1
 767 1120 l 1,2,-1
 988 1120 l 1,3,-1
 1049 245 l 1,4,-1
 1448 1120 l 1,5,-1
 1632 1120 l 1,6,-1
 1120 0 l 1,7,-1
 903 0 l 1,8,-1
 838 920 l 1,9,-1
 420 0 l 1,10,-1
 203 0 l 1,11,-1
 125 1120 l 1,12,-1
 309 1120 l 1,0,-1
EndSplineSet
EndChar
StartChar: x
Encoding: 120 120 91
Width: 1215
VWidth: 3555
Flags: W
HStem: 0 21G<-122 117.73 742.07 967> 1100 20G<135 363.106 927.256 1163>
Fore
654 576 m 1,0,-1
 967 0 l 1,1,-1
 753 0 l 1,2,-1
 512 441 l 1,3,-1
 99 0 l 1,4,-1
 -122 0 l 1,5,-1
 431 587 l 1,6,-1
 135 1120 l 1,7,-1
 352 1120 l 1,8,-1
 573 722 l 1,9,-1
 946 1120 l 1,10,-1
 1163 1120 l 1,11,-1
 654 576 l 1,0,-1
EndSplineSet
EndChar
StartChar: y
Encoding: 121 121 92
Width: 1215
VWidth: 3555
Flags: W
HStem: -431 160<-71 107.545> 1100 20G<102 299.137 983.137 1191>
Fore
458 -102 m 1,0,1
 401 -203 401 -203 353.5 -266.5 c 128,-1,2
 306 -330 306 -330 258 -365.5 c 128,-1,3
 210 -401 210 -401 159.5 -416 c 128,-1,4
 109 -431 109 -431 47 -431 c 2,5,-1
 -102 -431 l 1,6,-1
 -71 -271 l 1,7,-1
 40 -271 l 2,8,9
 78 -271 78 -271 108.5 -265.5 c 128,-1,10
 139 -260 139 -260 167.5 -238.5 c 128,-1,11
 196 -217 196 -217 224 -176 c 128,-1,12
 252 -135 252 -135 288 -68 c 2,13,-1
 339 17 l 1,14,-1
 102 1120 l 1,15,-1
 295 1120 l 1,16,-1
 476 245 l 1,17,-1
 995 1120 l 1,18,-1
 1191 1120 l 1,19,-1
 458 -102 l 1,0,1
EndSplineSet
EndChar
StartChar: z
Encoding: 122 122 93
Width: 1076
VWidth: 3555
Flags: W
HStem: 0 146<142 811> 974 146<153 790>
Fore
1028 1120 m 1,0,-1
 995 953 l 1,1,-1
 142 146 l 1,2,-1
 835 146 l 1,3,-1
 811 0 l 1,4,-1
 -89 0 l 1,5,-1
 -57 167 l 1,6,-1
 790 974 l 1,7,-1
 125 974 l 1,8,-1
 153 1120 l 1,9,-1
 1028 1120 l 1,0,-1
EndSplineSet
EndChar
StartChar: braceleft
Encoding: 123 123 94
Width: 1303
VWidth: 3555
Flags: W
HStem: -335 142<592.942 804> 540 146<210 412.605> 1415 142<978.469 1144>
VStem: 181 993<540 1557>
Fore
804 -335 m 1,0,-1
 743 -335 l 2,1,2
 495 -335 495 -335 420 -260 c 0,3,4
 352 -189 352 -189 394 35 c 2,5,-1
 441 274 l 2,6,7
 469 424 469 424 426.5 482 c 128,-1,8
 384 540 384 540 245 540 c 2,9,-1
 181 540 l 1,10,-1
 210 686 l 1,11,-1
 274 686 l 2,12,13
 417 686 417 686 480 743 c 128,-1,14
 543 800 543 800 573 950 c 2,15,-1
 621 1191 l 2,16,17
 665 1415 665 1415 760 1483 c 0,18,19
 858 1557 858 1557 1113 1557 c 2,20,-1
 1174 1557 l 1,21,-1
 1144 1415 l 1,22,-1
 1078 1415 l 2,23,24
 1007 1415 1007 1415 960 1406 c 128,-1,25
 913 1397 913 1397 883.5 1370.5 c 128,-1,26
 854 1344 854 1344 836 1301.5 c 128,-1,27
 818 1259 818 1259 804 1187 c 2,28,-1
 757 939 l 2,29,30
 726 779 726 779 667 708 c 128,-1,31
 608 637 608 637 495 611 c 1,32,33
 597 587 597 587 629 517.5 c 128,-1,34
 661 448 661 448 628 288 c 2,35,-1
 583 40 l 2,36,37
 554 -102 554 -102 587.5 -147.5 c 128,-1,38
 621 -193 621 -193 764 -193 c 2,39,-1
 832 -193 l 1,40,-1
 804 -335 l 1,0,-1
EndSplineSet
EndChar
StartChar: bar
Encoding: 124 124 95
Width: 689
VWidth: 3555
Flags: W
VStem: -14 573<-484 1568>
Fore
160 -484 m 1,0,-1
 -14 -484 l 1,1,-1
 384 1568 l 1,2,-1
 559 1568 l 1,3,-1
 160 -484 l 1,0,-1
EndSplineSet
EndChar
StartChar: braceright
Encoding: 125 125 96
Width: 1303
VWidth: 3555
Flags: W
HStem: -335 142<40 206.605> 540 146<768.181 974> 1415 142<380 519.24>
VStem: 10 993<-335 686>
Fore
109 -193 m 2,0,1
 181 -193 181 -193 226 -183.5 c 128,-1,2
 271 -174 271 -174 300.5 -148 c 128,-1,3
 330 -122 330 -122 350 -76.5 c 128,-1,4
 370 -31 370 -31 384 40 c 2,5,-1
 431 288 l 2,6,7
 462 448 462 448 517.5 517.5 c 128,-1,8
 573 587 573 587 693 611 c 1,9,10
 583 637 583 637 554.5 708 c 128,-1,11
 526 779 526 779 559 939 c 2,12,-1
 604 1187 l 2,13,14
 618 1259 618 1259 618 1303 c 128,-1,15
 618 1347 618 1347 597 1372 c 128,-1,16
 576 1397 576 1397 535.5 1406 c 128,-1,17
 495 1415 495 1415 424 1415 c 2,18,-1
 352 1415 l 1,19,-1
 380 1557 l 1,20,-1
 444 1557 l 2,21,22
 693 1557 693 1557 760 1483 c 0,23,24
 832 1411 832 1411 790 1191 c 2,25,-1
 740 950 l 2,26,27
 715 800 715 800 756 743 c 128,-1,28
 797 686 797 686 943 686 c 2,29,-1
 1003 686 l 1,30,-1
 974 540 l 1,31,-1
 913 540 l 2,32,33
 767 540 767 540 702 482 c 128,-1,34
 637 424 637 424 608 274 c 2,35,-1
 562 35 l 2,36,37
 519 -193 519 -193 420 -260 c 0,38,39
 330 -335 330 -335 75 -335 c 2,40,-1
 10 -335 l 1,41,-1
 40 -193 l 1,42,-1
 109 -193 l 2,0,1
EndSplineSet
EndChar
StartChar: asciitilde
Encoding: 126 126 97
Width: 1716
VWidth: 3555
Flags: W
HStem: 495 163<901.198 1241.47> 625 172<371.611 715.746>
Fore
1443 641 m 1,0,1
 1323 562 1323 562 1228.5 528.5 c 128,-1,2
 1134 495 1134 495 1038 495 c 0,3,4
 932 495 932 495 793 554 c 0,5,6
 786 559 786 559 774 559 c 1,7,8
 753 566 l 2,9,10
 611 625 611 625 519 625 c 0,11,12
 431 625 431 625 338 587.5 c 128,-1,13
 245 550 245 550 132 469 c 1,14,-1
 167 644 l 1,15,16
 288 726 288 726 382 761.5 c 128,-1,17
 476 797 476 797 576 797 c 0,18,19
 682 797 682 797 821 733 c 1,20,21
 821 729 821 729 832 729 c 1,22,23
 854 722 l 2,24,25
 998 658 998 658 1088 658 c 0,26,27
 1174 658 1174 658 1266 695.5 c 128,-1,28
 1358 733 1358 733 1479 821 c 1,29,-1
 1443 641 l 1,0,1
EndSplineSet
EndChar
StartChar: Adieresis
Encoding: 196 196 98
Width: 1399
VWidth: 3555
Flags: W
HStem: 0 21G<-163 64.8421 994.737 1205> 380 174<359 906> 1473 20G<684.493 932.697> 1672 198<590 750 981 1144>
Fore
359 554 m 1,0,-1
 906 554 l 1,1,-1
 771 1299 l 1,2,-1
 359 554 l 1,0,-1
929 1493 m 1,3,-1
 1205 0 l 1,4,-1
 998 0 l 1,5,-1
 936 380 l 1,6,-1
 260 380 l 1,7,-1
 54 0 l 1,8,-1
 -163 0 l 1,9,-1
 696 1493 l 1,10,-1
 929 1493 l 1,3,-1
1184 1870 m 1,11,-1
 1144 1672 l 1,12,-1
 943 1672 l 1,13,-1
 981 1870 l 1,14,-1
 1184 1870 l 1,11,-1
790 1870 m 1,15,-1
 750 1672 l 1,16,-1
 550 1672 l 1,17,-1
 590 1870 l 1,18,-1
 790 1870 l 1,15,-1
EndSplineSet
EndChar
StartChar: Aring
Encoding: 197 197 99
Width: 1399
VWidth: 3555
Flags: W
HStem: 0 21G<-163 64.8421 994.737 1205> 380 174<359 903> 1781 125<752.641 965.761>
Fore
991 1628 m 0,0,1
 1003 1693 1003 1693 966 1737 c 128,-1,2
 929 1781 929 1781 868 1781 c 0,3,4
 804 1781 804 1781 752 1737 c 128,-1,5
 700 1693 700 1693 689 1628 c 0,6,7
 675 1564 675 1564 709 1520 c 128,-1,8
 743 1476 743 1476 807 1476 c 0,9,10
 868 1476 868 1476 922.5 1520 c 128,-1,11
 977 1564 977 1564 991 1628 c 0,0,1
359 554 m 1,12,-1
 903 554 l 1,13,-1
 771 1299 l 1,14,-1
 359 554 l 1,12,-1
644 1397 m 1,15,16
 536 1479 536 1479 569 1628 c 0,17,18
 590 1743 590 1743 684.5 1824.5 c 128,-1,19
 779 1906 779 1906 892 1906 c 0,20,21
 1010 1906 1010 1906 1073.5 1824.5 c 128,-1,22
 1137 1743 1137 1743 1116 1628 c 0,23,24
 1085 1479 1085 1479 946 1397 c 1,25,-1
 1205 0 l 1,26,-1
 998 0 l 1,27,-1
 936 380 l 1,28,-1
 260 380 l 1,29,-1
 54 0 l 1,30,-1
 -163 0 l 1,31,-1
 644 1397 l 1,15,16
EndSplineSet
EndChar
StartChar: Ccedilla
Encoding: 199 199 100
Width: 1432
VWidth: 3555
Flags: W
HStem: -394 123<436.747 632.251> -28 28<608.256 722> 1354 168<694.735 1171.55>
Fore
1368 1167 m 1,0,1
 1201 1354 1201 1354 943 1354 c 0,2,3
 686 1354 686 1354 521 1201.5 c 128,-1,4
 356 1049 356 1049 295 746 c 0,5,6
 238 448 238 448 343 293.5 c 128,-1,7
 448 139 448 139 705 139 c 0,8,9
 963 139 963 139 1205 326 c 1,10,-1
 1167 115 l 1,11,12
 924 -28 924 -28 661 -28 c 0,13,14
 316 -28 316 -28 161.5 176 c 128,-1,15
 7 380 7 380 78 746 c 0,16,17
 115 929 115 929 193 1070.5 c 128,-1,18
 271 1212 271 1212 386.5 1313.5 c 128,-1,19
 502 1415 502 1415 647.5 1468.5 c 128,-1,20
 793 1522 793 1522 963 1522 c 0,21,22
 1227 1522 1227 1522 1411 1380 c 1,23,-1
 1368 1167 l 1,0,1
722 0 m 1,24,25
 760 -64 760 -64 778.5 -115.5 c 128,-1,26
 797 -167 797 -167 790 -217 c 0,27,28
 750 -394 750 -394 516 -394 c 0,29,30
 465 -394 465 -394 424.5 -387 c 128,-1,31
 384 -380 384 -380 342 -373 c 1,32,-1
 366 -238 l 1,33,34
 398 -255 398 -255 433.5 -263 c 128,-1,35
 469 -271 469 -271 519 -271 c 0,36,37
 634 -271 634 -271 654 -177 c 0,38,39
 665 -125 665 -125 601 0 c 1,40,-1
 722 0 l 1,24,25
EndSplineSet
EndChar
StartChar: Eacute
Encoding: 201 201 101
Width: 1296
VWidth: 3555
Flags: W
HStem: 0 167<255 988> 712 170<394 1073> 1326 167<479 1224>
Fore
1255 1493 m 1,0,-1
 1224 1326 l 1,1,-1
 479 1326 l 1,2,-1
 394 882 l 1,3,-1
 1109 882 l 1,4,-1
 1073 712 l 1,5,-1
 359 712 l 1,6,-1
 255 167 l 1,7,-1
 1021 167 l 1,8,-1
 988 0 l 1,9,-1
 24 0 l 1,10,-1
 312 1493 l 1,11,-1
 1255 1493 l 1,0,-1
1099 1903 m 1,12,-1
 818 1635 l 1,13,-1
 668 1635 l 1,14,-1
 913 1903 l 1,15,-1
 1099 1903 l 1,12,-1
EndSplineSet
EndChar
StartChar: Ntilde
Encoding: 209 209 102
Width: 1534
VWidth: 3555
Flags: W
HStem: 0 21G<24 220.862 878.157 1159.84> 1473 20G<308.142 589.795 1244.14 1443> 1672 120<1013.51 1140.14> 1767 120<724.901 844.165>
Fore
583 1493 m 1,0,-1
 1007 245 l 1,1,-1
 1248 1493 l 1,2,-1
 1443 1493 l 1,3,-1
 1156 0 l 1,4,-1
 885 0 l 1,5,-1
 458 1248 l 1,6,-1
 217 0 l 1,7,-1
 24 0 l 1,8,-1
 312 1493 l 1,9,-1
 583 1493 l 1,0,-1
868 1746 m 1,10,11
 825 1767 825 1767 797 1767 c 0,12,13
 726 1767 726 1767 708 1675 c 1,14,-1
 708 1672 l 1,15,-1
 583 1672 l 1,16,17
 601 1767 601 1767 663.5 1827 c 128,-1,18
 726 1887 726 1887 814 1887 c 0,19,20
 845 1887 845 1887 875.5 1878.5 c 128,-1,21
 906 1870 906 1870 946 1845 c 2,22,-1
 1003 1818 l 1,23,24
 1038 1792 1038 1792 1062 1792 c 0,25,26
 1137 1792 1137 1792 1156 1880 c 1,27,-1
 1160 1887 l 1,28,-1
 1283 1887 l 1,29,30
 1262 1788 1262 1788 1199.5 1730 c 128,-1,31
 1137 1672 1137 1672 1052 1672 c 0,32,33
 1017 1672 1017 1672 990 1679 c 128,-1,34
 963 1686 963 1686 913 1713 c 2,35,-1
 868 1746 l 1,10,11
EndSplineSet
EndChar
StartChar: Odieresis
Encoding: 214 214 103
Width: 1612
VWidth: 3555
Flags: W
HStem: -28 163<461.127 869.313> 1358 164<683.252 1087.83> 1672 198<696 858 1088 1252>
Fore
896 1358 m 0,0,1
 672 1358 672 1358 512 1193 c 128,-1,2
 352 1028 352 1028 295 746 c 0,3,4
 241 458 241 458 337.5 296.5 c 128,-1,5
 434 135 434 135 658 135 c 0,6,7
 875 135 875 135 1036.5 296.5 c 128,-1,8
 1198 458 1198 458 1252 746 c 0,9,10
 1309 1028 1309 1028 1211 1193 c 128,-1,11
 1113 1358 1113 1358 896 1358 c 0,0,1
929 1522 m 0,12,13
 1085 1522 1085 1522 1200.5 1466.5 c 128,-1,14
 1316 1411 1316 1411 1385.5 1309.5 c 128,-1,15
 1455 1208 1455 1208 1475.5 1066 c 128,-1,16
 1496 924 1496 924 1462 746 c 256,17,18
 1425 569 1425 569 1348.5 427 c 128,-1,19
 1272 285 1272 285 1163.5 183.5 c 128,-1,20
 1055 82 1055 82 919 27 c 128,-1,21
 783 -28 783 -28 625 -28 c 0,22,23
 312 -28 312 -28 156 181 c 0,24,25
 10 394 10 394 78 746 c 0,26,27
 149 1102 149 1102 377 1309 c 0,28,29
 611 1522 611 1522 929 1522 c 0,12,13
1290 1870 m 1,30,-1
 1252 1672 l 1,31,-1
 1049 1672 l 1,32,-1
 1088 1870 l 1,33,-1
 1290 1870 l 1,30,-1
896 1870 m 1,34,-1
 858 1672 l 1,35,-1
 658 1672 l 1,36,-1
 696 1870 l 1,37,-1
 896 1870 l 1,34,-1
EndSplineSet
EndChar
StartChar: Udieresis
Encoding: 220 220 104
Width: 1499
VWidth: 3555
Flags: W
HStem: -28 163<400.005 811.681> 1473 20G<284.09 491 1227.11 1432> 1672 198<641 800 1031 1194>
Fore
491 1493 m 1,0,-1
 316 587 l 2,1,2
 267 349 267 349 335.5 242 c 128,-1,3
 404 135 404 135 597 135 c 0,4,5
 793 135 793 135 900 242 c 128,-1,6
 1007 349 1007 349 1055 587 c 2,7,-1
 1231 1493 l 1,8,-1
 1432 1493 l 1,9,-1
 1252 562 l 2,10,11
 1194 271 1194 271 1019.5 121.5 c 128,-1,12
 845 -28 845 -28 566 -28 c 256,13,14
 285 -28 285 -28 167.5 121.5 c 128,-1,15
 50 271 50 271 106 562 c 2,16,-1
 288 1493 l 1,17,-1
 491 1493 l 1,0,-1
1234 1870 m 1,18,-1
 1194 1672 l 1,19,-1
 991 1672 l 1,20,-1
 1031 1870 l 1,21,-1
 1234 1870 l 1,18,-1
838 1870 m 1,22,-1
 800 1672 l 1,23,-1
 601 1672 l 1,24,-1
 641 1870 l 1,25,-1
 838 1870 l 1,22,-1
EndSplineSet
EndChar
StartChar: aacute
Encoding: 225 225 105
Width: 1253
VWidth: 3555
Flags: W
HStem: -28 153<241.44 538.383> 566 142<334.885 814> 991 153<423.557 767.966>
Fore
634 566 m 1,0,1
 410 566 410 566 315 514 c 128,-1,2
 220 462 220 462 196 339 c 0,3,4
 177 238 177 238 229 181.5 c 128,-1,5
 281 125 281 125 387 125 c 0,6,7
 547 125 547 125 659 233.5 c 128,-1,8
 771 342 771 342 807 523 c 2,9,-1
 814 566 l 1,10,-1
 634 566 l 1,0,1
892 0 m 1,11,-1
 708 0 l 1,12,-1
 740 167 l 1,13,14
 576 -28 576 -28 312 -28 c 0,15,16
 142 -28 142 -28 60.5 67.5 c 128,-1,17
 -21 163 -21 163 7 326 c 0,18,19
 82 708 82 708 583 708 c 2,20,-1
 842 708 l 1,21,-1
 845 726 l 2,22,23
 871 854 871 854 802 922.5 c 128,-1,24
 733 991 733 991 583 991 c 0,25,26
 387 991 387 991 203 899 c 1,27,-1
 234 1069 l 1,28,29
 339 1109 339 1109 439.5 1126.5 c 128,-1,30
 540 1144 540 1144 628 1144 c 0,31,32
 1113 1144 1113 1144 1014 641 c 2,33,-1
 892 0 l 1,11,-1
1069 1639 m 1,34,-1
 672 1262 l 1,35,-1
 523 1262 l 1,36,-1
 871 1639 l 1,37,-1
 1069 1639 l 1,34,-1
EndSplineSet
EndChar
StartChar: agrave
Encoding: 224 224 106
Width: 1253
VWidth: 3555
Flags: W
HStem: -28 153<241.44 538.383> 566 142<334.885 814> 991 153<423.557 767.966>
VStem: 7 1007<326 339 641 708 326 641>
Fore
634 566 m 1,0,1
 410 566 410 566 315 514 c 128,-1,2
 220 462 220 462 196 339 c 0,3,4
 177 238 177 238 229 181.5 c 128,-1,5
 281 125 281 125 387 125 c 0,6,7
 547 125 547 125 659 233.5 c 128,-1,8
 771 342 771 342 807 523 c 2,9,-1
 814 566 l 1,10,-1
 634 566 l 1,0,1
892 0 m 1,11,-1
 708 0 l 1,12,-1
 740 167 l 1,13,14
 576 -28 576 -28 312 -28 c 0,15,16
 142 -28 142 -28 60.5 67.5 c 128,-1,17
 -21 163 -21 163 7 326 c 0,18,19
 82 708 82 708 583 708 c 2,20,-1
 842 708 l 1,21,-1
 845 726 l 2,22,23
 871 854 871 854 802 922.5 c 128,-1,24
 733 991 733 991 583 991 c 0,25,26
 387 991 387 991 203 899 c 1,27,-1
 234 1069 l 1,28,29
 339 1109 339 1109 439.5 1126.5 c 128,-1,30
 540 1144 540 1144 628 1144 c 0,31,32
 1113 1144 1113 1144 1014 641 c 2,33,-1
 892 0 l 1,11,-1
797 1266 m 1,34,-1
 648 1266 l 1,35,-1
 387 1639 l 1,36,-1
 590 1639 l 1,37,-1
 797 1266 l 1,34,-1
EndSplineSet
EndChar
StartChar: acircumflex
Encoding: 226 226 107
Width: 1253
VWidth: 3555
Flags: W
HStem: -28 153<241.44 538.383> 566 142<334.885 814> 991 153<423.557 767.966>
VStem: 7 1007<326 339 641 708 326 641>
Fore
634 566 m 1,0,1
 410 566 410 566 315 514 c 128,-1,2
 220 462 220 462 196 339 c 0,3,4
 177 238 177 238 229 181.5 c 128,-1,5
 281 125 281 125 387 125 c 0,6,7
 547 125 547 125 659 233.5 c 128,-1,8
 771 342 771 342 807 523 c 2,9,-1
 814 566 l 1,10,-1
 634 566 l 1,0,1
892 0 m 1,11,-1
 708 0 l 1,12,-1
 740 167 l 1,13,14
 576 -28 576 -28 312 -28 c 0,15,16
 142 -28 142 -28 60.5 67.5 c 128,-1,17
 -21 163 -21 163 7 326 c 0,18,19
 82 708 82 708 583 708 c 2,20,-1
 842 708 l 1,21,-1
 845 726 l 2,22,23
 871 854 871 854 802 922.5 c 128,-1,24
 733 991 733 991 583 991 c 0,25,26
 387 991 387 991 203 899 c 1,27,-1
 234 1069 l 1,28,29
 339 1109 339 1109 439.5 1126.5 c 128,-1,30
 540 1144 540 1144 628 1144 c 0,31,32
 1113 1144 1113 1144 1014 641 c 2,33,-1
 892 0 l 1,11,-1
807 1639 m 1,34,-1
 981 1262 l 1,35,-1
 842 1262 l 1,36,-1
 708 1507 l 1,37,-1
 484 1262 l 1,38,-1
 345 1262 l 1,39,-1
 661 1639 l 1,40,-1
 807 1639 l 1,34,-1
EndSplineSet
EndChar
StartChar: adieresis
Encoding: 228 228 108
Width: 1253
VWidth: 3555
Flags: W
HStem: -28 153<241.44 538.383> 566 142<334.885 814> 991 153<423.557 767.966> 1351 203<420 580 811 974>
VStem: 7 1007<326 339 641 708 326 641>
Fore
634 566 m 1,0,1
 410 566 410 566 315 514 c 128,-1,2
 220 462 220 462 196 339 c 0,3,4
 177 238 177 238 229 181.5 c 128,-1,5
 281 125 281 125 387 125 c 0,6,7
 547 125 547 125 659 233.5 c 128,-1,8
 771 342 771 342 807 523 c 2,9,-1
 814 566 l 1,10,-1
 634 566 l 1,0,1
892 0 m 1,11,-1
 708 0 l 1,12,-1
 740 167 l 1,13,14
 576 -28 576 -28 312 -28 c 0,15,16
 142 -28 142 -28 60.5 67.5 c 128,-1,17
 -21 163 -21 163 7 326 c 0,18,19
 82 708 82 708 583 708 c 2,20,-1
 842 708 l 1,21,-1
 845 726 l 2,22,23
 871 854 871 854 802 922.5 c 128,-1,24
 733 991 733 991 583 991 c 0,25,26
 387 991 387 991 203 899 c 1,27,-1
 234 1069 l 1,28,29
 339 1109 339 1109 439.5 1126.5 c 128,-1,30
 540 1144 540 1144 628 1144 c 0,31,32
 1113 1144 1113 1144 1014 641 c 2,33,-1
 892 0 l 1,11,-1
1014 1554 m 1,34,-1
 974 1351 l 1,35,-1
 771 1351 l 1,36,-1
 811 1554 l 1,37,-1
 1014 1554 l 1,34,-1
618 1554 m 1,38,-1
 580 1351 l 1,39,-1
 380 1351 l 1,40,-1
 420 1554 l 1,41,-1
 618 1554 l 1,38,-1
EndSplineSet
EndChar
StartChar: atilde
Encoding: 227 227 109
Width: 1253
VWidth: 3555
Flags: W
HStem: -28 153<241.44 538.383> 566 142<334.885 814> 991 153<423.557 767.966> 1312 127<761.297 889.779> 1465 129<505.161 639.244>
Fore
634 566 m 1,0,1
 410 566 410 566 315 514 c 128,-1,2
 220 462 220 462 196 339 c 0,3,4
 177 238 177 238 229 181.5 c 128,-1,5
 281 125 281 125 387 125 c 0,6,7
 547 125 547 125 659 233.5 c 128,-1,8
 771 342 771 342 807 523 c 2,9,-1
 814 566 l 1,10,-1
 634 566 l 1,0,1
892 0 m 1,11,-1
 708 0 l 1,12,-1
 740 167 l 1,13,14
 576 -28 576 -28 312 -28 c 0,15,16
 142 -28 142 -28 60.5 67.5 c 128,-1,17
 -21 163 -21 163 7 326 c 0,18,19
 82 708 82 708 583 708 c 2,20,-1
 842 708 l 1,21,-1
 845 726 l 2,22,23
 871 854 871 854 802 922.5 c 128,-1,24
 733 991 733 991 583 991 c 0,25,26
 387 991 387 991 203 899 c 1,27,-1
 234 1069 l 1,28,29
 339 1109 339 1109 439.5 1126.5 c 128,-1,30
 540 1144 540 1144 628 1144 c 0,31,32
 1113 1144 1113 1144 1014 641 c 2,33,-1
 892 0 l 1,11,-1
637 1429 m 1,34,35
 597 1465 597 1465 569 1465 c 0,36,37
 498 1465 498 1465 465 1312 c 1,38,-1
 342 1312 l 1,39,40
 394 1594 394 1594 590 1594 c 0,41,42
 665 1594 665 1594 715 1533 c 2,43,-1
 764 1476 l 2,44,45
 800 1439 800 1439 821 1439 c 0,46,47
 865 1439 865 1439 889 1474.5 c 128,-1,48
 913 1510 913 1510 932 1594 c 1,49,-1
 1055 1594 l 1,50,51
 995 1312 995 1312 804 1312 c 0,52,53
 729 1312 729 1312 679 1373 c 2,54,-1
 637 1429 l 1,34,35
EndSplineSet
EndChar
StartChar: aring
Encoding: 229 229 110
Width: 1253
VWidth: 3555
Flags: W
HStem: -28 153<241.44 538.383> 566 142<334.885 814> 991 153<423.557 767.966> 1248 125<583.584 798.47> 1679 123<627.127 840.464>
VStem: 7 1007<326 339 641 708 326 641>
Fore
634 566 m 1,0,1
 410 566 410 566 315 514 c 128,-1,2
 220 462 220 462 196 339 c 0,3,4
 177 238 177 238 229 181.5 c 128,-1,5
 281 125 281 125 387 125 c 0,6,7
 547 125 547 125 659 233.5 c 128,-1,8
 771 342 771 342 807 523 c 2,9,-1
 814 566 l 1,10,-1
 634 566 l 1,0,1
892 0 m 1,11,-1
 708 0 l 1,12,-1
 740 167 l 1,13,14
 576 -28 576 -28 312 -28 c 0,15,16
 142 -28 142 -28 60.5 67.5 c 128,-1,17
 -21 163 -21 163 7 326 c 0,18,19
 82 708 82 708 583 708 c 2,20,-1
 842 708 l 1,21,-1
 845 726 l 2,22,23
 871 854 871 854 802 922.5 c 128,-1,24
 733 991 733 991 583 991 c 0,25,26
 387 991 387 991 203 899 c 1,27,-1
 234 1069 l 1,28,29
 339 1109 339 1109 439.5 1126.5 c 128,-1,30
 540 1144 540 1144 628 1144 c 0,31,32
 1113 1144 1113 1144 1014 641 c 2,33,-1
 892 0 l 1,11,-1
865 1529 m 0,34,35
 878 1588 878 1588 842.5 1633.5 c 128,-1,36
 807 1679 807 1679 740 1679 c 0,37,38
 675 1679 675 1679 625.5 1633.5 c 128,-1,39
 576 1588 576 1588 562 1529 c 0,40,41
 547 1462 547 1462 582.5 1417.5 c 128,-1,42
 618 1373 618 1373 682 1373 c 0,43,44
 750 1373 750 1373 799.5 1417.5 c 128,-1,45
 849 1462 849 1462 865 1529 c 0,34,35
984 1529 m 0,46,47
 963 1411 963 1411 867 1329.5 c 128,-1,48
 771 1248 771 1248 658 1248 c 0,49,50
 540 1248 540 1248 478.5 1329.5 c 128,-1,51
 417 1411 417 1411 437 1529 c 0,52,53
 458 1639 458 1639 553 1720.5 c 128,-1,54
 648 1802 648 1802 764 1802 c 0,55,56
 878 1802 878 1802 942.5 1720.5 c 128,-1,57
 1007 1639 1007 1639 984 1529 c 0,46,47
EndSplineSet
EndChar
StartChar: ccedilla
Encoding: 231 231 111
Width: 1126
VWidth: 3555
Flags: W
HStem: -394 123<277.031 471.979> -28 28<447.664 562> 991 153<497.639 918.786>
VStem: 43 985<562 877.5 991 1078 562 1078>
Fore
995 906 m 1,0,1
 865 991 865 991 700 991 c 0,2,3
 519 991 519 991 398.5 877.5 c 128,-1,4
 278 764 278 764 238 562 c 0,5,6
 200 356 200 356 274.5 242 c 128,-1,7
 349 128 349 128 529 128 c 0,8,9
 608 128 608 128 693.5 147.5 c 128,-1,10
 779 167 779 167 861 214 c 1,11,-1
 828 43 l 1,12,13
 658 -28 658 -28 479 -28 c 0,14,15
 224 -28 224 -28 107 128.5 c 128,-1,16
 -10 285 -10 285 43 562 c 256,17,18
 95 838 95 838 275 991 c 128,-1,19
 455 1144 455 1144 722 1144 c 0,20,21
 896 1144 896 1144 1028 1078 c 1,22,-1
 995 906 l 1,0,1
562 0 m 1,23,24
 601 -64 601 -64 619 -115.5 c 128,-1,25
 637 -167 637 -167 628 -217 c 0,26,27
 590 -394 590 -394 356 -394 c 0,28,29
 306 -394 306 -394 265 -387 c 128,-1,30
 224 -380 224 -380 181 -373 c 1,31,-1
 207 -238 l 1,32,33
 238 -255 238 -255 273.5 -263 c 128,-1,34
 309 -271 309 -271 359 -271 c 0,35,36
 472 -271 472 -271 495 -177 c 0,37,38
 505 -125 505 -125 441 0 c 1,39,-1
 562 0 l 1,23,24
EndSplineSet
EndChar
StartChar: eacute
Encoding: 233 233 112
Width: 1262
VWidth: 3555
Flags: W
HStem: -28 156<352.663 822.467> 516 145<260 920> 991 153<481.513 836.645>
Fore
1073 516 m 1,0,-1
 224 516 l 1,1,2
 184 128 184 128 550 128 c 0,3,4
 764 128 764 128 974 231 c 1,5,-1
 943 57 l 1,6,7
 729 -28 729 -28 512 -28 c 0,8,9
 245 -28 245 -28 117.5 126.5 c 128,-1,10
 -10 281 -10 281 43 550 c 0,11,12
 95 828 95 828 271.5 986 c 128,-1,13
 448 1144 448 1144 705 1144 c 0,14,15
 932 1144 932 1144 1036.5 1001 c 128,-1,16
 1141 858 1141 858 1092 608 c 2,17,-1
 1073 516 l 1,0,-1
920 661 m 1,18,19
 950 814 950 814 884 902.5 c 128,-1,20
 818 991 818 991 679 991 c 0,21,22
 526 991 526 991 416 906 c 128,-1,23
 306 821 306 821 260 658 c 1,24,-1
 920 661 l 1,18,19
1127 1639 m 1,25,-1
 729 1262 l 1,26,-1
 580 1262 l 1,27,-1
 929 1639 l 1,28,-1
 1127 1639 l 1,25,-1
EndSplineSet
EndChar
StartChar: egrave
Encoding: 232 232 113
Width: 1262
VWidth: 3555
Flags: W
HStem: -28 156<352.663 822.467> 516 145<260 920> 991 153<481.513 836.645>
Fore
1073 516 m 1,0,-1
 224 516 l 1,1,2
 184 128 184 128 550 128 c 0,3,4
 764 128 764 128 974 231 c 1,5,-1
 943 57 l 1,6,7
 729 -28 729 -28 512 -28 c 0,8,9
 245 -28 245 -28 117.5 126.5 c 128,-1,10
 -10 281 -10 281 43 550 c 0,11,12
 95 828 95 828 271.5 986 c 128,-1,13
 448 1144 448 1144 705 1144 c 0,14,15
 932 1144 932 1144 1036.5 1001 c 128,-1,16
 1141 858 1141 858 1092 608 c 2,17,-1
 1073 516 l 1,0,-1
920 661 m 1,18,19
 950 814 950 814 884 902.5 c 128,-1,20
 818 991 818 991 679 991 c 0,21,22
 526 991 526 991 416 906 c 128,-1,23
 306 821 306 821 260 658 c 1,24,-1
 920 661 l 1,18,19
854 1266 m 1,25,-1
 705 1266 l 1,26,-1
 444 1639 l 1,27,-1
 648 1639 l 1,28,-1
 854 1266 l 1,25,-1
EndSplineSet
EndChar
StartChar: ecircumflex
Encoding: 234 234 114
Width: 1262
VWidth: 3555
Flags: W
HStem: -28 156<352.663 822.467> 516 145<260 920> 991 153<481.513 836.645>
Fore
1073 516 m 1,0,-1
 224 516 l 1,1,2
 184 128 184 128 550 128 c 0,3,4
 764 128 764 128 974 231 c 1,5,-1
 943 57 l 1,6,7
 729 -28 729 -28 512 -28 c 0,8,9
 245 -28 245 -28 117.5 126.5 c 128,-1,10
 -10 281 -10 281 43 550 c 0,11,12
 95 828 95 828 271.5 986 c 128,-1,13
 448 1144 448 1144 705 1144 c 0,14,15
 932 1144 932 1144 1036.5 1001 c 128,-1,16
 1141 858 1141 858 1092 608 c 2,17,-1
 1073 516 l 1,0,-1
920 661 m 1,18,19
 950 814 950 814 884 902.5 c 128,-1,20
 818 991 818 991 679 991 c 0,21,22
 526 991 526 991 416 906 c 128,-1,23
 306 821 306 821 260 658 c 1,24,-1
 920 661 l 1,18,19
865 1639 m 1,25,-1
 1038 1262 l 1,26,-1
 899 1262 l 1,27,-1
 764 1507 l 1,28,-1
 540 1262 l 1,29,-1
 401 1262 l 1,30,-1
 719 1639 l 1,31,-1
 865 1639 l 1,25,-1
EndSplineSet
EndChar
StartChar: edieresis
Encoding: 235 235 115
Width: 1262
VWidth: 3555
Flags: W
HStem: -28 156<352.663 822.467> 516 145<260 920> 991 153<481.513 836.645> 1351 203<476 637 868 1031>
Fore
1073 516 m 1,0,-1
 224 516 l 1,1,2
 184 128 184 128 550 128 c 0,3,4
 764 128 764 128 974 231 c 1,5,-1
 943 57 l 1,6,7
 729 -28 729 -28 512 -28 c 0,8,9
 245 -28 245 -28 117.5 126.5 c 128,-1,10
 -10 281 -10 281 43 550 c 0,11,12
 95 828 95 828 271.5 986 c 128,-1,13
 448 1144 448 1144 705 1144 c 0,14,15
 932 1144 932 1144 1036.5 1001 c 128,-1,16
 1141 858 1141 858 1092 608 c 2,17,-1
 1073 516 l 1,0,-1
920 661 m 1,18,19
 950 814 950 814 884 902.5 c 128,-1,20
 818 991 818 991 679 991 c 0,21,22
 526 991 526 991 416 906 c 128,-1,23
 306 821 306 821 260 658 c 1,24,-1
 920 661 l 1,18,19
1069 1554 m 1,25,-1
 1031 1351 l 1,26,-1
 828 1351 l 1,27,-1
 868 1554 l 1,28,-1
 1069 1554 l 1,25,-1
675 1554 m 1,29,-1
 637 1351 l 1,30,-1
 437 1351 l 1,31,-1
 476 1554 l 1,32,-1
 675 1554 l 1,29,-1
EndSplineSet
EndChar
StartChar: iacute
Encoding: 237 237 116
Width: 571
VWidth: 3555
Flags: W
HStem: 0 21G<17 203.875> 1100 20G<230.125 417>
VStem: 17 757<0 1639>
Fore
417 1120 m 1,0,-1
 200 0 l 1,1,-1
 17 0 l 1,2,-1
 234 1120 l 1,3,-1
 417 1120 l 1,0,-1
774 1639 m 1,4,-1
 377 1262 l 1,5,-1
 227 1262 l 1,6,-1
 576 1639 l 1,7,-1
 774 1639 l 1,4,-1
EndSplineSet
EndChar
StartChar: igrave
Encoding: 236 236 117
Width: 571
VWidth: 3555
Flags: W
HStem: 0 21G<17 203.875> 1100 20G<230.125 417>
VStem: 17 485<0 1266>
Fore
417 1120 m 1,0,-1
 200 0 l 1,1,-1
 17 0 l 1,2,-1
 234 1120 l 1,3,-1
 417 1120 l 1,0,-1
502 1266 m 1,4,-1
 352 1266 l 1,5,-1
 92 1639 l 1,6,-1
 295 1639 l 1,7,-1
 502 1266 l 1,4,-1
EndSplineSet
EndChar
StartChar: icircumflex
Encoding: 238 238 118
Width: 571
VWidth: 3555
Flags: W
HStem: 0 21G<17 203.875> 1100 20G<230.125 417>
VStem: 17 669<0 1262>
Fore
417 1120 m 1,0,-1
 200 0 l 1,1,-1
 17 0 l 1,2,-1
 234 1120 l 1,3,-1
 417 1120 l 1,0,-1
512 1639 m 1,4,-1
 686 1262 l 1,5,-1
 547 1262 l 1,6,-1
 413 1507 l 1,7,-1
 189 1262 l 1,8,-1
 50 1262 l 1,9,-1
 366 1639 l 1,10,-1
 512 1639 l 1,4,-1
EndSplineSet
EndChar
StartChar: idieresis
Encoding: 239 239 119
Width: 571
VWidth: 3555
Flags: W
HStem: 0 21G<17 203.875> 1100 20G<230.125 417> 1351 203<125 285 516 679>
VStem: 17 702<0 1554>
Fore
417 1120 m 1,0,-1
 200 0 l 1,1,-1
 17 0 l 1,2,-1
 234 1120 l 1,3,-1
 417 1120 l 1,0,-1
719 1554 m 1,4,-1
 679 1351 l 1,5,-1
 476 1351 l 1,6,-1
 516 1554 l 1,7,-1
 719 1554 l 1,4,-1
323 1554 m 1,8,-1
 285 1351 l 1,9,-1
 85 1351 l 1,10,-1
 125 1554 l 1,11,-1
 323 1554 l 1,8,-1
EndSplineSet
EndChar
StartChar: ntilde
Encoding: 241 241 120
Width: 1300
VWidth: 3555
Flags: W
HStem: 0 21G<10 199.785 764 949.888> 988 156<567.213 849.613> 1312 127<832.297 960.81> 1465 129<576.271 710.244>
Fore
946 0 m 1,0,-1
 764 0 l 1,1,-1
 892 668 l 2,2,3
 957 988 957 988 708 988 c 0,4,5
 554 988 554 988 451.5 896 c 128,-1,6
 349 804 349 804 316 634 c 2,7,-1
 196 0 l 1,8,-1
 10 0 l 1,9,-1
 227 1120 l 1,10,-1
 413 1120 l 1,11,-1
 377 950 l 1,12,13
 465 1049 465 1049 561.5 1096.5 c 128,-1,14
 658 1144 658 1144 774 1144 c 0,15,16
 970 1144 970 1144 1045 1025 c 128,-1,17
 1120 906 1120 906 1078 679 c 2,18,-1
 946 0 l 1,0,-1
708 1429 m 1,19,20
 668 1465 668 1465 641 1465 c 0,21,22
 569 1465 569 1465 536 1312 c 1,23,-1
 413 1312 l 1,24,25
 465 1594 465 1594 661 1594 c 0,26,27
 736 1594 736 1594 786 1533 c 2,28,-1
 835 1476 l 2,29,30
 871 1439 871 1439 892 1439 c 0,31,32
 936 1439 936 1439 960 1474.5 c 128,-1,33
 984 1510 984 1510 1003 1594 c 1,34,-1
 1127 1594 l 1,35,36
 1066 1312 1066 1312 875 1312 c 0,37,38
 800 1312 800 1312 750 1373 c 2,39,-1
 708 1429 l 1,19,20
EndSplineSet
EndChar
StartChar: oacute
Encoding: 243 243 121
Width: 1253
VWidth: 3555
Flags: W
HStem: -28 156<320.328 634.841> 991 153<470.104 789.561>
Fore
641 991 m 256,0,1
 491 991 491 991 384.5 877.5 c 128,-1,2
 278 764 278 764 238 562 c 256,3,4
 200 359 200 359 259.5 243.5 c 128,-1,5
 319 128 319 128 469 128 c 256,6,7
 618 128 618 128 728 243.5 c 128,-1,8
 838 359 838 359 878 562 c 0,9,10
 917 757 917 757 853.5 874 c 128,-1,11
 790 991 790 991 641 991 c 256,0,1
668 1144 m 256,12,13
 913 1144 913 1144 1018 991 c 128,-1,14
 1123 838 1123 838 1069 562 c 256,15,16
 1017 285 1017 285 851.5 128.5 c 128,-1,17
 686 -28 686 -28 441 -28 c 256,18,19
 196 -28 196 -28 93 128.5 c 128,-1,20
 -10 285 -10 285 43 562 c 256,21,22
 95 838 95 838 259.5 991 c 128,-1,23
 424 1144 424 1144 668 1144 c 256,12,13
1102 1639 m 1,24,-1
 705 1262 l 1,25,-1
 554 1262 l 1,26,-1
 903 1639 l 1,27,-1
 1102 1639 l 1,24,-1
EndSplineSet
EndChar
StartChar: ograve
Encoding: 242 242 122
Width: 1253
VWidth: 3555
Flags: W
HStem: -28 156<320.328 634.841> 991 153<470.104 789.561>
Fore
641 991 m 256,0,1
 491 991 491 991 384.5 877.5 c 128,-1,2
 278 764 278 764 238 562 c 256,3,4
 200 359 200 359 259.5 243.5 c 128,-1,5
 319 128 319 128 469 128 c 256,6,7
 618 128 618 128 728 243.5 c 128,-1,8
 838 359 838 359 878 562 c 0,9,10
 917 757 917 757 853.5 874 c 128,-1,11
 790 991 790 991 641 991 c 256,0,1
668 1144 m 256,12,13
 913 1144 913 1144 1018 991 c 128,-1,14
 1123 838 1123 838 1069 562 c 256,15,16
 1017 285 1017 285 851.5 128.5 c 128,-1,17
 686 -28 686 -28 441 -28 c 256,18,19
 196 -28 196 -28 93 128.5 c 128,-1,20
 -10 285 -10 285 43 562 c 256,21,22
 95 838 95 838 259.5 991 c 128,-1,23
 424 1144 424 1144 668 1144 c 256,12,13
828 1266 m 1,24,-1
 679 1266 l 1,25,-1
 420 1639 l 1,26,-1
 621 1639 l 1,27,-1
 828 1266 l 1,24,-1
EndSplineSet
EndChar
StartChar: ocircumflex
Encoding: 244 244 123
Width: 1253
VWidth: 3555
Flags: W
HStem: -28 156<320.328 634.841> 991 153<470.104 789.561>
Fore
641 991 m 256,0,1
 491 991 491 991 384.5 877.5 c 128,-1,2
 278 764 278 764 238 562 c 256,3,4
 200 359 200 359 259.5 243.5 c 128,-1,5
 319 128 319 128 469 128 c 256,6,7
 618 128 618 128 728 243.5 c 128,-1,8
 838 359 838 359 878 562 c 0,9,10
 917 757 917 757 853.5 874 c 128,-1,11
 790 991 790 991 641 991 c 256,0,1
668 1144 m 256,12,13
 913 1144 913 1144 1018 991 c 128,-1,14
 1123 838 1123 838 1069 562 c 256,15,16
 1017 285 1017 285 851.5 128.5 c 128,-1,17
 686 -28 686 -28 441 -28 c 256,18,19
 196 -28 196 -28 93 128.5 c 128,-1,20
 -10 285 -10 285 43 562 c 256,21,22
 95 838 95 838 259.5 991 c 128,-1,23
 424 1144 424 1144 668 1144 c 256,12,13
838 1639 m 1,24,-1
 1014 1262 l 1,25,-1
 875 1262 l 1,26,-1
 740 1507 l 1,27,-1
 516 1262 l 1,28,-1
 377 1262 l 1,29,-1
 693 1639 l 1,30,-1
 838 1639 l 1,24,-1
EndSplineSet
EndChar
StartChar: odieresis
Encoding: 246 246 124
Width: 1253
VWidth: 3555
Flags: W
HStem: -28 156<320.328 634.841> 991 153<470.104 789.561> 1351 203<451 611 842 1007>
Fore
641 991 m 256,0,1
 491 991 491 991 384.5 877.5 c 128,-1,2
 278 764 278 764 238 562 c 256,3,4
 200 359 200 359 259.5 243.5 c 128,-1,5
 319 128 319 128 469 128 c 256,6,7
 618 128 618 128 728 243.5 c 128,-1,8
 838 359 838 359 878 562 c 0,9,10
 917 757 917 757 853.5 874 c 128,-1,11
 790 991 790 991 641 991 c 256,0,1
668 1144 m 256,12,13
 913 1144 913 1144 1018 991 c 128,-1,14
 1123 838 1123 838 1069 562 c 256,15,16
 1017 285 1017 285 851.5 128.5 c 128,-1,17
 686 -28 686 -28 441 -28 c 256,18,19
 196 -28 196 -28 93 128.5 c 128,-1,20
 -10 285 -10 285 43 562 c 256,21,22
 95 838 95 838 259.5 991 c 128,-1,23
 424 1144 424 1144 668 1144 c 256,12,13
1045 1554 m 1,24,-1
 1007 1351 l 1,25,-1
 804 1351 l 1,26,-1
 842 1554 l 1,27,-1
 1045 1554 l 1,24,-1
651 1554 m 1,28,-1
 611 1351 l 1,29,-1
 413 1351 l 1,30,-1
 451 1554 l 1,31,-1
 651 1554 l 1,28,-1
EndSplineSet
EndChar
StartChar: otilde
Encoding: 245 245 125
Width: 1253
VWidth: 3555
Flags: W
HStem: -28 156<320.328 634.841> 991 153<470.104 789.561> 1312 127<794.426 921.701> 1465 129<536.912 670.244>
Fore
641 991 m 256,0,1
 491 991 491 991 384.5 877.5 c 128,-1,2
 278 764 278 764 238 562 c 256,3,4
 200 359 200 359 259.5 243.5 c 128,-1,5
 319 128 319 128 469 128 c 256,6,7
 618 128 618 128 728 243.5 c 128,-1,8
 838 359 838 359 878 562 c 0,9,10
 917 757 917 757 853.5 874 c 128,-1,11
 790 991 790 991 641 991 c 256,0,1
668 1144 m 256,12,13
 913 1144 913 1144 1018 991 c 128,-1,14
 1123 838 1123 838 1069 562 c 256,15,16
 1017 285 1017 285 851.5 128.5 c 128,-1,17
 686 -28 686 -28 441 -28 c 256,18,19
 196 -28 196 -28 93 128.5 c 128,-1,20
 -10 285 -10 285 43 562 c 256,21,22
 95 838 95 838 259.5 991 c 128,-1,23
 424 1144 424 1144 668 1144 c 256,12,13
668 1429 m 1,24,25
 628 1465 628 1465 601 1465 c 0,26,27
 529 1465 529 1465 498 1312 c 1,28,-1
 373 1312 l 1,29,30
 427 1594 427 1594 621 1594 c 0,31,32
 696 1594 696 1594 746 1533 c 2,33,-1
 797 1476 l 2,34,35
 832 1439 832 1439 854 1439 c 0,36,37
 896 1439 896 1439 921 1474.5 c 128,-1,38
 946 1510 946 1510 963 1594 c 1,39,-1
 1088 1594 l 1,40,41
 1028 1312 1028 1312 835 1312 c 0,42,43
 760 1312 760 1312 712 1373 c 2,44,-1
 668 1429 l 1,24,25
EndSplineSet
EndChar
StartChar: uacute
Encoding: 250 250 126
Width: 1300
VWidth: 3555
Flags: W
HStem: -28 160<312.06 586.758> 1100 20G<206.095 398 966.044 1153>
Fore
210 1120 m 1,0,-1
 398 1120 l 1,1,-1
 267 451 l 2,2,3
 203 132 203 132 455 132 c 0,4,5
 604 132 604 132 709 227.5 c 128,-1,6
 814 323 814 323 845 488 c 2,7,-1
 970 1120 l 1,8,-1
 1153 1120 l 1,9,-1
 936 0 l 1,10,-1
 753 0 l 1,11,-1
 786 170 l 1,12,13
 693 71 693 71 597.5 21.5 c 128,-1,14
 502 -28 502 -28 384 -28 c 0,15,16
 -14 -28 -14 -28 78 444 c 2,17,-1
 210 1120 l 1,0,-1
1113 1639 m 1,18,-1
 715 1262 l 1,19,-1
 566 1262 l 1,20,-1
 913 1639 l 1,21,-1
 1113 1639 l 1,18,-1
EndSplineSet
EndChar
StartChar: ugrave
Encoding: 249 249 127
Width: 1300
VWidth: 3555
Flags: W
HStem: -28 160<312.06 586.758> 1100 20G<206.095 398 966.044 1153>
Fore
210 1120 m 1,0,-1
 398 1120 l 1,1,-1
 267 451 l 2,2,3
 203 132 203 132 455 132 c 0,4,5
 604 132 604 132 709 227.5 c 128,-1,6
 814 323 814 323 845 488 c 2,7,-1
 970 1120 l 1,8,-1
 1153 1120 l 1,9,-1
 936 0 l 1,10,-1
 753 0 l 1,11,-1
 786 170 l 1,12,13
 693 71 693 71 597.5 21.5 c 128,-1,14
 502 -28 502 -28 384 -28 c 0,15,16
 -14 -28 -14 -28 78 444 c 2,17,-1
 210 1120 l 1,0,-1
838 1266 m 1,18,-1
 689 1266 l 1,19,-1
 431 1639 l 1,20,-1
 634 1639 l 1,21,-1
 838 1266 l 1,18,-1
EndSplineSet
EndChar
StartChar: ucircumflex
Encoding: 251 251 128
Width: 1300
VWidth: 3555
Flags: W
HStem: -28 160<312.06 586.758> 1100 20G<206.095 398 966.044 1153>
Fore
210 1120 m 1,0,-1
 398 1120 l 1,1,-1
 267 451 l 2,2,3
 203 132 203 132 455 132 c 0,4,5
 604 132 604 132 709 227.5 c 128,-1,6
 814 323 814 323 845 488 c 2,7,-1
 970 1120 l 1,8,-1
 1153 1120 l 1,9,-1
 936 0 l 1,10,-1
 753 0 l 1,11,-1
 786 170 l 1,12,13
 693 71 693 71 597.5 21.5 c 128,-1,14
 502 -28 502 -28 384 -28 c 0,15,16
 -14 -28 -14 -28 78 444 c 2,17,-1
 210 1120 l 1,0,-1
849 1639 m 1,18,-1
 1024 1262 l 1,19,-1
 885 1262 l 1,20,-1
 750 1507 l 1,21,-1
 526 1262 l 1,22,-1
 387 1262 l 1,23,-1
 705 1639 l 1,24,-1
 849 1639 l 1,18,-1
EndSplineSet
EndChar
StartChar: udieresis
Encoding: 252 252 129
Width: 1300
VWidth: 3555
Flags: W
HStem: -28 160<312.06 586.758> 1100 20G<206.095 398 966.044 1153> 1351 203<462 621 854 1017>
Fore
210 1120 m 1,0,-1
 398 1120 l 1,1,-1
 267 451 l 2,2,3
 203 132 203 132 455 132 c 0,4,5
 604 132 604 132 709 227.5 c 128,-1,6
 814 323 814 323 845 488 c 2,7,-1
 970 1120 l 1,8,-1
 1153 1120 l 1,9,-1
 936 0 l 1,10,-1
 753 0 l 1,11,-1
 786 170 l 1,12,13
 693 71 693 71 597.5 21.5 c 128,-1,14
 502 -28 502 -28 384 -28 c 0,15,16
 -14 -28 -14 -28 78 444 c 2,17,-1
 210 1120 l 1,0,-1
1055 1554 m 1,18,-1
 1017 1351 l 1,19,-1
 814 1351 l 1,20,-1
 854 1554 l 1,21,-1
 1055 1554 l 1,18,-1
661 1554 m 1,22,-1
 621 1351 l 1,23,-1
 424 1351 l 1,24,-1
 462 1554 l 1,25,-1
 661 1554 l 1,22,-1
EndSplineSet
EndChar
StartChar: dagger
Encoding: 8224 8224 130
Width: 1022
VWidth: 3555
Flags: W
HStem: 920 153<85 424 628 970> 1473 20G<529.095 712>
VStem: 57 941<920 1073>
Fore
712 1493 m 1,0,-1
 628 1073 l 1,1,-1
 998 1073 l 1,2,-1
 970 920 l 1,3,-1
 601 920 l 1,4,-1
 384 -200 l 1,5,-1
 207 -200 l 1,6,-1
 424 920 l 1,7,-1
 57 920 l 1,8,-1
 85 1073 l 1,9,-1
 451 1073 l 1,10,-1
 533 1493 l 1,11,-1
 712 1493 l 1,0,-1
EndSplineSet
EndChar
StartChar: degree
Encoding: 176 176 131
Width: 1022
VWidth: 3555
Flags: W
HStem: 885 129<415.633 647.5> 1391 131<472.896 721.349>
VStem: 248 637<1137 1201 1201 1266 1201 1201>
Fore
604 1391 m 0,0,1
 526 1391 526 1391 460 1337 c 128,-1,2
 394 1283 394 1283 377 1201 c 0,3,4
 363 1123 363 1123 407 1068.5 c 128,-1,5
 451 1014 451 1014 529 1014 c 0,6,7
 611 1014 611 1014 677 1068.5 c 128,-1,8
 743 1123 743 1123 757 1201 c 0,9,10
 774 1283 774 1283 730 1337 c 128,-1,11
 686 1391 686 1391 604 1391 c 0,0,1
628 1522 m 0,12,13
 764 1522 764 1522 838 1429 c 0,14,15
 871 1380 871 1380 885 1323 c 128,-1,16
 899 1266 899 1266 885 1201 c 0,17,18
 875 1137 875 1137 837.5 1079 c 128,-1,19
 800 1021 800 1021 748 978.5 c 128,-1,20
 696 936 696 936 632.5 910.5 c 128,-1,21
 569 885 569 885 505 885 c 0,22,23
 370 885 370 885 295 975.5 c 128,-1,24
 220 1066 220 1066 248 1201 c 256,25,26
 278 1337 278 1337 388 1429.5 c 128,-1,27
 498 1522 498 1522 628 1522 c 0,12,13
EndSplineSet
EndChar
StartChar: cent
Encoding: 162 162 132
Width: 1303
VWidth: 3555
Flags: W
VStem: 99 993<562 856.5 991 1078 562 1078>
Fore
696 988 m 1,0,1
 536 970 536 970 435.5 856.5 c 128,-1,2
 335 743 335 743 299 562 c 0,3,4
 260 370 260 370 320 259.5 c 128,-1,5
 380 149 380 149 529 132 c 1,6,-1
 696 988 l 1,0,1
1059 906 m 1,7,8
 936 988 936 988 793 991 c 1,9,-1
 621 128 l 1,10,11
 767 132 767 132 924 214 c 1,12,-1
 892 43 l 1,13,14
 821 10 821 10 748 -5.5 c 128,-1,15
 675 -21 675 -21 594 -28 c 1,16,-1
 536 -312 l 1,17,-1
 441 -312 l 1,18,-1
 498 -24 l 1,19,20
 260 -3 260 -3 155 149.5 c 128,-1,21
 50 302 50 302 99 562 c 256,22,23
 149 821 149 821 314 972 c 128,-1,24
 479 1123 479 1123 726 1144 c 1,25,-1
 783 1436 l 1,26,-1
 878 1436 l 1,27,-1
 821 1144 l 1,28,29
 967 1141 967 1141 1092 1078 c 1,30,-1
 1059 906 l 1,7,8
EndSplineSet
EndChar
StartChar: sterling
Encoding: 163 163 133
Width: 1303
VWidth: 3555
Flags: W
HStem: 0 167<-17 220 420 946> 637 142<135 309 536 899> 1361 161<732.695 995.268>
Fore
1174 1283 m 1,0,1
 1106 1323 1106 1323 1040 1342 c 128,-1,2
 974 1361 974 1361 917 1361 c 0,3,4
 767 1361 767 1361 692.5 1284.5 c 128,-1,5
 618 1208 618 1208 580 991 c 2,6,-1
 536 779 l 1,7,-1
 929 779 l 1,8,-1
 899 637 l 1,9,-1
 509 637 l 1,10,-1
 420 167 l 1,11,-1
 977 167 l 1,12,-1
 946 0 l 1,13,-1
 -50 0 l 1,14,-1
 -17 167 l 1,15,-1
 220 167 l 1,16,-1
 309 637 l 1,17,-1
 106 637 l 1,18,-1
 135 779 l 1,19,-1
 339 779 l 1,20,-1
 384 1017 l 2,21,22
 434 1276 434 1276 565 1399 c 128,-1,23
 696 1522 696 1522 932 1522 c 0,24,25
 988 1522 988 1522 1061 1505.5 c 128,-1,26
 1134 1489 1134 1489 1205 1462 c 1,27,-1
 1174 1283 l 1,0,1
EndSplineSet
EndChar
StartChar: section
Encoding: 167 167 134
Width: 1022
VWidth: 3555
Flags: W
HStem: -196 146<194.259 454.275> 1377 145<478.31 769.813>
VStem: -35 974<-139 1465>
Fore
384 939 m 1,0,1
 309 889 309 889 268 846.5 c 128,-1,2
 227 804 227 804 220 753 c 0,3,4
 203 679 203 679 260 611 c 0,5,6
 288 576 288 576 359.5 526 c 128,-1,7
 431 476 431 476 543 410 c 1,8,9
 618 458 618 458 655.5 500.5 c 128,-1,10
 693 543 693 543 705 594 c 0,11,12
 719 661 719 661 661 736 c 0,13,14
 604 807 604 807 384 939 c 1,0,1
906 1302 m 1,15,16
 828 1340 828 1340 760.5 1358.5 c 128,-1,17
 693 1377 693 1377 634 1377 c 0,18,19
 540 1377 540 1377 480 1338 c 128,-1,20
 420 1299 420 1299 404 1227 c 0,21,22
 384 1137 384 1137 569 1021 c 0,23,24
 583 1014 583 1014 590 1008.5 c 128,-1,25
 597 1003 597 1003 604 995 c 2,26,27
 793 878 793 878 838 800 c 0,28,29
 892 733 892 733 875 621 c 0,30,31
 835 441 835 441 634 342 c 1,32,33
 686 288 686 288 702.5 232.5 c 128,-1,34
 719 177 719 177 708 115 c 0,35,36
 679 -24 679 -24 561.5 -110 c 128,-1,37
 444 -196 444 -196 271 -196 c 0,38,39
 196 -196 196 -196 121.5 -179.5 c 128,-1,40
 47 -163 47 -163 -35 -139 c 1,41,-1
 -3 24 l 1,42,43
 78 -10 78 -10 147.5 -30 c 128,-1,44
 217 -50 217 -50 278 -50 c 0,45,46
 495 -50 495 -50 526 109 c 0,47,48
 543 214 543 214 345 335 c 2,49,-1
 326 349 l 2,50,51
 227 410 227 410 168 457.5 c 128,-1,52
 109 505 109 505 82 543 c 0,53,54
 31 625 31 625 54 726 c 0,55,56
 92 913 92 913 295 1007 c 1,57,58
 245 1052 245 1052 224 1109.5 c 128,-1,59
 203 1167 203 1167 217 1231 c 0,60,61
 241 1361 241 1361 358.5 1441.5 c 128,-1,62
 476 1522 476 1522 641 1522 c 0,63,64
 790 1522 790 1522 939 1465 c 1,65,-1
 906 1302 l 1,15,16
EndSplineSet
EndChar
StartChar: bullet
Encoding: 8226 8226 135
Width: 1208
VWidth: 3555
Flags: W
VStem: 278 593<644.659 875.5 760 760>
Fore
278 760 m 256,0,1
 302 885 302 885 403.5 972 c 128,-1,2
 505 1059 505 1059 634 1059 c 0,3,4
 757 1059 757 1059 826.5 972 c 128,-1,5
 896 885 896 885 871 760 c 0,6,7
 861 696 861 696 827 643 c 128,-1,8
 793 590 793 590 744.5 551 c 128,-1,9
 696 512 696 512 638 488.5 c 128,-1,10
 580 465 580 465 516 465 c 0,11,12
 391 465 391 465 321.5 551 c 128,-1,13
 252 637 252 637 278 760 c 256,0,1
EndSplineSet
EndChar
StartChar: paragraph
Encoding: 182 182 136
Width: 1303
VWidth: 3555
Flags: W
HStem: 1373 120<838 1031>
VStem: 184 1007<1073 1373 1379.5 1493 1073 1493>
Fore
1191 1493 m 1,0,-1
 865 -200 l 1,1,-1
 726 -200 l 1,2,-1
 1031 1373 l 1,3,-1
 838 1373 l 1,4,-1
 533 -200 l 1,5,-1
 391 -200 l 1,6,-1
 554 648 l 1,7,8
 342 665 342 665 245.5 777 c 128,-1,9
 149 889 149 889 184 1073 c 0,10,11
 224 1266 224 1266 375 1379.5 c 128,-1,12
 526 1493 526 1493 743 1493 c 2,13,-1
 1191 1493 l 1,0,-1
EndSplineSet
EndChar
StartChar: germandbls
Encoding: 223 223 137
Width: 1293
VWidth: 3555
Flags: W
HStem: -28 153<435.979 795.683> 1408 149<558.942 888.935>
Fore
231 1137 m 1,0,1
 271 1340 271 1340 407 1448.5 c 128,-1,2
 543 1557 543 1557 767 1557 c 0,3,4
 1191 1557 1191 1557 1109 1102 c 1,5,6
 957 1095 957 1095 860.5 1036 c 128,-1,7
 764 977 764 977 746 882 c 0,8,9
 726 793 726 793 835 712 c 2,10,-1
 885 675 l 2,11,12
 960 621 960 621 1004.5 577 c 128,-1,13
 1049 533 1049 533 1066 498 c 0,14,15
 1102 424 1102 424 1082 326 c 0,16,17
 1049 153 1049 153 919.5 62.5 c 128,-1,18
 790 -28 790 -28 576 -28 c 0,19,20
 512 -28 512 -28 446 -15.5 c 128,-1,21
 380 -3 380 -3 309 17 c 1,22,-1
 345 184 l 1,23,24
 488 125 488 125 615 125 c 0,25,26
 849 125 849 125 889 312 c 0,27,28
 899 373 899 373 878.5 415.5 c 128,-1,29
 858 458 858 458 771 519 c 2,30,-1
 689 576 l 2,31,32
 604 634 604 634 575.5 700.5 c 128,-1,33
 547 767 547 767 566 861 c 0,34,35
 590 988 590 988 688 1075.5 c 128,-1,36
 786 1163 786 1163 946 1191 c 1,37,38
 963 1408 963 1408 733 1408 c 0,39,40
 601 1408 601 1408 521 1337 c 128,-1,41
 441 1266 441 1266 417 1134 c 2,42,-1
 196 0 l 1,43,-1
 10 0 l 1,44,-1
 231 1137 l 1,0,1
EndSplineSet
EndChar
StartChar: registered
Encoding: 174 174 138
Width: 2050
VWidth: 3555
Flags: W
HStem: 0 102<641.787 1108.89> 696 101<849 982.541> 1073 104<903 1173.22> 1384 102<876.082 1343>
Fore
1113 1384 m 0,0,1
 849 1384 849 1384 628 1198 c 0,2,3
 394 998 394 998 345 743 c 0,4,5
 295 479 295 479 451 292 c 256,6,7
 608 102 608 102 865 102 c 0,8,9
 1127 102 1127 102 1354 292 c 0,10,11
 1585 484 1585 484 1632 743 c 0,12,13
 1686 1003 1686 1003 1533 1198 c 0,14,15
 1380 1384 1380 1384 1113 1384 c 0,0,1
1134 1486 m 0,16,17
 1448 1486 1448 1486 1618 1266 c 0,18,19
 1706 1156 1706 1156 1731.5 1026 c 128,-1,20
 1757 896 1757 896 1727 743 c 256,21,22
 1700 590 1700 590 1623.5 460 c 128,-1,23
 1547 330 1547 330 1415 220 c 0,24,25
 1156 0 1156 0 845 0 c 0,26,27
 543 0 543 0 366 220 c 0,28,29
 189 444 189 444 245 743 c 0,30,31
 302 1045 302 1045 569 1266 c 0,32,33
 832 1486 832 1486 1134 1486 c 0,16,17
903 1073 m 1,34,-1
 849 797 l 1,35,-1
 970 797 l 2,36,37
 1085 797 1085 797 1134.5 827.5 c 128,-1,38
 1184 858 1184 858 1201 936 c 0,39,40
 1215 1007 1215 1007 1174.5 1040 c 128,-1,41
 1134 1073 1134 1073 1024 1073 c 2,42,-1
 903 1073 l 1,34,-1
1052 1177 m 1,43,44
 1234 1177 1234 1177 1309 1118 c 128,-1,45
 1384 1059 1384 1059 1358 936 c 0,46,47
 1340 849 1340 849 1276 792.5 c 128,-1,48
 1212 736 1212 736 1113 722 c 1,49,50
 1141 712 1141 712 1162.5 673 c 128,-1,51
 1184 634 1184 634 1224 562 c 2,52,-1
 1316 339 l 1,53,-1
 1141 339 l 1,54,-1
 1052 543 l 2,55,56
 1014 644 1014 644 983.5 670 c 128,-1,57
 953 696 953 696 899 696 c 2,58,-1
 832 696 l 1,59,-1
 760 339 l 1,60,-1
 608 339 l 1,61,-1
 771 1177 l 1,62,-1
 1052 1177 l 1,43,44
EndSplineSet
EndChar
StartChar: copyright
Encoding: 169 169 139
Width: 2050
VWidth: 3555
Flags: W
HStem: 0 102<641.787 1108.89> 288 116<796.88 1108.05> 1073 121<904.313 1240.02> 1384 102<876.082 1343>
Fore
1134 1486 m 0,0,1
 1448 1486 1448 1486 1618 1266 c 0,2,3
 1706 1156 1706 1156 1731.5 1026 c 128,-1,4
 1757 896 1757 896 1727 743 c 256,5,6
 1700 590 1700 590 1623.5 460 c 128,-1,7
 1547 330 1547 330 1415 220 c 0,8,9
 1156 0 1156 0 845 0 c 0,10,11
 543 0 543 0 366 220 c 0,12,13
 189 444 189 444 245 743 c 0,14,15
 302 1045 302 1045 569 1266 c 0,16,17
 832 1486 832 1486 1134 1486 c 0,0,1
1113 1384 m 0,18,19
 849 1384 849 1384 628 1198 c 0,20,21
 394 998 394 998 345 743 c 0,22,23
 295 479 295 479 451 292 c 256,24,25
 608 102 608 102 865 102 c 0,26,27
 1127 102 1127 102 1354 292 c 0,28,29
 1585 484 1585 484 1632 743 c 0,30,31
 1686 1003 1686 1003 1533 1198 c 0,32,33
 1380 1384 1380 1384 1113 1384 c 0,18,19
1344 1007 m 1,34,35
 1283 1045 1283 1045 1219.5 1059 c 128,-1,36
 1156 1073 1156 1073 1092 1073 c 0,37,38
 943 1073 943 1073 843 988 c 128,-1,39
 743 903 743 903 712 743 c 256,40,41
 679 583 679 583 746.5 493.5 c 128,-1,42
 814 404 814 404 974 404 c 0,43,44
 1038 404 1038 404 1102.5 422.5 c 128,-1,45
 1167 441 1167 441 1238 472 c 1,46,-1
 1215 349 l 1,47,48
 1052 288 1052 288 929 288 c 0,49,50
 712 288 712 288 610.5 408.5 c 128,-1,51
 509 529 509 529 547 743 c 256,52,53
 587 957 587 957 738 1075.5 c 128,-1,54
 889 1194 889 1194 1106 1194 c 0,55,56
 1252 1194 1252 1194 1368 1137 c 1,57,-1
 1344 1007 l 1,34,35
EndSplineSet
EndChar
StartChar: trademark
Encoding: 8482 8482 140
Width: 2050
VWidth: 3555
Flags: W
HStem: 1397 96<404 590 705 906>
Fore
1333 1238 m 1,0,-1
 1550 1493 l 1,1,-1
 1717 1493 l 1,2,-1
 1608 917 l 1,3,-1
 1493 917 l 1,4,-1
 1585 1397 l 1,5,-1
 1337 1099 l 1,6,-1
 1279 1099 l 1,7,-1
 1134 1397 l 1,8,-1
 1042 917 l 1,9,-1
 929 917 l 1,10,-1
 1038 1493 l 1,11,-1
 1208 1493 l 1,12,-1
 1333 1238 l 1,0,-1
906 1397 m 1,13,-1
 705 1397 l 1,14,-1
 611 917 l 1,15,-1
 498 917 l 1,16,-1
 590 1397 l 1,17,-1
 387 1397 l 1,18,-1
 404 1493 l 1,19,-1
 924 1493 l 1,20,-1
 906 1397 l 1,13,-1
EndSplineSet
EndChar
StartChar: acute
Encoding: 180 180 141
Width: 1022
VWidth: 3555
Flags: W
HStem: 1262 377<590 988>
VStem: 441 547<1262 1639>
Fore
988 1639 m 1,0,-1
 590 1262 l 1,1,-1
 441 1262 l 1,2,-1
 790 1639 l 1,3,-1
 988 1639 l 1,0,-1
EndSplineSet
EndChar
StartChar: dieresis
Encoding: 168 168 142
Width: 1022
VWidth: 3555
Flags: W
HStem: 1351 203<339 498 729 892>
VStem: 299 633<1351 1554>
Fore
932 1554 m 1,0,-1
 892 1351 l 1,1,-1
 689 1351 l 1,2,-1
 729 1554 l 1,3,-1
 932 1554 l 1,0,-1
536 1554 m 1,4,-1
 498 1351 l 1,5,-1
 299 1351 l 1,6,-1
 339 1554 l 1,7,-1
 536 1554 l 1,4,-1
EndSplineSet
EndChar
StartChar: notequal
Encoding: 8800 8800 143
Width: 1716
VWidth: 3555
Flags: W
HStem: 352 171<142 404 786 1391> 760 172<220 818 1198 1469>
Fore
991 932 m 1,0,-1
 1309 1245 l 1,1,-1
 1415 1144 l 1,2,-1
 1198 932 l 1,3,-1
 1500 932 l 1,4,-1
 1469 760 l 1,5,-1
 1031 760 l 1,6,-1
 786 523 l 1,7,-1
 1422 523 l 1,8,-1
 1391 352 l 1,9,-1
 615 352 l 1,10,-1
 299 40 l 1,11,-1
 193 142 l 1,12,-1
 404 352 l 1,13,-1
 109 352 l 1,14,-1
 142 523 l 1,15,-1
 576 523 l 1,16,-1
 818 760 l 1,17,-1
 189 760 l 1,18,-1
 220 932 l 1,19,-1
 991 932 l 1,0,-1
EndSplineSet
EndChar
StartChar: AE
Encoding: 198 198 144
Width: 1992
VWidth: 3555
Flags: W
HStem: 0 167<960 1689> 380 174<373 797> 712 170<1099 1774> 1326 167<1184 1923> 1337 156<854 984>
Fore
1923 1326 m 1,0,-1
 1184 1326 l 1,1,-1
 1099 882 l 1,2,-1
 1809 882 l 1,3,-1
 1774 712 l 1,4,-1
 1062 712 l 1,5,-1
 960 167 l 1,6,-1
 1720 167 l 1,7,-1
 1689 0 l 1,8,-1
 726 0 l 1,9,-1
 797 380 l 1,10,-1
 267 380 l 1,11,-1
 35 0 l 1,12,-1
 -170 0 l 1,13,-1
 743 1493 l 1,14,-1
 1955 1493 l 1,15,-1
 1923 1326 l 1,0,-1
373 554 m 1,16,-1
 832 554 l 1,17,-1
 984 1337 l 1,18,-1
 854 1337 l 1,19,-1
 373 554 l 1,16,-1
EndSplineSet
EndChar
StartChar: Oslash
Encoding: 216 216 145
Width: 1612
VWidth: 3555
Flags: W
HStem: -28 163<465.244 869.313> 1358 164<683.252 1073.05>
VStem: 1269 213.5<838.708 1110.87>
Fore
363 267 m 1,0,1
 465 135 465 135 658 135 c 0,2,3
 875 135 875 135 1036.5 296.5 c 128,-1,4
 1198 458 1198 458 1252 746 c 0,5,6
 1272 858 1272 858 1269 951.5 c 128,-1,7
 1266 1045 1266 1045 1245 1113 c 1,8,-1
 363 267 l 1,0,1
1184 1227 m 1,9,10
 1137 1293 1137 1293 1062.5 1325.5 c 128,-1,11
 988 1358 988 1358 896 1358 c 0,12,13
 672 1358 672 1358 512 1193 c 128,-1,14
 352 1028 352 1028 295 746 c 0,15,16
 255 526 255 526 299 377 c 1,17,-1
 1184 1227 l 1,9,10
135 220 m 1,18,19
 21 434 21 434 78 746 c 0,20,21
 149 1102 149 1102 377 1309 c 0,22,23
 611 1522 611 1522 929 1522 c 0,24,25
 1187 1522 1187 1522 1330 1368 c 1,26,-1
 1536 1561 l 1,27,-1
 1618 1472 l 1,28,-1
 1408 1272 l 1,29,30
 1472 1174 1472 1174 1482.5 1040 c 128,-1,31
 1493 906 1493 906 1462 746 c 0,32,33
 1425 569 1425 569 1348.5 427 c 128,-1,34
 1272 285 1272 285 1163.5 183.5 c 128,-1,35
 1055 82 1055 82 919 27 c 128,-1,36
 783 -28 783 -28 625 -28 c 0,37,38
 363 -28 363 -28 214 122 c 1,39,-1
 14 -71 l 1,40,-1
 -75 17 l 1,41,-1
 135 220 l 1,18,19
EndSplineSet
EndChar
StartChar: infinity
Encoding: 8734 8734 146
Width: 1706
VWidth: 3555
Flags: W
HStem: 224 146<279.738 529.833> 227 153<938.827 1212.26> 842 161<377.223 651.605> 858 149<1061.68 1307.07>
Fore
845 562 m 1,0,1
 882 472 882 472 936.5 426 c 128,-1,2
 991 380 991 380 1078 380 c 0,3,4
 1180 380 1180 380 1258.5 448 c 128,-1,5
 1337 516 1337 516 1358 621 c 0,6,7
 1377 722 1377 722 1330 790 c 128,-1,8
 1283 858 1283 858 1191 858 c 0,9,10
 1109 858 1109 858 1031 790 c 128,-1,11
 953 722 953 722 845 562 c 1,0,1
746 665 m 1,12,13
 675 842 675 842 512 842 c 0,14,15
 410 842 410 842 331 777 c 128,-1,16
 252 712 252 712 234 604 c 0,17,18
 214 505 214 505 260 437.5 c 128,-1,19
 306 370 306 370 398 370 c 0,20,21
 479 370 479 370 560 437.5 c 128,-1,22
 641 505 641 505 746 665 c 1,12,13
779 484 m 1,23,24
 686 349 686 349 594 286.5 c 128,-1,25
 502 224 502 224 404 224 c 0,26,27
 271 224 271 224 201.5 336 c 128,-1,28
 132 448 132 448 163 611 c 0,29,30
 200 786 200 786 300.5 894.5 c 128,-1,31
 401 1003 401 1003 536 1003 c 0,32,33
 634 1003 634 1003 695.5 939 c 128,-1,34
 757 875 757 875 807 740 c 1,35,36
 988 1007 988 1007 1184 1007 c 0,37,38
 1252 1007 1252 1007 1305 976.5 c 128,-1,39
 1358 946 1358 946 1390 892 c 128,-1,40
 1422 838 1422 838 1435 767 c 128,-1,41
 1448 696 1448 696 1429 615 c 0,42,43
 1394 441 1394 441 1290.5 334 c 128,-1,44
 1187 227 1187 227 1052 227 c 0,45,46
 960 227 960 227 897.5 286 c 128,-1,47
 835 345 835 345 779 484 c 1,23,24
EndSplineSet
EndChar
StartChar: plusminus
Encoding: 177 177 147
Width: 1716
VWidth: 3555
Flags: W
HStem: 0 167<75 1323> 729 167<214 733 939 1462>
Fore
939 896 m 1,0,-1
 1493 896 l 1,1,-1
 1462 729 l 1,2,-1
 906 729 l 1,3,-1
 832 342 l 1,4,-1
 658 342 l 1,5,-1
 733 729 l 1,6,-1
 181 729 l 1,7,-1
 214 896 l 1,8,-1
 764 896 l 1,9,-1
 842 1286 l 1,10,-1
 1017 1286 l 1,11,-1
 939 896 l 1,0,-1
1354 167 m 1,12,-1
 1323 0 l 1,13,-1
 43 0 l 1,14,-1
 75 167 l 1,15,-1
 1354 167 l 1,12,-1
EndSplineSet
EndChar
StartChar: lessequal
Encoding: 8804 8804 148
Width: 1716
VWidth: 3555
Flags: W
HStem: 0 167<75 1323>
Fore
502 740 m 1,0,-1
 1411 465 l 1,1,-1
 1377 288 l 1,2,-1
 167 654 l 1,3,-1
 203 828 l 1,4,-1
 1554 1194 l 1,5,-1
 1517 1017 l 1,6,-1
 502 740 l 1,0,-1
1354 167 m 1,7,-1
 1323 0 l 1,8,-1
 43 0 l 1,9,-1
 75 167 l 1,10,-1
 1354 167 l 1,7,-1
EndSplineSet
EndChar
StartChar: greaterequal
Encoding: 8805 8805 149
Width: 1716
VWidth: 3555
Flags: W
HStem: 0 167<75 1323>
Fore
274 1194 m 1,0,-1
 1483 828 l 1,1,-1
 1448 654 l 1,2,-1
 95 288 l 1,3,-1
 132 465 l 1,4,-1
 1144 740 l 1,5,-1
 238 1017 l 1,6,-1
 274 1194 l 1,0,-1
1323 0 m 1,7,-1
 43 0 l 1,8,-1
 75 167 l 1,9,-1
 1354 167 l 1,10,-1
 1323 0 l 1,7,-1
EndSplineSet
EndChar
StartChar: yen
Encoding: 165 165 150
Width: 1303
VWidth: 3555
Flags: W
HStem: 0 21G<377 579.886> 458 122<68 465 682 1078> 783 123<132 394 899 1137> 1473 20G<193 387.04 1122.29 1330>
Fore
665 458 m 1,0,-1
 576 0 l 1,1,-1
 377 0 l 1,2,-1
 465 458 l 1,3,-1
 47 458 l 1,4,-1
 68 580 l 1,5,-1
 488 580 l 1,6,-1
 498 628 l 1,7,-1
 441 783 l 1,8,-1
 106 783 l 1,9,-1
 132 906 l 1,10,-1
 394 906 l 1,11,-1
 193 1493 l 1,12,-1
 380 1493 l 1,13,-1
 625 797 l 1,14,-1
 1137 1493 l 1,15,-1
 1330 1493 l 1,16,-1
 899 906 l 1,17,-1
 1163 906 l 1,18,-1
 1137 783 l 1,19,-1
 807 783 l 1,20,-1
 693 628 l 1,21,-1
 682 580 l 1,22,-1
 1099 580 l 1,23,-1
 1078 458 l 1,24,-1
 665 458 l 1,0,-1
EndSplineSet
EndChar
StartChar: mu
Encoding: 181 181 151
Width: 1303
VWidth: 3555
Flags: W
HStem: -431 21G<-92 98.864> -28 160<317.351 648.172> 1100 20G<206.106 398 966.068 1153>
Fore
210 1120 m 1,0,-1
 398 1120 l 1,1,-1
 264 424 l 2,2,3
 207 132 207 132 476 132 c 0,4,5
 779 132 779 132 842 469 c 2,6,-1
 970 1120 l 1,7,-1
 1153 1120 l 1,8,-1
 981 255 l 2,9,10
 970 200 970 200 980.5 171 c 128,-1,11
 991 142 991 142 1035 142 c 0,12,13
 1049 142 1049 142 1106 163 c 1,14,-1
 1078 14 l 1,15,16
 991 -28 991 -28 920 -28 c 0,17,18
 786 -28 786 -28 783 128 c 1,19,20
 654 -28 654 -28 458 -28 c 0,21,22
 248 -28 248 -28 203 128 c 1,23,-1
 95 -431 l 1,24,-1
 -92 -431 l 1,25,-1
 210 1120 l 1,0,-1
EndSplineSet
EndChar
StartChar: partialdiff
Encoding: 8706 8706 152
Width: 1062
VWidth: 3555
Flags: W
HStem: -24 52<183.577 394.271> 736 75<383.502 603.543> 1208 118<581.684 781.701>
VStem: -7 939<356 495 736 753 356 753>
Fore
700 621 m 1,0,1
 729 708 729 708 751.5 789.5 c 128,-1,2
 774 871 774 871 790 950 c 0,3,4
 842 1208 842 1208 696 1208 c 0,5,6
 641 1208 641 1208 559 1149 c 0,7,8
 479 1092 479 1092 437 1092 c 0,9,10
 401 1092 401 1092 382 1113 c 128,-1,11
 363 1134 363 1134 370 1167 c 0,12,13
 384 1227 384 1227 463.5 1276.5 c 128,-1,14
 543 1326 543 1326 648 1326 c 0,15,16
 828 1326 828 1326 904.5 1170 c 128,-1,17
 981 1014 981 1014 932 753 c 0,18,19
 861 413 861 413 675 196 c 0,20,21
 488 -24 488 -24 274 -24 c 0,22,23
 125 -24 125 -24 42.5 84.5 c 128,-1,24
 -40 193 -40 193 -7 356 c 0,25,26
 14 455 14 455 60 538 c 128,-1,27
 106 621 106 621 170 682 c 128,-1,28
 234 743 234 743 310.5 777 c 128,-1,29
 387 811 387 811 465 811 c 0,30,31
 569 811 569 811 624 765 c 128,-1,32
 679 719 679 719 700 621 c 1,0,1
625 495 m 0,33,34
 668 736 668 736 505 736 c 0,35,36
 398 736 398 736 300.5 606 c 128,-1,37
 203 476 203 476 163 271 c 0,38,39
 122 28 122 28 285 28 c 0,40,41
 339 28 339 28 391.5 63.5 c 128,-1,42
 444 99 444 99 490 159.5 c 128,-1,43
 536 220 536 220 570 307 c 128,-1,44
 604 394 604 394 625 495 c 0,33,34
EndSplineSet
EndChar
StartChar: summation
Encoding: 8721 8721 153
Width: 1378
VWidth: 3555
Flags: W
HStem: -391 188<115 1085> 1283 193<427 1387>
Fore
1422 1476 m 1,0,-1
 1387 1283 l 1,1,-1
 427 1283 l 1,2,-1
 957 566 l 1,3,-1
 115 -203 l 1,4,-1
 1120 -203 l 1,5,-1
 1085 -391 l 1,6,-1
 -227 -391 l 1,7,-1
 -200 -245 l 1,8,-1
 679 559 l 1,9,-1
 125 1299 l 1,10,-1
 160 1476 l 1,11,-1
 1422 1476 l 1,0,-1
EndSplineSet
EndChar
StartChar: product
Encoding: 8719 8719 154
Width: 1551
VWidth: 3555
Flags: W
HStem: 1269 207<462 1219>
Fore
1500 1476 m 1,0,-1
 1137 -391 l 1,1,-1
 896 -391 l 1,2,-1
 1219 1269 l 1,3,-1
 462 1269 l 1,4,-1
 139 -391 l 1,5,-1
 -102 -391 l 1,6,-1
 260 1476 l 1,7,-1
 1500 1476 l 1,0,-1
EndSplineSet
EndChar
StartChar: pi
Encoding: 960 960 155
Width: 1208
VWidth: 3555
Flags: W
HStem: -14 146<711.863 814.105> 917 156<232.711 292 472 800 977 1163>
Fore
977 917 m 1,0,-1
 774 431 l 2,1,2
 715 274 715 274 712 238 c 0,3,4
 696 177 696 177 716 154.5 c 128,-1,5
 736 132 736 132 793 132 c 0,6,7
 811 132 811 132 832.5 133.5 c 128,-1,8
 854 135 854 135 896 142 c 1,9,-1
 835 0 l 1,10,11
 779 -14 779 -14 722 -14 c 0,12,13
 479 -14 479 -14 523 189 c 0,14,15
 529 231 529 231 556 304 c 128,-1,16
 583 377 583 377 648 536 c 2,17,-1
 800 917 l 1,18,-1
 472 917 l 1,19,-1
 99 0 l 1,20,-1
 -78 0 l 1,21,-1
 292 917 l 1,22,-1
 252 917 l 2,23,24
 146 917 146 917 99 779 c 1,25,-1
 -57 779 l 1,26,27
 -28 865 -28 865 6 921 c 128,-1,28
 40 977 40 977 86 1011 c 128,-1,29
 132 1045 132 1045 190 1059 c 128,-1,30
 248 1073 248 1073 330 1073 c 2,31,-1
 1227 1073 l 1,32,-1
 1163 917 l 1,33,-1
 977 917 l 1,0,-1
EndSplineSet
EndChar
StartChar: integral
Encoding: 8747 8747 156
Width: 1069
VWidth: 3555
Flags: W
HStem: -373 109<-63 137.644> 1448 106<803.879 1001>
Fore
82 -264 m 0,0,1
 189 -264 189 -264 339 431 c 0,2,3
 349 479 349 479 357.5 522.5 c 128,-1,4
 366 566 366 566 373 594 c 0,5,6
 484 1106 484 1106 620.5 1330 c 128,-1,7
 757 1554 757 1554 960 1554 c 0,8,9
 1042 1554 1042 1554 1082.5 1511.5 c 128,-1,10
 1123 1469 1123 1469 1109 1401 c 0,11,12
 1088 1286 1088 1286 970 1286 c 0,13,14
 885 1286 885 1286 875 1358 c 1,15,16
 868 1373 868 1373 871.5 1410.5 c 128,-1,17
 875 1448 875 1448 861 1448 c 0,18,19
 753 1448 753 1448 618 828 c 0,20,21
 597 729 597 729 581.5 654.5 c 128,-1,22
 566 580 566 580 550 523 c 0,23,24
 495 285 495 285 434 114 c 128,-1,25
 373 -57 373 -57 303.5 -165.5 c 128,-1,26
 234 -274 234 -274 152.5 -323.5 c 128,-1,27
 71 -373 71 -373 -24 -373 c 0,28,29
 -102 -373 -102 -373 -143 -330.5 c 128,-1,30
 -184 -288 -184 -288 -177 -224 c 0,31,32
 -156 -102 -156 -102 -24 -102 c 0,33,34
 47 -102 47 -102 61 -160 c 0,35,36
 64 -170 64 -170 64 -186.5 c 128,-1,37
 64 -203 64 -203 64 -220.5 c 128,-1,38
 64 -238 64 -238 67.5 -251 c 128,-1,39
 71 -264 71 -264 82 -264 c 0,0,1
EndSplineSet
EndChar
StartChar: ordfeminine
Encoding: 170 170 157
Width: 966
VWidth: 3555
Flags: W
HStem: 469 125<75 740> 700 121<295.919 548.788> 1106 113<358.148 715> 1408 114<390.146 700.641>
VStem: 50 825<469 1167>
Fore
764 594 m 1,0,-1
 740 469 l 1,1,-1
 50 469 l 1,2,-1
 75 594 l 1,3,-1
 764 594 l 1,0,-1
790 719 m 1,4,-1
 641 719 l 1,5,-1
 661 832 l 1,6,7
 543 700 543 700 352 700 c 0,8,9
 224 700 224 700 159.5 767.5 c 128,-1,10
 95 835 95 835 118 950 c 0,11,12
 174 1219 174 1219 550 1219 c 2,13,-1
 736 1219 l 1,14,-1
 736 1224 l 1,15,16
 771 1408 771 1408 536 1408 c 0,17,18
 472 1408 472 1408 403.5 1390.5 c 128,-1,19
 335 1373 335 1373 255 1340 c 1,20,-1
 281 1465 l 1,21,22
 437 1522 437 1522 580 1522 c 0,23,24
 943 1522 943 1522 875 1167 c 2,25,-1
 790 719 l 1,4,-1
587 1106 m 1,26,27
 424 1106 424 1106 356 1074 c 128,-1,28
 288 1042 288 1042 271 960 c 0,29,30
 255 896 255 896 298.5 858.5 c 128,-1,31
 342 821 342 821 424 821 c 0,32,33
 523 821 523 821 604.5 892 c 128,-1,34
 686 963 686 963 708 1078 c 2,35,-1
 715 1106 l 1,36,-1
 587 1106 l 1,26,27
EndSplineSet
EndChar
StartChar: ordmasculine
Encoding: 186 186 158
Width: 966
VWidth: 3555
Flags: W
HStem: 469 125<75 740> 700 118<340.4 606.484> 1408 114<438.033 700.375>
VStem: 50 853<469 1109>
Fore
764 594 m 1,0,-1
 740 469 l 1,1,-1
 50 469 l 1,2,-1
 75 594 l 1,3,-1
 764 594 l 1,0,-1
601 1522 m 256,4,5
 783 1522 783 1522 863 1412 c 128,-1,6
 943 1302 943 1302 903 1109 c 256,7,8
 865 917 865 917 743 808.5 c 128,-1,9
 621 700 621 700 441 700 c 256,10,11
 260 700 260 700 176 808.5 c 128,-1,12
 92 917 92 917 132 1109 c 256,13,14
 170 1302 170 1302 295 1412 c 128,-1,15
 420 1522 420 1522 601 1522 c 256,4,5
576 1408 m 0,16,17
 472 1408 472 1408 394 1326.5 c 128,-1,18
 316 1245 316 1245 288 1109 c 0,19,20
 264 977 264 977 311.5 897.5 c 128,-1,21
 359 818 359 818 462 818 c 0,22,23
 569 818 569 818 647.5 897.5 c 128,-1,24
 726 977 726 977 750 1109 c 0,25,26
 779 1245 779 1245 730.5 1326.5 c 128,-1,27
 682 1408 682 1408 576 1408 c 0,16,17
EndSplineSet
EndChar
StartChar: Omega
Encoding: 937 937 159
Width: 1567
VWidth: 3555
Flags: W
HStem: 0 177<-68 248 1024 1312> 1340 170<644.772 1066.96>
Fore
1312 0 m 1,0,-1
 712 0 l 1,1,-1
 743 177 l 1,2,3
 943 274 943 274 1072 441 c 128,-1,4
 1201 608 1201 608 1241 811 c 0,5,6
 1290 1055 1290 1055 1186 1197.5 c 128,-1,7
 1082 1340 1082 1340 865 1340 c 0,8,9
 651 1340 651 1340 490.5 1196 c 128,-1,10
 330 1052 330 1052 281 811 c 0,11,12
 241 608 241 608 307 441 c 128,-1,13
 373 274 373 274 536 177 c 1,14,-1
 505 0 l 1,15,-1
 -99 0 l 1,16,-1
 -68 177 l 1,17,-1
 248 177 l 1,18,19
 122 319 122 319 78.5 467 c 128,-1,20
 35 615 35 615 71 800 c 0,21,22
 135 1116 135 1116 359 1316 c 0,23,24
 590 1510 590 1510 896 1510 c 0,25,26
 1205 1510 1205 1510 1354 1316 c 0,27,28
 1507 1120 1507 1120 1451 811 c 0,29,30
 1411 615 1411 615 1313 467 c 128,-1,31
 1215 319 1215 319 1024 177 c 1,32,-1
 1344 177 l 1,33,-1
 1312 0 l 1,0,-1
EndSplineSet
EndChar
StartChar: ae
Encoding: 230 230 160
Width: 2015
VWidth: 3555
Flags: W
HStem: -28 153<242.555 562.261 1099.32 1539.6> 516 145<1014 1672> 566 142<334.885 814> 991 153<423.557 770.787 1228.63 1587.68>
Fore
1672 661 m 1,0,1
 1700 814 1700 814 1634 902.5 c 128,-1,2
 1568 991 1568 991 1432 991 c 0,3,4
 1272 991 1272 991 1163.5 906 c 128,-1,5
 1055 821 1055 821 1014 658 c 1,6,-1
 1672 661 l 1,0,1
1003 963 m 1,7,8
 1095 1055 1095 1055 1210.5 1099.5 c 128,-1,9
 1326 1144 1326 1144 1458 1144 c 0,10,11
 1682 1144 1682 1144 1790.5 1001 c 128,-1,12
 1899 858 1899 858 1849 608 c 2,13,-1
 1831 516 l 1,14,-1
 981 516 l 1,15,16
 953 323 953 323 1034.5 224 c 128,-1,17
 1116 125 1116 125 1302 125 c 0,18,19
 1408 125 1408 125 1511 151 c 128,-1,20
 1614 177 1614 177 1727 231 c 1,21,-1
 1696 57 l 1,22,23
 1472 -28 1472 -28 1266 -28 c 0,24,25
 920 -28 920 -28 818 214 c 1,26,27
 618 -28 618 -28 339 -28 c 0,28,29
 146 -28 146 -28 61 64 c 128,-1,30
 -24 156 -24 156 7 326 c 0,31,32
 82 708 82 708 583 708 c 2,33,-1
 842 708 l 1,34,-1
 845 726 l 2,35,36
 871 854 871 854 802 922.5 c 128,-1,37
 733 991 733 991 583 991 c 0,38,39
 387 991 387 991 203 899 c 1,40,-1
 234 1069 l 1,41,42
 339 1109 339 1109 439.5 1126.5 c 128,-1,43
 540 1144 540 1144 628 1144 c 0,44,45
 771 1144 771 1144 869 1099.5 c 128,-1,46
 967 1055 967 1055 1003 963 c 1,7,8
634 566 m 1,47,48
 410 566 410 566 315 514 c 128,-1,49
 220 462 220 462 196 339 c 0,50,51
 177 238 177 238 229 181.5 c 128,-1,52
 281 125 281 125 387 125 c 0,53,54
 547 125 547 125 659 233.5 c 128,-1,55
 771 342 771 342 807 523 c 2,56,-1
 814 566 l 1,57,-1
 634 566 l 1,47,48
EndSplineSet
EndChar
StartChar: oslash
Encoding: 248 248 161
Width: 1253
VWidth: 3555
Flags: W
HStem: -28 156<317.664 634.841> 991 153<475.307 794.865>
Fore
278 210 m 1,0,1
 345 128 345 128 469 128 c 0,2,3
 618 128 618 128 728 243.5 c 128,-1,4
 838 359 838 359 878 562 c 0,5,6
 910 708 910 708 882 804 c 1,7,-1
 278 210 l 1,0,1
832 910 m 1,8,9
 771 991 771 991 641 991 c 0,10,11
 491 991 491 991 384.5 874 c 128,-1,12
 278 757 278 757 234 543 c 0,13,14
 220 472 220 472 218.5 417.5 c 128,-1,15
 217 363 217 363 231 319 c 1,16,-1
 832 910 l 1,8,9
75 163 m 1,17,18
 -7 319 -7 319 43 562 c 0,19,20
 95 838 95 838 259.5 991 c 128,-1,21
 424 1144 424 1144 668 1144 c 0,22,23
 858 1144 858 1144 974 1049 c 1,24,-1
 1144 1215 l 1,25,-1
 1227 1134 l 1,26,-1
 1042 957 l 1,27,28
 1116 800 1116 800 1069 562 c 0,29,30
 1017 285 1017 285 851.5 128.5 c 128,-1,31
 686 -28 686 -28 441 -28 c 0,32,33
 245 -28 245 -28 146 75 c 1,34,-1
 -31 -95 l 1,35,-1
 -106 -14 l 1,36,-1
 75 163 l 1,17,18
EndSplineSet
EndChar
StartChar: questiondown
Encoding: 191 191 162
Width: 1086
VWidth: 3555
Flags: W
HStem: -28 163<282.534 587.136> 1241 252<604 757>
VStem: 24 790<238.349 271 271 323>
Fore
722 1095 m 1,0,-1
 693 939 l 2,1,2
 682 889 682 889 670 850 c 128,-1,3
 658 811 658 811 634.5 773.5 c 128,-1,4
 611 736 611 736 575.5 698.5 c 128,-1,5
 540 661 540 661 484 618 c 2,6,-1
 380 529 l 2,7,8
 309 476 309 476 275 428 c 128,-1,9
 241 380 241 380 234 335 c 0,10,11
 217 245 217 245 270 190 c 128,-1,12
 323 135 323 135 434 135 c 0,13,14
 512 135 512 135 610 171 c 128,-1,15
 708 207 708 207 814 271 c 1,16,-1
 779 85 l 1,17,18
 672 24 672 24 570.5 -2 c 128,-1,19
 469 -28 469 -28 370 -28 c 0,20,21
 184 -28 184 -28 90.5 67.5 c 128,-1,22
 -3 163 -3 163 24 323 c 0,23,24
 43 398 43 398 92.5 467 c 128,-1,25
 142 536 142 536 245 621 c 2,26,-1
 349 712 l 2,27,28
 413 757 413 757 434 784 c 128,-1,29
 455 811 455 811 469 835 c 0,30,31
 491 871 491 871 512 970 c 2,32,-1
 533 1095 l 1,33,-1
 722 1095 l 1,0,-1
554 1241 m 1,34,-1
 604 1493 l 1,35,-1
 807 1493 l 1,36,-1
 757 1241 l 1,37,-1
 554 1241 l 1,34,-1
EndSplineSet
EndChar
StartChar: exclamdown
Encoding: 161 161 163
Width: 824
VWidth: 3555
Flags: W
HStem: 0 21G<132 338.761> 1241 252<420 573>
VStem: 132 489<0 1493>
Fore
370 1241 m 1,0,-1
 420 1493 l 1,1,-1
 621 1493 l 1,2,-1
 573 1241 l 1,3,-1
 370 1241 l 1,0,-1
132 0 m 1,4,-1
 255 654 l 1,5,-1
 349 1014 l 1,6,-1
 512 1014 l 1,7,-1
 458 654 l 1,8,-1
 335 0 l 1,9,-1
 132 0 l 1,4,-1
EndSplineSet
EndChar
StartChar: logicalnot
Encoding: 172 172 164
Width: 1716
VWidth: 3555
Flags: W
HStem: 693 172<210 1286>
Fore
1489 865 m 1,0,-1
 1377 288 l 1,1,-1
 1208 288 l 1,2,-1
 1286 693 l 1,3,-1
 174 693 l 1,4,-1
 210 865 l 1,5,-1
 1489 865 l 1,0,-1
EndSplineSet
EndChar
StartChar: radical
Encoding: 8730 8730 165
Width: 1307
VWidth: 3555
Flags: W
HStem: 1568 95<1316 1432>
Fore
1451 1663 m 1,0,-1
 1432 1568 l 1,1,-1
 1316 1568 l 1,2,-1
 410 -40 l 1,3,-1
 342 -40 l 1,4,-1
 200 842 l 1,5,-1
 61 800 l 1,6,-1
 57 878 l 1,7,-1
 356 977 l 1,8,-1
 472 267 l 1,9,-1
 1259 1663 l 1,10,-1
 1451 1663 l 1,0,-1
EndSplineSet
EndChar
StartChar: florin
Encoding: 402 402 166
Width: 1303
VWidth: 3555
Flags: W
HStem: -431 150<-166.471 130.645> 708 141<342 562 814 1069> 1358 21G<1337.5 1376.78> 1415 142<1074.89 1354.64>
Fore
1373 1358 m 1,0,1
 1302 1415 1302 1415 1215 1415 c 0,2,3
 1031 1415 1031 1415 932 1163 c 2,4,-1
 814 849 l 1,5,-1
 1099 849 l 1,6,-1
 1069 708 l 1,7,-1
 753 708 l 1,8,-1
 502 71 l 2,9,10
 444 -75 444 -75 389.5 -171 c 128,-1,11
 335 -267 335 -267 272.5 -323.5 c 128,-1,12
 210 -380 210 -380 137 -405.5 c 128,-1,13
 64 -431 64 -431 -28 -431 c 0,14,15
 -132 -431 -132 -431 -220 -380 c 1,16,-1
 -193 -220 l 1,17,18
 -99 -281 -99 -281 -7 -281 c 0,19,20
 89 -281 89 -281 158 -213.5 c 128,-1,21
 227 -146 227 -146 292 17 c 2,22,-1
 562 708 l 1,23,-1
 312 708 l 1,24,-1
 342 849 l 1,25,-1
 621 849 l 1,26,-1
 750 1180 l 2,27,28
 821 1361 821 1361 940 1459 c 128,-1,29
 1059 1557 1059 1557 1208 1557 c 0,30,31
 1312 1557 1312 1557 1404 1522 c 1,32,-1
 1373 1358 l 1,0,1
EndSplineSet
EndChar
StartChar: approxequal
Encoding: 8776 8776 167
Width: 1716
VWidth: 3555
Flags: W
HStem: 295 167<855.639 1198.53> 434 167<333.696 676.589> 689 165<934.459 1277.74> 825 163<406.94 744.919>
Fore
1408 448 m 1,0,1
 1283 366 1283 366 1189 330.5 c 128,-1,2
 1095 295 1095 295 998 295 c 0,3,4
 892 295 892 295 753 356 c 0,5,6
 740 363 740 363 736 363 c 1,7,8
 736 366 736 366 719 373 c 0,9,10
 569 434 569 434 479 434 c 256,11,12
 391 434 391 434 299 395 c 128,-1,13
 207 356 207 356 92 271 c 1,14,-1
 128 455 l 1,15,16
 248 529 248 529 342.5 565 c 128,-1,17
 437 601 437 601 536 601 c 0,18,19
 644 601 644 601 783 536 c 0,20,21
 790 533 790 533 797 533 c 1,22,23
 797 529 797 529 814 523 c 0,24,25
 963 462 963 462 1052 462 c 0,26,27
 1137 462 1137 462 1228 499 c 128,-1,28
 1319 536 1319 536 1443 621 c 1,29,-1
 1408 448 l 1,0,1
1483 835 m 1,30,31
 1361 757 1361 757 1265.5 723 c 128,-1,32
 1170 689 1170 689 1073 689 c 0,33,34
 957 689 957 689 828 746 c 1,35,36
 825 750 825 750 821.5 750 c 128,-1,37
 818 750 818 750 814 753 c 1,38,39
 793 760 l 2,40,41
 651 825 651 825 559 825 c 0,42,43
 469 825 469 825 377 785.5 c 128,-1,44
 285 746 285 746 170 661 c 1,45,-1
 203 838 l 1,46,47
 323 920 323 920 419.5 954 c 128,-1,48
 516 988 516 988 615 988 c 0,49,50
 729 988 729 988 858 932 c 1,51,52
 865 924 865 924 871 924 c 1,53,54
 892 917 l 2,55,56
 1031 854 1031 854 1127 854 c 0,57,58
 1212 854 1212 854 1304.5 891.5 c 128,-1,59
 1397 929 1397 929 1517 1014 c 1,60,-1
 1483 835 l 1,30,31
EndSplineSet
EndChar
StartChar: Delta
Encoding: 8710 8710 168
Width: 1371
VWidth: 3555
Flags: W
HStem: 0 177<122 957>
Fore
122 177 m 1,0,-1
 957 177 l 1,1,-1
 753 1262 l 1,2,-1
 122 177 l 1,0,-1
906 1476 m 1,3,-1
 1198 0 l 1,4,-1
 -181 0 l 1,5,-1
 682 1476 l 1,6,-1
 906 1476 l 1,3,-1
EndSplineSet
EndChar
StartChar: guillemotleft
Encoding: 171 171 169
Width: 1253
VWidth: 3555
Flags: W
HStem: 142 920<910 1092>
VStem: 85 1007<562 1062>
Fore
1052 868 m 1,0,-1
 696 601 l 1,1,-1
 950 335 l 1,2,-1
 910 142 l 1,3,-1
 523 562 l 1,4,-1
 536 641 l 1,5,-1
 1092 1062 l 1,6,-1
 1052 868 l 1,0,-1
615 868 m 1,7,-1
 264 601 l 1,8,-1
 512 335 l 1,9,-1
 472 142 l 1,10,-1
 85 562 l 1,11,-1
 99 641 l 1,12,-1
 654 1062 l 1,13,-1
 615 868 l 1,7,-1
EndSplineSet
EndChar
StartChar: guillemotright
Encoding: 187 187 170
Width: 1253
VWidth: 3555
Flags: W
HStem: 142 920<43 224>
VStem: 43 999<142 641>
Fore
604 641 m 1,0,-1
 590 562 l 1,1,-1
 43 142 l 1,2,-1
 82 335 l 1,3,-1
 431 601 l 1,4,-1
 184 868 l 1,5,-1
 224 1062 l 1,6,-1
 604 641 l 1,0,-1
1042 641 m 1,7,-1
 1028 562 l 1,8,-1
 472 142 l 1,9,-1
 512 335 l 1,10,-1
 868 601 l 1,11,-1
 615 868 l 1,12,-1
 654 1062 l 1,13,-1
 1042 641 l 1,7,-1
EndSplineSet
EndChar
StartChar: ellipsis
Encoding: 8230 8230 171
Width: 2050
VWidth: 3555
Flags: W
HStem: 0 252<102 274 790 953 1469 1639>
Fore
998 252 m 1,0,-1
 953 0 l 1,1,-1
 743 0 l 1,2,-1
 790 252 l 1,3,-1
 998 252 l 1,0,-1
1686 252 m 1,4,-1
 1639 0 l 1,5,-1
 1422 0 l 1,6,-1
 1469 252 l 1,7,-1
 1686 252 l 1,4,-1
319 252 m 1,8,-1
 274 0 l 1,9,-1
 57 0 l 1,10,-1
 102 252 l 1,11,-1
 319 252 l 1,8,-1
EndSplineSet
EndChar
StartChar: Agrave
Encoding: 192 192 173
Width: 1399
VWidth: 3555
Flags: W
HStem: 0 21G<-163 64.8421 994.737 1205> 380 174<359 906> 1473 20G<684.493 932.697>
Fore
359 554 m 1,0,-1
 906 554 l 1,1,-1
 771 1299 l 1,2,-1
 359 554 l 1,0,-1
929 1493 m 1,3,-1
 1205 0 l 1,4,-1
 998 0 l 1,5,-1
 936 380 l 1,6,-1
 260 380 l 1,7,-1
 54 0 l 1,8,-1
 -163 0 l 1,9,-1
 696 1493 l 1,10,-1
 929 1493 l 1,3,-1
977 1635 m 1,11,-1
 825 1635 l 1,12,-1
 644 1903 l 1,13,-1
 835 1903 l 1,14,-1
 977 1635 l 1,11,-1
EndSplineSet
EndChar
StartChar: Atilde
Encoding: 195 195 174
Width: 1399
VWidth: 3555
Flags: W
HStem: 0 21G<-163 64.8421 994.737 1205> 380 174<359 906> 1473 20G<684.493 932.697> 1672 120<949.507 1076.14> 1767 120<660.289 780.103>
Fore
359 554 m 1,0,-1
 906 554 l 1,1,-1
 771 1299 l 1,2,-1
 359 554 l 1,0,-1
929 1493 m 1,3,-1
 1205 0 l 1,4,-1
 998 0 l 1,5,-1
 936 380 l 1,6,-1
 260 380 l 1,7,-1
 54 0 l 1,8,-1
 -163 0 l 1,9,-1
 696 1493 l 1,10,-1
 929 1493 l 1,3,-1
804 1746 m 1,11,12
 760 1767 760 1767 733 1767 c 0,13,14
 661 1767 661 1767 644 1675 c 1,15,-1
 644 1672 l 1,16,-1
 519 1672 l 1,17,18
 536 1767 536 1767 598.5 1827 c 128,-1,19
 661 1887 661 1887 750 1887 c 0,20,21
 783 1887 783 1887 812.5 1878.5 c 128,-1,22
 842 1870 842 1870 882 1845 c 2,23,-1
 939 1818 l 1,24,25
 974 1792 974 1792 998 1792 c 0,26,27
 1073 1792 1073 1792 1092 1880 c 1,28,-1
 1095 1887 l 1,29,-1
 1219 1887 l 1,30,31
 1198 1788 1198 1788 1135.5 1730 c 128,-1,32
 1073 1672 1073 1672 988 1672 c 0,33,34
 953 1672 953 1672 926 1679 c 128,-1,35
 899 1686 899 1686 849 1713 c 2,36,-1
 804 1746 l 1,11,12
EndSplineSet
EndChar
StartChar: Otilde
Encoding: 213 213 175
Width: 1612
VWidth: 3555
Flags: W
HStem: -28 163<461.127 869.313> 1358 164<683.252 1087.83> 1672 120<1056.76 1181.81> 1767 120<766.595 886.346>
Fore
896 1358 m 0,0,1
 672 1358 672 1358 512 1193 c 128,-1,2
 352 1028 352 1028 295 746 c 0,3,4
 241 458 241 458 337.5 296.5 c 128,-1,5
 434 135 434 135 658 135 c 0,6,7
 875 135 875 135 1036.5 296.5 c 128,-1,8
 1198 458 1198 458 1252 746 c 0,9,10
 1309 1028 1309 1028 1211 1193 c 128,-1,11
 1113 1358 1113 1358 896 1358 c 0,0,1
929 1522 m 0,12,13
 1085 1522 1085 1522 1200.5 1466.5 c 128,-1,14
 1316 1411 1316 1411 1385.5 1309.5 c 128,-1,15
 1455 1208 1455 1208 1475.5 1066 c 128,-1,16
 1496 924 1496 924 1462 746 c 256,17,18
 1425 569 1425 569 1348.5 427 c 128,-1,19
 1272 285 1272 285 1163.5 183.5 c 128,-1,20
 1055 82 1055 82 919 27 c 128,-1,21
 783 -28 783 -28 625 -28 c 0,22,23
 312 -28 312 -28 156 181 c 0,24,25
 10 394 10 394 78 746 c 0,26,27
 149 1102 149 1102 377 1309 c 0,28,29
 611 1522 611 1522 929 1522 c 0,12,13
910 1746 m 1,30,31
 868 1767 868 1767 838 1767 c 0,32,33
 767 1767 767 1767 750 1675 c 1,34,-1
 750 1672 l 1,35,-1
 625 1672 l 1,36,37
 644 1767 644 1767 705.5 1827 c 128,-1,38
 767 1887 767 1887 858 1887 c 0,39,40
 889 1887 889 1887 919.5 1878.5 c 128,-1,41
 950 1870 950 1870 988 1845 c 2,42,-1
 1045 1818 l 1,43,44
 1082 1792 1082 1792 1106 1792 c 0,45,46
 1180 1792 1180 1792 1198 1880 c 1,47,-1
 1201 1887 l 1,48,-1
 1326 1887 l 1,49,50
 1305 1788 1305 1788 1242.5 1730 c 128,-1,51
 1180 1672 1180 1672 1095 1672 c 0,52,53
 1059 1672 1059 1672 1033 1679 c 128,-1,54
 1007 1686 1007 1686 957 1713 c 2,55,-1
 910 1746 l 1,30,31
EndSplineSet
EndChar
StartChar: OE
Encoding: 338 338 176
Width: 2192
VWidth: 3555
Flags: W
HStem: 0 167<536.639 953 1156 1884> 712 170<1293 1974> 1326 167<744.444 1177 1380 2127>
Fore
2127 1326 m 1,0,-1
 1380 1326 l 1,1,-1
 1293 882 l 1,2,-1
 2009 882 l 1,3,-1
 1974 712 l 1,4,-1
 1259 712 l 1,5,-1
 1156 167 l 1,6,-1
 1917 167 l 1,7,-1
 1884 0 l 1,8,-1
 818 0 l 2,9,10
 387 0 387 0 197 188.5 c 128,-1,11
 7 377 7 377 82 750 c 0,12,13
 153 1116 153 1116 414 1304.5 c 128,-1,14
 675 1493 675 1493 1106 1493 c 2,15,-1
 2158 1493 l 1,16,-1
 2127 1326 l 1,0,-1
1049 1326 m 2,17,18
 404 1326 404 1326 299 750 c 0,19,20
 181 167 181 167 825 167 c 2,21,-1
 953 167 l 1,22,-1
 1177 1326 l 1,23,-1
 1049 1326 l 2,17,18
EndSplineSet
EndChar
StartChar: oe
Encoding: 339 339 177
Width: 2097
VWidth: 3555
Flags: W
HStem: -28 156<320.328 636.407 1185.07 1655.42> 516 145<1092 1757> 991 153<470.104 791.746 1315.37 1670.34>
Fore
1757 661 m 1,0,1
 1785 814 1785 814 1717 902.5 c 128,-1,2
 1649 991 1649 991 1514 991 c 0,3,4
 1361 991 1361 991 1251 906 c 128,-1,5
 1141 821 1141 821 1092 658 c 1,6,-1
 1757 661 l 1,0,1
1910 516 m 1,7,-1
 1062 516 l 1,8,9
 1010 128 1010 128 1387 128 c 0,10,11
 1604 128 1604 128 1812 231 c 1,12,-1
 1781 57 l 1,13,14
 1557 -28 1557 -28 1347 -28 c 0,15,16
 1031 -28 1031 -28 906 193 c 1,17,18
 719 -28 719 -28 441 -28 c 0,19,20
 196 -28 196 -28 93 128.5 c 128,-1,21
 -10 285 -10 285 43 562 c 256,22,23
 95 838 95 838 259.5 991 c 128,-1,24
 424 1144 424 1144 668 1144 c 0,25,26
 957 1144 957 1144 1049 932 c 1,27,28
 1144 1035 1144 1035 1270.5 1089.5 c 128,-1,29
 1397 1144 1397 1144 1540 1144 c 0,30,31
 1767 1144 1767 1144 1872 1001 c 128,-1,32
 1977 858 1977 858 1927 608 c 2,33,-1
 1910 516 l 1,7,-1
641 991 m 256,34,35
 491 991 491 991 384.5 877.5 c 128,-1,36
 278 764 278 764 238 562 c 256,37,38
 200 359 200 359 259.5 243.5 c 128,-1,39
 319 128 319 128 469 128 c 256,40,41
 618 128 618 128 728 243.5 c 128,-1,42
 838 359 838 359 878 562 c 0,43,44
 917 757 917 757 853.5 874 c 128,-1,45
 790 991 790 991 641 991 c 256,34,35
EndSplineSet
EndChar
StartChar: endash
Encoding: 8211 8211 178
Width: 1022
VWidth: 3555
Flags: W
HStem: 491 143<-57 939>
Fore
967 634 m 1,0,-1
 939 491 l 1,1,-1
 -85 491 l 1,2,-1
 -57 634 l 1,3,-1
 967 634 l 1,0,-1
EndSplineSet
EndChar
StartChar: emdash
Encoding: 8212 8212 179
Width: 2050
VWidth: 3555
Flags: W
HStem: 491 143<-57 1967>
Fore
1995 634 m 1,0,-1
 1967 491 l 1,1,-1
 -85 491 l 1,2,-1
 -57 634 l 1,3,-1
 1995 634 l 1,0,-1
EndSplineSet
EndChar
StartChar: quotedblleft
Encoding: 8220 8220 180
Width: 1062
VWidth: 3555
Flags: W
HStem: 1003 490<184 448>
VStem: 184 804<1003 1493>
Fore
184 1003 m 1,0,-1
 220 1177 l 1,1,-1
 448 1493 l 1,2,-1
 580 1493 l 1,3,-1
 434 1177 l 1,4,-1
 398 1003 l 1,5,-1
 184 1003 l 1,0,-1
601 1003 m 1,6,-1
 637 1177 l 1,7,-1
 861 1493 l 1,8,-1
 988 1493 l 1,9,-1
 845 1177 l 1,10,-1
 811 1003 l 1,11,-1
 601 1003 l 1,6,-1
EndSplineSet
EndChar
StartChar: quotedblright
Encoding: 8221 8221 181
Width: 1062
VWidth: 3555
Flags: W
HStem: 1003 490<316 580>
VStem: 184 804<1003 1493>
Fore
580 1493 m 1,0,-1
 547 1323 l 1,1,-1
 316 1003 l 1,2,-1
 184 1003 l 1,3,-1
 335 1323 l 1,4,-1
 366 1493 l 1,5,-1
 580 1493 l 1,0,-1
988 1493 m 1,6,-1
 957 1323 l 1,7,-1
 729 1003 l 1,8,-1
 601 1003 l 1,9,-1
 743 1323 l 1,10,-1
 774 1493 l 1,11,-1
 988 1493 l 1,6,-1
EndSplineSet
EndChar
StartChar: quoteleft
Encoding: 8216 8216 182
Width: 649
VWidth: 3555
Flags: W
HStem: 1003 490<184 448>
VStem: 184 396<1003 1493>
Fore
184 1003 m 1,0,-1
 220 1177 l 1,1,-1
 448 1493 l 1,2,-1
 580 1493 l 1,3,-1
 434 1177 l 1,4,-1
 398 1003 l 1,5,-1
 184 1003 l 1,0,-1
EndSplineSet
EndChar
StartChar: quoteright
Encoding: 8217 8217 183
Width: 649
VWidth: 3555
Flags: W
HStem: 1021 472<326 583>
VStem: 196 387<1021 1493>
Fore
583 1493 m 1,0,-1
 554 1344 l 1,1,-1
 326 1021 l 1,2,-1
 196 1021 l 1,3,-1
 342 1344 l 1,4,-1
 370 1493 l 1,5,-1
 583 1493 l 1,0,-1
EndSplineSet
EndChar
StartChar: divide
Encoding: 247 247 184
Width: 1716
VWidth: 3555
Flags: W
HStem: 149 245<634 832> 559 170<181 1429> 889 248<779 974>
Fore
1024 1137 m 1,0,-1
 974 889 l 1,1,-1
 729 889 l 1,2,-1
 779 1137 l 1,3,-1
 1024 1137 l 1,0,-1
878 394 m 1,4,-1
 832 149 l 1,5,-1
 587 149 l 1,6,-1
 634 394 l 1,7,-1
 878 394 l 1,4,-1
1462 729 m 1,8,-1
 1429 559 l 1,9,-1
 149 559 l 1,10,-1
 181 729 l 1,11,-1
 1462 729 l 1,8,-1
EndSplineSet
EndChar
StartChar: lozenge
Encoding: 9674 9674 185
Width: 1012
VWidth: 3555
Flags: W
VStem: -61 1004<594 594>
Fore
57 594 m 1,0,-1
 281 -231 l 1,1,-1
 828 594 l 1,2,-1
 601 1411 l 1,3,-1
 57 594 l 1,0,-1
943 594 m 1,4,-1
 231 -476 l 1,5,-1
 -61 594 l 1,6,-1
 648 1656 l 1,7,-1
 943 594 l 1,4,-1
EndSplineSet
EndChar
StartChar: ydieresis
Encoding: 255 255 186
Width: 1215
VWidth: 3555
Flags: W
HStem: -431 160<-71 107.545> 1100 20G<102 299.137 983.137 1191> 1351 203<434 594 825 988>
Fore
458 -102 m 1,0,1
 401 -203 401 -203 353.5 -266.5 c 128,-1,2
 306 -330 306 -330 258 -365.5 c 128,-1,3
 210 -401 210 -401 159.5 -416 c 128,-1,4
 109 -431 109 -431 47 -431 c 2,5,-1
 -102 -431 l 1,6,-1
 -71 -271 l 1,7,-1
 40 -271 l 2,8,9
 78 -271 78 -271 108.5 -265.5 c 128,-1,10
 139 -260 139 -260 167.5 -238.5 c 128,-1,11
 196 -217 196 -217 224 -176 c 128,-1,12
 252 -135 252 -135 288 -68 c 2,13,-1
 339 17 l 1,14,-1
 102 1120 l 1,15,-1
 295 1120 l 1,16,-1
 476 245 l 1,17,-1
 995 1120 l 1,18,-1
 1191 1120 l 1,19,-1
 458 -102 l 1,0,1
1028 1554 m 1,20,-1
 988 1351 l 1,21,-1
 786 1351 l 1,22,-1
 825 1554 l 1,23,-1
 1028 1554 l 1,20,-1
634 1554 m 1,24,-1
 594 1351 l 1,25,-1
 394 1351 l 1,26,-1
 434 1554 l 1,27,-1
 634 1554 l 1,24,-1
EndSplineSet
EndChar
StartChar: Ydieresis
Encoding: 376 376 187
Width: 1249
VWidth: 3555
Flags: W
HStem: 0 21G<345 553.82> 1473 20G<106 332.594 1135.6 1364> 1672 198<516 675 906 1069>
Fore
323 1493 m 1,0,-1
 618 878 l 1,1,-1
 1153 1493 l 1,2,-1
 1364 1493 l 1,3,-1
 686 712 l 1,4,-1
 550 0 l 1,5,-1
 345 0 l 1,6,-1
 479 712 l 1,7,-1
 106 1493 l 1,8,-1
 323 1493 l 1,0,-1
1109 1870 m 1,9,-1
 1069 1672 l 1,10,-1
 868 1672 l 1,11,-1
 906 1870 l 1,12,-1
 1109 1870 l 1,9,-1
715 1870 m 1,13,-1
 675 1672 l 1,14,-1
 476 1672 l 1,15,-1
 516 1870 l 1,16,-1
 715 1870 l 1,13,-1
EndSplineSet
EndChar
StartChar: uni2215
Encoding: 8725 8725 188
Width: 333
VWidth: 3555
Flags: W
HStem: -28 21G<-547 -375.141>
Fore
804 1479 m 1,0,-1
 -391 -28 l 1,1,-1
 -547 -28 l 1,2,-1
 648 1479 l 1,3,-1
 804 1479 l 1,0,-1
EndSplineSet
EndChar
StartChar: currency
Encoding: 164 164 189
Width: 1303
VWidth: 3555
Flags: W
HStem: 217 156<402.201 645.268> 910 159<491.703 795.402>
Fore
1153 1205 m 1,0,-1
 1248 1088 l 1,1,-1
 998 882 l 1,2,3
 1028 825 1028 825 1033 765 c 128,-1,4
 1038 705 1038 705 1024 641 c 0,5,6
 1014 580 1014 580 985.5 521 c 128,-1,7
 957 462 957 462 903 404 c 1,8,-1
 1069 200 l 1,9,-1
 936 85 l 1,10,-1
 764 292 l 1,11,12
 705 252 705 252 640.5 234.5 c 128,-1,13
 576 217 576 217 516 217 c 0,14,15
 410 217 410 217 288 288 c 1,16,-1
 47 82 l 1,17,-1
 -47 200 l 1,18,-1
 200 401 l 1,19,20
 149 523 149 523 170 641 c 0,21,22
 200 774 200 774 295 878 c 1,23,-1
 128 1085 l 1,24,-1
 267 1201 l 1,25,-1
 431 991 l 1,26,27
 554 1069 554 1069 682 1069 c 0,28,29
 804 1069 804 1069 906 991 c 1,30,-1
 1153 1205 l 1,0,-1
871 644 m 0,31,32
 892 757 892 757 828 833.5 c 128,-1,33
 764 910 764 910 651 910 c 256,34,35
 536 910 536 910 442.5 833.5 c 128,-1,36
 349 757 349 757 326 644 c 0,37,38
 302 529 302 529 366.5 451 c 128,-1,39
 431 373 431 373 547 373 c 0,40,41
 658 373 658 373 751.5 451 c 128,-1,42
 845 529 845 529 871 644 c 0,31,32
EndSplineSet
EndChar
StartChar: guilsinglleft
Encoding: 8249 8249 190
Width: 821
VWidth: 3555
Flags: W
HStem: 142 920<472 654>
VStem: 85 569<562 1062>
Fore
615 868 m 1,0,-1
 264 601 l 1,1,-1
 512 335 l 1,2,-1
 472 142 l 1,3,-1
 85 562 l 1,4,-1
 99 641 l 1,5,-1
 654 1062 l 1,6,-1
 615 868 l 1,0,-1
EndSplineSet
EndChar
StartChar: guilsinglright
Encoding: 8250 8250 191
Width: 821
VWidth: 3555
Flags: W
HStem: 142 920<43 224>
VStem: 43 561<142 641>
Fore
604 641 m 1,0,-1
 590 562 l 1,1,-1
 43 142 l 1,2,-1
 82 335 l 1,3,-1
 431 601 l 1,4,-1
 184 868 l 1,5,-1
 224 1062 l 1,6,-1
 604 641 l 1,0,-1
EndSplineSet
EndChar
StartChar: fi
Encoding: 64257 64257 192
Width: 1293
VWidth: 3555
Flags: W
HStem: 0 21G<47 230.889 740 923.875> 977 143<85 234 444 929> 1323 234<1042 1177> 1408 149<533.512 854>
Fore
920 0 m 1,0,-1
 740 0 l 1,1,-1
 929 977 l 1,2,-1
 417 977 l 1,3,-1
 227 0 l 1,4,-1
 47 0 l 1,5,-1
 234 977 l 1,6,-1
 57 977 l 1,7,-1
 85 1120 l 1,8,-1
 264 1120 l 1,9,-1
 278 1201 l 2,10,11
 345 1557 345 1557 700 1557 c 2,12,-1
 885 1557 l 1,13,-1
 854 1408 l 1,14,-1
 679 1408 l 2,15,16
 580 1408 580 1408 532 1367 c 128,-1,17
 484 1326 484 1326 462 1219 c 2,18,-1
 444 1120 l 1,19,-1
 1137 1120 l 1,20,-1
 920 0 l 1,0,-1
1224 1557 m 1,21,-1
 1177 1323 l 1,22,-1
 995 1323 l 1,23,-1
 1042 1557 l 1,24,-1
 1224 1557 l 1,21,-1
EndSplineSet
Ligature2: "'liga' Standard Ligatures in Latin lookup 19 subtable" f i
EndChar
StartChar: fl
Encoding: 64258 64258 193
Width: 1293
VWidth: 3555
Flags: W
HStem: 0 21G<47 230.889 740 923.905> 977 143<85 234 444 722> 1408 149<533.512 1010>
Fore
1224 1557 m 1,0,-1
 920 0 l 1,1,-1
 740 0 l 1,2,-1
 1010 1408 l 1,3,-1
 679 1408 l 2,4,5
 580 1408 580 1408 532 1367 c 128,-1,6
 484 1326 484 1326 462 1219 c 2,7,-1
 444 1120 l 1,8,-1
 750 1120 l 1,9,-1
 722 977 l 1,10,-1
 417 977 l 1,11,-1
 227 0 l 1,12,-1
 47 0 l 1,13,-1
 234 977 l 1,14,-1
 57 977 l 1,15,-1
 85 1120 l 1,16,-1
 264 1120 l 1,17,-1
 278 1201 l 2,18,19
 316 1387 316 1387 417.5 1472 c 128,-1,20
 519 1557 519 1557 712 1557 c 2,21,-1
 1224 1557 l 1,0,-1
EndSplineSet
Ligature2: "'liga' Standard Ligatures in Latin lookup 19 subtable" f l
EndChar
StartChar: daggerdbl
Encoding: 8225 8225 194
Width: 1022
VWidth: 3555
Flags: W
HStem: 224 153<-50 288 495 835> 920 153<85 424 628 970> 1473 20G<529.095 712>
Fore
465 224 m 1,0,-1
 384 -200 l 1,1,-1
 207 -200 l 1,2,-1
 288 224 l 1,3,-1
 -78 224 l 1,4,-1
 -50 377 l 1,5,-1
 316 377 l 1,6,-1
 424 920 l 1,7,-1
 57 920 l 1,8,-1
 85 1073 l 1,9,-1
 451 1073 l 1,10,-1
 533 1493 l 1,11,-1
 712 1493 l 1,12,-1
 628 1073 l 1,13,-1
 998 1073 l 1,14,-1
 970 920 l 1,15,-1
 601 920 l 1,16,-1
 495 377 l 1,17,-1
 865 377 l 1,18,-1
 835 224 l 1,19,-1
 465 224 l 1,0,-1
EndSplineSet
EndChar
StartChar: periodcentered
Encoding: 183 183 195
Width: 649
VWidth: 3555
Flags: W
HStem: 587 251<203 370>
VStem: 156 261<587 838>
Fore
417 838 m 1,0,-1
 370 587 l 1,1,-1
 156 587 l 1,2,-1
 203 838 l 1,3,-1
 417 838 l 1,0,-1
EndSplineSet
EndChar
StartChar: quotesinglbase
Encoding: 8218 8218 196
Width: 649
VWidth: 3555
Flags: W
HStem: -238 490<75 339>
VStem: -57 396<-238 252>
Fore
339 252 m 1,0,-1
 306 82 l 1,1,-1
 75 -238 l 1,2,-1
 -57 -238 l 1,3,-1
 92 82 l 1,4,-1
 125 252 l 1,5,-1
 339 252 l 1,0,-1
EndSplineSet
EndChar
StartChar: quotedblbase
Encoding: 8222 8222 197
Width: 1062
VWidth: 3555
Flags: W
HStem: -238 490<488 746>
VStem: -57 803<-238 252>
Fore
746 252 m 1,0,-1
 715 82 l 1,1,-1
 488 -238 l 1,2,-1
 359 -238 l 1,3,-1
 502 82 l 1,4,-1
 533 252 l 1,5,-1
 746 252 l 1,0,-1
339 252 m 1,6,-1
 306 82 l 1,7,-1
 75 -238 l 1,8,-1
 -57 -238 l 1,9,-1
 92 82 l 1,10,-1
 125 252 l 1,11,-1
 339 252 l 1,6,-1
EndSplineSet
EndChar
StartChar: perthousand
Encoding: 8240 8240 198
Width: 2751
VWidth: 3555
Flags: W
HStem: -28 127<1225.33 1450.21 2031.27 2256.23> 658 125<1317.49 1540.42 2121.92 2343.84> 708 127<336.754 557.675> 1394 128<432.047 650.818>
Fore
2243 658 m 0,0,1
 2154 658 2154 658 2091.5 583.5 c 128,-1,2
 2029 509 2029 509 2002 377 c 0,3,4
 1977 245 1977 245 2012.5 172 c 128,-1,5
 2048 99 2048 99 2137 99 c 0,6,7
 2222 99 2222 99 2284.5 172 c 128,-1,8
 2347 245 2347 245 2371 377 c 0,9,10
 2399 509 2399 509 2363.5 583.5 c 128,-1,11
 2328 658 2328 658 2243 658 c 0,0,1
2269 783 m 0,12,13
 2429 783 2429 783 2501.5 676 c 128,-1,14
 2574 569 2574 569 2535 377 c 0,15,16
 2500 193 2500 193 2382.5 82.5 c 128,-1,17
 2265 -28 2265 -28 2113 -28 c 0,18,19
 1948 -28 1948 -28 1876.5 82.5 c 128,-1,20
 1805 193 1805 193 1842 377 c 0,21,22
 1880 569 1880 569 1992 676 c 128,-1,23
 2104 783 2104 783 2269 783 c 0,12,13
576 1522 m 256,24,25
 736 1522 736 1522 809 1415.5 c 128,-1,26
 882 1309 882 1309 845 1116 c 0,27,28
 807 924 807 924 691.5 816 c 128,-1,29
 576 708 576 708 417 708 c 256,30,31
 255 708 255 708 185 816 c 128,-1,32
 115 924 115 924 153 1116 c 0,33,34
 189 1302 189 1302 303 1412 c 128,-1,35
 417 1522 417 1522 576 1522 c 256,24,25
1639 1522 m 1,36,-1
 401 -28 l 1,37,-1
 245 -28 l 1,38,-1
 1479 1522 l 1,39,-1
 1639 1522 l 1,36,-1
550 1394 m 0,40,41
 465 1394 465 1394 400 1319.5 c 128,-1,42
 335 1245 335 1245 309 1116 c 0,43,44
 281 984 281 984 316.5 909.5 c 128,-1,45
 352 835 352 835 441 835 c 0,46,47
 526 835 526 835 590 909.5 c 128,-1,48
 654 984 654 984 682 1116 c 0,49,50
 708 1245 708 1245 671 1319.5 c 128,-1,51
 634 1394 634 1394 550 1394 c 0,40,41
1462 783 m 256,52,53
 1621 783 1621 783 1694 676 c 128,-1,54
 1767 569 1767 569 1727 377 c 0,55,56
 1693 193 1693 193 1579 82.5 c 128,-1,57
 1465 -28 1465 -28 1305 -28 c 256,58,59
 1144 -28 1144 -28 1073.5 82.5 c 128,-1,60
 1003 193 1003 193 1038 377 c 0,61,62
 1078 569 1078 569 1190 676 c 128,-1,63
 1302 783 1302 783 1462 783 c 256,52,53
1436 658 m 0,64,65
 1347 658 1347 658 1287 583.5 c 128,-1,66
 1227 509 1227 509 1198 377 c 0,67,68
 1174 245 1174 245 1207.5 172 c 128,-1,69
 1241 99 1241 99 1330 99 c 0,70,71
 1415 99 1415 99 1481 172 c 128,-1,72
 1547 245 1547 245 1571 377 c 0,73,74
 1601 509 1601 509 1561.5 583.5 c 128,-1,75
 1522 658 1522 658 1436 658 c 0,64,65
EndSplineSet
EndChar
StartChar: Acircumflex
Encoding: 194 194 199
Width: 1399
VWidth: 3555
Flags: W
HStem: 0 21G<-163 64.8421 994.737 1205> 380 174<359 906> 1473 20G<684.493 932.697>
Fore
359 554 m 1,0,-1
 906 554 l 1,1,-1
 771 1299 l 1,2,-1
 359 554 l 1,0,-1
929 1493 m 1,3,-1
 1205 0 l 1,4,-1
 998 0 l 1,5,-1
 936 380 l 1,6,-1
 260 380 l 1,7,-1
 54 0 l 1,8,-1
 -163 0 l 1,9,-1
 696 1493 l 1,10,-1
 929 1493 l 1,3,-1
988 1906 m 1,11,-1
 1149 1635 l 1,12,-1
 1010 1635 l 1,13,-1
 875 1818 l 1,14,-1
 675 1635 l 1,15,-1
 536 1635 l 1,16,-1
 797 1906 l 1,17,-1
 988 1906 l 1,11,-1
EndSplineSet
EndChar
StartChar: Ecircumflex
Encoding: 202 202 200
Width: 1296
VWidth: 3555
Flags: W
HStem: 0 167<255 988> 712 170<394 1073> 1326 167<479 1224>
Fore
1255 1493 m 1,0,-1
 1224 1326 l 1,1,-1
 479 1326 l 1,2,-1
 394 882 l 1,3,-1
 1109 882 l 1,4,-1
 1073 712 l 1,5,-1
 359 712 l 1,6,-1
 255 167 l 1,7,-1
 1021 167 l 1,8,-1
 988 0 l 1,9,-1
 24 0 l 1,10,-1
 312 1493 l 1,11,-1
 1255 1493 l 1,0,-1
957 1906 m 1,12,-1
 1116 1635 l 1,13,-1
 977 1635 l 1,14,-1
 842 1818 l 1,15,-1
 644 1635 l 1,16,-1
 505 1635 l 1,17,-1
 764 1906 l 1,18,-1
 957 1906 l 1,12,-1
EndSplineSet
EndChar
StartChar: Aacute
Encoding: 193 193 201
Width: 1399
VWidth: 3555
Flags: W
HStem: 0 21G<-163 64.8421 994.737 1205> 380 174<359 906> 1473 20G<684.493 932.697>
Fore
359 554 m 1,0,-1
 906 554 l 1,1,-1
 771 1299 l 1,2,-1
 359 554 l 1,0,-1
929 1493 m 1,3,-1
 1205 0 l 1,4,-1
 998 0 l 1,5,-1
 936 380 l 1,6,-1
 260 380 l 1,7,-1
 54 0 l 1,8,-1
 -163 0 l 1,9,-1
 696 1493 l 1,10,-1
 929 1493 l 1,3,-1
1130 1903 m 1,11,-1
 849 1635 l 1,12,-1
 700 1635 l 1,13,-1
 946 1903 l 1,14,-1
 1130 1903 l 1,11,-1
EndSplineSet
EndChar
StartChar: Edieresis
Encoding: 203 203 202
Width: 1296
VWidth: 3555
Flags: W
HStem: 0 167<255 988> 712 170<394 1073> 1326 167<479 1224> 1672 198<559 719 950 1113>
Fore
1255 1493 m 1,0,-1
 1224 1326 l 1,1,-1
 479 1326 l 1,2,-1
 394 882 l 1,3,-1
 1109 882 l 1,4,-1
 1073 712 l 1,5,-1
 359 712 l 1,6,-1
 255 167 l 1,7,-1
 1021 167 l 1,8,-1
 988 0 l 1,9,-1
 24 0 l 1,10,-1
 312 1493 l 1,11,-1
 1255 1493 l 1,0,-1
1153 1870 m 1,12,-1
 1113 1672 l 1,13,-1
 910 1672 l 1,14,-1
 950 1870 l 1,15,-1
 1153 1870 l 1,12,-1
757 1870 m 1,16,-1
 719 1672 l 1,17,-1
 519 1672 l 1,18,-1
 559 1870 l 1,19,-1
 757 1870 l 1,16,-1
EndSplineSet
EndChar
StartChar: Egrave
Encoding: 200 200 203
Width: 1296
VWidth: 3555
Flags: W
HStem: 0 167<255 988> 712 170<394 1073> 1326 167<479 1224>
Fore
1255 1493 m 1,0,-1
 1224 1326 l 1,1,-1
 479 1326 l 1,2,-1
 394 882 l 1,3,-1
 1109 882 l 1,4,-1
 1073 712 l 1,5,-1
 359 712 l 1,6,-1
 255 167 l 1,7,-1
 1021 167 l 1,8,-1
 988 0 l 1,9,-1
 24 0 l 1,10,-1
 312 1493 l 1,11,-1
 1255 1493 l 1,0,-1
946 1635 m 1,12,-1
 793 1635 l 1,13,-1
 611 1903 l 1,14,-1
 804 1903 l 1,15,-1
 946 1635 l 1,12,-1
EndSplineSet
EndChar
StartChar: Iacute
Encoding: 205 205 204
Width: 604
VWidth: 3555
Flags: W
HStem: 0 21G<24 227.858> 1473 20G<308.142 512>
VStem: 24 722<0 1903>
Fore
512 1493 m 1,0,-1
 224 0 l 1,1,-1
 24 0 l 1,2,-1
 312 1493 l 1,3,-1
 512 1493 l 1,0,-1
746 1903 m 1,4,-1
 465 1635 l 1,5,-1
 316 1635 l 1,6,-1
 562 1903 l 1,7,-1
 746 1903 l 1,4,-1
EndSplineSet
EndChar
StartChar: Icircumflex
Encoding: 206 206 205
Width: 604
VWidth: 3555
Flags: W
HStem: 0 21G<24 227.858> 1473 20G<308.142 512>
VStem: 24 740<0 1635>
Fore
512 1493 m 1,0,-1
 224 0 l 1,1,-1
 24 0 l 1,2,-1
 312 1493 l 1,3,-1
 512 1493 l 1,0,-1
604 1906 m 1,4,-1
 764 1635 l 1,5,-1
 625 1635 l 1,6,-1
 491 1818 l 1,7,-1
 292 1635 l 1,8,-1
 153 1635 l 1,9,-1
 413 1906 l 1,10,-1
 604 1906 l 1,4,-1
EndSplineSet
EndChar
StartChar: Idieresis
Encoding: 207 207 206
Width: 604
VWidth: 3555
Flags: W
HStem: 0 21G<24 227.858> 1473 20G<308.142 512> 1672 198<207 366 597 760>
VStem: 24 776<0 1870>
Fore
512 1493 m 1,0,-1
 224 0 l 1,1,-1
 24 0 l 1,2,-1
 312 1493 l 1,3,-1
 512 1493 l 1,0,-1
800 1870 m 1,4,-1
 760 1672 l 1,5,-1
 559 1672 l 1,6,-1
 597 1870 l 1,7,-1
 800 1870 l 1,4,-1
404 1870 m 1,8,-1
 366 1672 l 1,9,-1
 167 1672 l 1,10,-1
 207 1870 l 1,11,-1
 404 1870 l 1,8,-1
EndSplineSet
EndChar
StartChar: Igrave
Encoding: 204 204 207
Width: 604
VWidth: 3555
Flags: W
HStem: 0 21G<24 227.858> 1473 20G<308.142 512>
VStem: 24 570<0 1635>
Fore
512 1493 m 1,0,-1
 224 0 l 1,1,-1
 24 0 l 1,2,-1
 312 1493 l 1,3,-1
 512 1493 l 1,0,-1
594 1635 m 1,4,-1
 441 1635 l 1,5,-1
 260 1903 l 1,6,-1
 451 1903 l 1,7,-1
 594 1635 l 1,4,-1
EndSplineSet
EndChar
StartChar: Oacute
Encoding: 211 211 208
Width: 1612
VWidth: 3555
Flags: W
HStem: -28 163<461.127 869.313> 1358 164<683.252 1087.83>
Fore
896 1358 m 0,0,1
 672 1358 672 1358 512 1193 c 128,-1,2
 352 1028 352 1028 295 746 c 0,3,4
 241 458 241 458 337.5 296.5 c 128,-1,5
 434 135 434 135 658 135 c 0,6,7
 875 135 875 135 1036.5 296.5 c 128,-1,8
 1198 458 1198 458 1252 746 c 0,9,10
 1309 1028 1309 1028 1211 1193 c 128,-1,11
 1113 1358 1113 1358 896 1358 c 0,0,1
929 1522 m 0,12,13
 1085 1522 1085 1522 1200.5 1466.5 c 128,-1,14
 1316 1411 1316 1411 1385.5 1309.5 c 128,-1,15
 1455 1208 1455 1208 1475.5 1066 c 128,-1,16
 1496 924 1496 924 1462 746 c 256,17,18
 1425 569 1425 569 1348.5 427 c 128,-1,19
 1272 285 1272 285 1163.5 183.5 c 128,-1,20
 1055 82 1055 82 919 27 c 128,-1,21
 783 -28 783 -28 625 -28 c 0,22,23
 312 -28 312 -28 156 181 c 0,24,25
 10 394 10 394 78 746 c 0,26,27
 149 1102 149 1102 377 1309 c 0,28,29
 611 1522 611 1522 929 1522 c 0,12,13
1238 1903 m 1,30,-1
 957 1635 l 1,31,-1
 807 1635 l 1,32,-1
 1052 1903 l 1,33,-1
 1238 1903 l 1,30,-1
EndSplineSet
EndChar
StartChar: Ocircumflex
Encoding: 212 212 209
Width: 1612
VWidth: 3555
Flags: W
HStem: -28 163<461.127 869.313> 1358 164<683.252 1087.83>
Fore
896 1358 m 0,0,1
 672 1358 672 1358 512 1193 c 128,-1,2
 352 1028 352 1028 295 746 c 0,3,4
 241 458 241 458 337.5 296.5 c 128,-1,5
 434 135 434 135 658 135 c 0,6,7
 875 135 875 135 1036.5 296.5 c 128,-1,8
 1198 458 1198 458 1252 746 c 0,9,10
 1309 1028 1309 1028 1211 1193 c 128,-1,11
 1113 1358 1113 1358 896 1358 c 0,0,1
929 1522 m 0,12,13
 1085 1522 1085 1522 1200.5 1466.5 c 128,-1,14
 1316 1411 1316 1411 1385.5 1309.5 c 128,-1,15
 1455 1208 1455 1208 1475.5 1066 c 128,-1,16
 1496 924 1496 924 1462 746 c 256,17,18
 1425 569 1425 569 1348.5 427 c 128,-1,19
 1272 285 1272 285 1163.5 183.5 c 128,-1,20
 1055 82 1055 82 919 27 c 128,-1,21
 783 -28 783 -28 625 -28 c 0,22,23
 312 -28 312 -28 156 181 c 0,24,25
 10 394 10 394 78 746 c 0,26,27
 149 1102 149 1102 377 1309 c 0,28,29
 611 1522 611 1522 929 1522 c 0,12,13
1095 1906 m 1,30,-1
 1255 1635 l 1,31,-1
 1116 1635 l 1,32,-1
 981 1818 l 1,33,-1
 783 1635 l 1,34,-1
 644 1635 l 1,35,-1
 903 1906 l 1,36,-1
 1095 1906 l 1,30,-1
EndSplineSet
EndChar
StartChar: Ograve
Encoding: 210 210 210
Width: 1612
VWidth: 3555
Flags: W
HStem: -28 163<461.127 869.313> 1358 164<683.252 1087.83>
Fore
896 1358 m 0,0,1
 672 1358 672 1358 512 1193 c 128,-1,2
 352 1028 352 1028 295 746 c 0,3,4
 241 458 241 458 337.5 296.5 c 128,-1,5
 434 135 434 135 658 135 c 0,6,7
 875 135 875 135 1036.5 296.5 c 128,-1,8
 1198 458 1198 458 1252 746 c 0,9,10
 1309 1028 1309 1028 1211 1193 c 128,-1,11
 1113 1358 1113 1358 896 1358 c 0,0,1
929 1522 m 0,12,13
 1085 1522 1085 1522 1200.5 1466.5 c 128,-1,14
 1316 1411 1316 1411 1385.5 1309.5 c 128,-1,15
 1455 1208 1455 1208 1475.5 1066 c 128,-1,16
 1496 924 1496 924 1462 746 c 256,17,18
 1425 569 1425 569 1348.5 427 c 128,-1,19
 1272 285 1272 285 1163.5 183.5 c 128,-1,20
 1055 82 1055 82 919 27 c 128,-1,21
 783 -28 783 -28 625 -28 c 0,22,23
 312 -28 312 -28 156 181 c 0,24,25
 10 394 10 394 78 746 c 0,26,27
 149 1102 149 1102 377 1309 c 0,28,29
 611 1522 611 1522 929 1522 c 0,12,13
1085 1635 m 1,30,-1
 932 1635 l 1,31,-1
 750 1903 l 1,32,-1
 943 1903 l 1,33,-1
 1085 1635 l 1,30,-1
EndSplineSet
EndChar
StartChar: Uacute
Encoding: 218 218 211
Width: 1499
VWidth: 3555
Flags: W
HStem: -28 163<400.005 811.681> 1473 20G<284.09 491 1227.11 1432>
Fore
491 1493 m 1,0,-1
 316 587 l 2,1,2
 267 349 267 349 335.5 242 c 128,-1,3
 404 135 404 135 597 135 c 0,4,5
 793 135 793 135 900 242 c 128,-1,6
 1007 349 1007 349 1055 587 c 2,7,-1
 1231 1493 l 1,8,-1
 1432 1493 l 1,9,-1
 1252 562 l 2,10,11
 1194 271 1194 271 1019.5 121.5 c 128,-1,12
 845 -28 845 -28 566 -28 c 256,13,14
 285 -28 285 -28 167.5 121.5 c 128,-1,15
 50 271 50 271 106 562 c 2,16,-1
 288 1493 l 1,17,-1
 491 1493 l 1,0,-1
1180 1903 m 1,18,-1
 899 1635 l 1,19,-1
 750 1635 l 1,20,-1
 995 1903 l 1,21,-1
 1180 1903 l 1,18,-1
EndSplineSet
EndChar
StartChar: Ucircumflex
Encoding: 219 219 212
Width: 1499
VWidth: 3555
Flags: W
HStem: -28 163<400.005 811.681> 1473 20G<284.09 491 1227.11 1432>
Fore
491 1493 m 1,0,-1
 316 587 l 2,1,2
 267 349 267 349 335.5 242 c 128,-1,3
 404 135 404 135 597 135 c 0,4,5
 793 135 793 135 900 242 c 128,-1,6
 1007 349 1007 349 1055 587 c 2,7,-1
 1231 1493 l 1,8,-1
 1432 1493 l 1,9,-1
 1252 562 l 2,10,11
 1194 271 1194 271 1019.5 121.5 c 128,-1,12
 845 -28 845 -28 566 -28 c 256,13,14
 285 -28 285 -28 167.5 121.5 c 128,-1,15
 50 271 50 271 106 562 c 2,16,-1
 288 1493 l 1,17,-1
 491 1493 l 1,0,-1
1038 1906 m 1,18,-1
 1198 1635 l 1,19,-1
 1059 1635 l 1,20,-1
 924 1818 l 1,21,-1
 726 1635 l 1,22,-1
 587 1635 l 1,23,-1
 845 1906 l 1,24,-1
 1038 1906 l 1,18,-1
EndSplineSet
EndChar
StartChar: Ugrave
Encoding: 217 217 213
Width: 1499
VWidth: 3555
Flags: W
HStem: -28 163<400.005 811.681> 1473 20G<284.09 491 1227.11 1432>
Fore
491 1493 m 1,0,-1
 316 587 l 2,1,2
 267 349 267 349 335.5 242 c 128,-1,3
 404 135 404 135 597 135 c 0,4,5
 793 135 793 135 900 242 c 128,-1,6
 1007 349 1007 349 1055 587 c 2,7,-1
 1231 1493 l 1,8,-1
 1432 1493 l 1,9,-1
 1252 562 l 2,10,11
 1194 271 1194 271 1019.5 121.5 c 128,-1,12
 845 -28 845 -28 566 -28 c 256,13,14
 285 -28 285 -28 167.5 121.5 c 128,-1,15
 50 271 50 271 106 562 c 2,16,-1
 288 1493 l 1,17,-1
 491 1493 l 1,0,-1
1028 1635 m 1,18,-1
 875 1635 l 1,19,-1
 693 1903 l 1,20,-1
 885 1903 l 1,21,-1
 1028 1635 l 1,18,-1
EndSplineSet
EndChar
StartChar: dotlessi
Encoding: 305 305 214
Width: 571
VWidth: 3555
Flags: W
HStem: 0 21G<17 203.875> 1100 20G<230.125 417>
VStem: 17 400<0 1120>
Fore
417 1120 m 1,0,-1
 200 0 l 1,1,-1
 17 0 l 1,2,-1
 234 1120 l 1,3,-1
 417 1120 l 1,0,-1
EndSplineSet
EndChar
StartChar: circumflex
Encoding: 710 710 215
Width: 1022
VWidth: 3555
Flags: W
HStem: 1262 377<726 899>
VStem: 264 635<1262 1262>
Fore
726 1639 m 1,0,-1
 899 1262 l 1,1,-1
 760 1262 l 1,2,-1
 625 1507 l 1,3,-1
 401 1262 l 1,4,-1
 264 1262 l 1,5,-1
 580 1639 l 1,6,-1
 726 1639 l 1,0,-1
EndSplineSet
EndChar
StartChar: tilde
Encoding: 732 732 216
Width: 1022
VWidth: 3555
Flags: W
HStem: 1312 127<679.533 808.052> 1465 129<423.954 556.016>
VStem: 260 714<1533 1594 1312 1594>
Fore
554 1429 m 1,0,1
 516 1465 516 1465 488 1465 c 0,2,3
 417 1465 417 1465 384 1312 c 1,4,-1
 260 1312 l 1,5,6
 312 1594 312 1594 509 1594 c 0,7,8
 583 1594 583 1594 634 1533 c 2,9,-1
 682 1476 l 2,10,11
 719 1439 719 1439 740 1439 c 0,12,13
 783 1439 783 1439 807.5 1474.5 c 128,-1,14
 832 1510 832 1510 849 1594 c 1,15,-1
 974 1594 l 1,16,17
 913 1312 913 1312 722 1312 c 0,18,19
 648 1312 648 1312 597 1373 c 2,20,-1
 554 1429 l 1,0,1
EndSplineSet
EndChar
StartChar: macron
Encoding: 175 175 217
Width: 1022
VWidth: 3555
Flags: W
HStem: 1380 149<330 903>
VStem: 302 630<1380 1529>
Fore
932 1529 m 1,0,-1
 903 1380 l 1,1,-1
 302 1380 l 1,2,-1
 330 1529 l 1,3,-1
 932 1529 l 1,0,-1
EndSplineSet
EndChar
StartChar: breve
Encoding: 728 728 218
Width: 1022
VWidth: 3555
Flags: W
HStem: 1323 135<483.135 767.62>
VStem: 330 121<1490.96 1608>
Fore
451 1608 m 1,0,1
 444 1458 444 1458 615 1458 c 0,2,3
 790 1458 790 1458 838 1608 c 1,4,-1
 960 1608 l 1,5,6
 885 1323 885 1323 590 1323 c 0,7,8
 299 1323 299 1323 330 1608 c 1,9,-1
 451 1608 l 1,0,1
EndSplineSet
EndChar
StartChar: dotaccent
Encoding: 729 729 219
Width: 1022
VWidth: 3555
Flags: W
HStem: 1351 203<529 696>
VStem: 491 245<1351 1554>
Fore
736 1554 m 1,0,-1
 696 1351 l 1,1,-1
 491 1351 l 1,2,-1
 529 1554 l 1,3,-1
 736 1554 l 1,0,-1
EndSplineSet
EndChar
StartChar: ring
Encoding: 730 730 220
Width: 1022
VWidth: 3555
Flags: W
HStem: 1248 125<501.584 716.578> 1679 123<545.724 760.695>
VStem: 356 547<1411 1417.5 1633.5 1639 1529 1529>
Fore
783 1529 m 0,0,1
 797 1588 797 1588 761.5 1633.5 c 128,-1,2
 726 1679 726 1679 658 1679 c 0,3,4
 594 1679 594 1679 544.5 1633.5 c 128,-1,5
 495 1588 495 1588 479 1529 c 0,6,7
 465 1462 465 1462 500.5 1417.5 c 128,-1,8
 536 1373 536 1373 601 1373 c 0,9,10
 668 1373 668 1373 717.5 1417.5 c 128,-1,11
 767 1462 767 1462 783 1529 c 0,0,1
903 1529 m 0,12,13
 882 1411 882 1411 785.5 1329.5 c 128,-1,14
 689 1248 689 1248 576 1248 c 0,15,16
 458 1248 458 1248 396.5 1329.5 c 128,-1,17
 335 1411 335 1411 356 1529 c 0,18,19
 377 1639 377 1639 471.5 1720.5 c 128,-1,20
 566 1802 566 1802 682 1802 c 0,21,22
 797 1802 797 1802 860.5 1720.5 c 128,-1,23
 924 1639 924 1639 903 1529 c 0,12,13
EndSplineSet
EndChar
StartChar: cedilla
Encoding: 184 184 221
Width: 1022
VWidth: 3555
Flags: W
HStem: -394 123<134.555 326.994> -20 20G<299 439>
VStem: 40 448<-238 -217 -373 -217>
Fore
420 0 m 1,0,1
 458 -64 458 -64 476.5 -115.5 c 128,-1,2
 495 -167 495 -167 488 -217 c 0,3,4
 448 -394 448 -394 214 -394 c 0,5,6
 163 -394 163 -394 122.5 -387 c 128,-1,7
 82 -380 82 -380 40 -373 c 1,8,-1
 64 -238 l 1,9,10
 95 -255 95 -255 131 -263 c 128,-1,11
 167 -271 167 -271 217 -271 c 0,12,13
 330 -271 330 -271 352 -177 c 0,14,15
 363 -125 363 -125 299 0 c 1,16,-1
 420 0 l 1,0,1
EndSplineSet
EndChar
StartChar: hungarumlaut
Encoding: 733 733 222
Width: 1022
VWidth: 3555
Flags: W
HStem: 1262 377<764 1085>
VStem: 306 779<1262 1639>
Fore
1085 1639 m 1,0,-1
 764 1262 l 1,1,-1
 628 1262 l 1,2,-1
 903 1639 l 1,3,-1
 1085 1639 l 1,0,-1
740 1639 m 1,4,-1
 444 1262 l 1,5,-1
 306 1262 l 1,6,-1
 573 1639 l 1,7,-1
 740 1639 l 1,4,-1
EndSplineSet
EndChar
StartChar: ogonek
Encoding: 731 731 223
Width: 1022
VWidth: 3555
Flags: W
HStem: -394 123<261.615 418.15> -20 20G<196 384>
VStem: 115 364<-275.816 -271 -241 -217>
Fore
384 0 m 1,0,1
 271 -125 271 -125 260 -177 c 0,2,3
 241 -271 241 -271 352 -271 c 0,4,5
 404 -271 404 -271 479 -241 c 1,6,-1
 455 -377 l 1,7,8
 413 -384 413 -384 379 -389 c 128,-1,9
 345 -394 345 -394 316 -394 c 0,10,11
 193 -394 193 -394 144 -351.5 c 128,-1,12
 95 -309 95 -309 115 -217 c 0,13,14
 128 -125 128 -125 264 0 c 1,15,-1
 384 0 l 1,0,1
EndSplineSet
EndChar
StartChar: caron
Encoding: 711 711 224
Width: 1022
VWidth: 3555
Flags: W
HStem: 1262 377<335 654>
VStem: 335 635<1639 1639>
Fore
335 1639 m 1,0,-1
 472 1639 l 1,1,-1
 604 1394 l 1,2,-1
 832 1639 l 1,3,-1
 970 1639 l 1,4,-1
 654 1262 l 1,5,-1
 509 1262 l 1,6,-1
 335 1639 l 1,0,-1
EndSplineSet
EndChar
StartChar: Lslash
Encoding: 321 321 225
Width: 1150
VWidth: 3555
Flags: W
HStem: 0 167<267 963> 1473 20G<319.158 523>
Fore
523 1493 m 1,0,-1
 404 878 l 1,1,-1
 764 1099 l 1,2,-1
 825 988 l 1,3,-1
 370 712 l 1,4,-1
 267 167 l 1,5,-1
 995 167 l 1,6,-1
 963 0 l 1,7,-1
 35 0 l 1,8,-1
 146 573 l 1,9,-1
 -24 465 l 1,10,-1
 -82 576 l 1,11,-1
 177 733 l 1,12,-1
 323 1493 l 1,13,-1
 523 1493 l 1,0,-1
EndSplineSet
EndChar
StartChar: lslash
Encoding: 322 322 226
Width: 581
VWidth: 3555
Flags: W
HStem: 0 21G<21 206.825>
VStem: -47 637<686 939>
Fore
505 1557 m 1,0,-1
 387 957 l 1,1,-1
 533 1049 l 1,2,-1
 590 939 l 1,3,-1
 356 800 l 1,4,-1
 203 0 l 1,5,-1
 21 0 l 1,6,-1
 149 665 l 1,7,-1
 10 580 l 1,8,-1
 -47 686 l 1,9,-1
 181 828 l 1,10,-1
 323 1557 l 1,11,-1
 505 1557 l 1,0,-1
EndSplineSet
EndChar
StartChar: Scaron
Encoding: 352 352 227
Width: 1300
VWidth: 3555
Flags: W
HStem: -28 163<279.265 698.084> 1358 164<536.904 950.333>
Fore
1163 1248 m 1,0,1
 953 1358 953 1358 771 1358 c 0,2,3
 601 1358 601 1358 499.5 1294.5 c 128,-1,4
 398 1231 398 1231 373 1113 c 0,5,6
 356 1010 356 1010 405.5 960 c 128,-1,7
 455 910 455 910 615 878 c 2,8,-1
 733 854 l 2,9,10
 953 814 953 814 1038 705.5 c 128,-1,11
 1123 597 1123 597 1088 413 c 0,12,13
 1045 196 1045 196 878.5 84 c 128,-1,14
 712 -28 712 -28 431 -28 c 0,15,16
 323 -28 323 -28 209 -5.5 c 128,-1,17
 95 17 95 17 -24 68 c 1,18,-1
 14 274 l 1,19,20
 125 207 125 207 237 171 c 128,-1,21
 349 135 349 135 462 135 c 0,22,23
 634 135 634 135 741.5 203 c 128,-1,24
 849 271 849 271 875 394 c 0,25,26
 896 509 896 509 839.5 568.5 c 128,-1,27
 783 628 783 628 641 661 c 2,28,-1
 519 689 l 2,29,30
 299 733 299 733 217 828.5 c 128,-1,31
 135 924 135 924 167 1095 c 0,32,33
 207 1299 207 1299 368 1410.5 c 128,-1,34
 529 1522 529 1522 774 1522 c 0,35,36
 882 1522 882 1522 987 1502.5 c 128,-1,37
 1092 1483 1092 1483 1201 1448 c 1,38,-1
 1163 1248 l 1,0,1
540 1906 m 1,39,-1
 679 1906 l 1,40,-1
 807 1724 l 1,41,-1
 1014 1906 l 1,42,-1
 1153 1906 l 1,43,-1
 885 1635 l 1,44,-1
 693 1635 l 1,45,-1
 540 1906 l 1,39,-1
EndSplineSet
EndChar
StartChar: scaron
Encoding: 353 353 228
Width: 1069
VWidth: 3555
Flags: W
HStem: -28 153<110.418 556.631> 991 153<366.143 708.371>
Fore
906 917 m 1,0,1
 838 957 838 957 756.5 974 c 128,-1,2
 675 991 675 991 587 991 c 0,3,4
 309 991 309 991 278 828 c 0,5,6
 264 760 264 760 306.5 724.5 c 128,-1,7
 349 689 349 689 488 654 c 2,8,-1
 550 641 l 2,9,10
 743 601 743 601 810.5 524.5 c 128,-1,11
 878 448 878 448 849 309 c 0,12,13
 821 149 821 149 678.5 60.5 c 128,-1,14
 536 -28 536 -28 319 -28 c 0,15,16
 139 -28 139 -28 -61 40 c 1,17,-1
 -24 231 l 1,18,19
 163 125 163 125 352 125 c 0,20,21
 479 125 479 125 560 171 c 128,-1,22
 641 217 641 217 658 295 c 0,23,24
 672 370 672 370 629.5 410.5 c 128,-1,25
 587 451 587 451 420 488 c 2,26,-1
 363 502 l 2,27,28
 193 536 193 536 134 612.5 c 128,-1,29
 75 689 75 689 99 821 c 0,30,31
 132 981 132 981 259.5 1062.5 c 128,-1,32
 387 1144 387 1144 594 1144 c 0,33,34
 693 1144 693 1144 780.5 1132 c 128,-1,35
 868 1120 868 1120 939 1088 c 1,36,-1
 906 917 l 1,0,1
356 1639 m 1,37,-1
 495 1639 l 1,38,-1
 625 1394 l 1,39,-1
 854 1639 l 1,40,-1
 991 1639 l 1,41,-1
 675 1262 l 1,42,-1
 529 1262 l 1,43,-1
 356 1639 l 1,37,-1
EndSplineSet
EndChar
StartChar: Zcaron
Encoding: 381 381 229
Width: 1407
VWidth: 3555
Flags: W
HStem: 0 167<200 1134> 1326 167<224 1113>
Fore
1401 1493 m 1,0,-1
 1373 1340 l 1,1,-1
 200 167 l 1,2,-1
 1167 167 l 1,3,-1
 1134 0 l 1,4,-1
 -85 0 l 1,5,-1
 -57 153 l 1,6,-1
 1113 1326 l 1,7,-1
 193 1326 l 1,8,-1
 224 1493 l 1,9,-1
 1401 1493 l 1,0,-1
594 1906 m 1,10,-1
 733 1906 l 1,11,-1
 861 1724 l 1,12,-1
 1066 1906 l 1,13,-1
 1205 1906 l 1,14,-1
 939 1635 l 1,15,-1
 746 1635 l 1,16,-1
 594 1906 l 1,10,-1
EndSplineSet
EndChar
StartChar: zcaron
Encoding: 382 382 230
Width: 1076
VWidth: 3555
Flags: W
HStem: 0 146<142 811> 974 146<153 790>
Fore
1028 1120 m 1,0,-1
 995 953 l 1,1,-1
 142 146 l 1,2,-1
 835 146 l 1,3,-1
 811 0 l 1,4,-1
 -89 0 l 1,5,-1
 -57 167 l 1,6,-1
 790 974 l 1,7,-1
 125 974 l 1,8,-1
 153 1120 l 1,9,-1
 1028 1120 l 1,0,-1
359 1639 m 1,10,-1
 498 1639 l 1,11,-1
 628 1394 l 1,12,-1
 858 1639 l 1,13,-1
 995 1639 l 1,14,-1
 679 1262 l 1,15,-1
 533 1262 l 1,16,-1
 359 1639 l 1,10,-1
EndSplineSet
EndChar
StartChar: brokenbar
Encoding: 166 166 231
Width: 689
VWidth: 3555
Flags: W
VStem: 10 523<-352 1436>
Fore
184 -352 m 1,0,-1
 10 -352 l 1,1,-1
 160 404 l 1,2,-1
 335 404 l 1,3,-1
 184 -352 l 1,0,-1
384 675 m 1,4,-1
 210 675 l 1,5,-1
 359 1436 l 1,6,-1
 533 1436 l 1,7,-1
 384 675 l 1,4,-1
EndSplineSet
EndChar
StartChar: Eth
Encoding: 208 208 232
Width: 1588
VWidth: 3555
Flags: W
HStem: 0 163<264 808.081> 700 145<-3 170 398 708> 1330 163<491 1025.48>
Fore
736 1493 m 2,0,1
 1177 1493 1177 1493 1343.5 1315 c 128,-1,2
 1510 1137 1510 1137 1436 750 c 0,3,4
 1358 363 1358 363 1121.5 181.5 c 128,-1,5
 885 0 885 0 448 0 c 2,6,-1
 35 0 l 1,7,-1
 170 700 l 1,8,-1
 -31 700 l 1,9,-1
 -3 845 l 1,10,-1
 200 845 l 1,11,-1
 323 1493 l 1,12,-1
 736 1493 l 2,0,1
398 845 m 1,13,-1
 736 845 l 1,14,-1
 708 700 l 1,15,-1
 370 700 l 1,16,-1
 264 163 l 1,17,-1
 509 163 l 2,18,19
 821 163 821 163 992 305.5 c 128,-1,20
 1163 448 1163 448 1224 750 c 0,21,22
 1279 1052 1279 1052 1164 1191 c 128,-1,23
 1049 1330 1049 1330 736 1330 c 2,24,-1
 491 1330 l 1,25,-1
 398 845 l 1,13,-1
EndSplineSet
EndChar
StartChar: eth
Encoding: 240 240 233
Width: 1253
VWidth: 3555
Flags: W
HStem: -28 156<313.128 643.488> 950 149<473.339 715.035> 1502 20G<1049.46 1119.01>
Fore
838 917 m 1,0,1
 790 936 790 936 747.5 943 c 128,-1,2
 705 950 705 950 661 950 c 0,3,4
 498 950 498 950 386 841.5 c 128,-1,5
 274 733 274 733 234 536 c 0,6,7
 196 345 196 345 257.5 236.5 c 128,-1,8
 319 128 319 128 469 128 c 256,9,10
 618 128 618 128 726.5 236.5 c 128,-1,11
 835 345 835 345 875 536 c 0,12,13
 899 658 899 658 888.5 751.5 c 128,-1,14
 878 845 878 845 838 917 c 1,0,1
946 1141 m 1,15,16
 1045 998 1045 998 1072 855 c 128,-1,17
 1099 712 1099 712 1066 536 c 0,18,19
 1042 410 1042 410 985.5 305 c 128,-1,20
 929 200 929 200 844.5 127 c 128,-1,21
 760 54 760 54 659.5 13 c 128,-1,22
 559 -28 559 -28 441 -28 c 0,23,24
 207 -28 207 -28 98.5 126.5 c 128,-1,25
 -10 281 -10 281 40 536 c 0,26,27
 64 661 64 661 119 764.5 c 128,-1,28
 174 868 174 868 254.5 942.5 c 128,-1,29
 335 1017 335 1017 435.5 1058 c 128,-1,30
 536 1099 536 1099 648 1099 c 0,31,32
 665 1099 665 1099 690 1097 c 128,-1,33
 715 1095 715 1095 753 1088 c 1,34,-1
 634 1269 l 1,35,-1
 292 1163 l 1,36,-1
 281 1262 l 1,37,-1
 580 1354 l 1,38,-1
 437 1557 l 1,39,-1
 661 1557 l 1,40,-1
 760 1415 l 1,41,-1
 1116 1522 l 1,42,-1
 1130 1429 l 1,43,-1
 818 1330 l 1,44,-1
 946 1141 l 1,15,16
EndSplineSet
EndChar
StartChar: Yacute
Encoding: 221 221 234
Width: 1249
VWidth: 3555
Flags: W
HStem: 0 21G<345 553.82> 1473 20G<106 332.594 1135.6 1364>
Fore
323 1493 m 1,0,-1
 618 878 l 1,1,-1
 1153 1493 l 1,2,-1
 1364 1493 l 1,3,-1
 686 712 l 1,4,-1
 550 0 l 1,5,-1
 345 0 l 1,6,-1
 479 712 l 1,7,-1
 106 1493 l 1,8,-1
 323 1493 l 1,0,-1
1055 1903 m 1,9,-1
 774 1635 l 1,10,-1
 625 1635 l 1,11,-1
 871 1903 l 1,12,-1
 1055 1903 l 1,9,-1
EndSplineSet
EndChar
StartChar: yacute
Encoding: 253 253 235
Width: 1215
VWidth: 3555
Flags: W
HStem: -431 160<-71 107.545> 1100 20G<102 299.137 983.137 1191>
Fore
458 -102 m 1,0,1
 401 -203 401 -203 353.5 -266.5 c 128,-1,2
 306 -330 306 -330 258 -365.5 c 128,-1,3
 210 -401 210 -401 159.5 -416 c 128,-1,4
 109 -431 109 -431 47 -431 c 2,5,-1
 -102 -431 l 1,6,-1
 -71 -271 l 1,7,-1
 40 -271 l 2,8,9
 78 -271 78 -271 108.5 -265.5 c 128,-1,10
 139 -260 139 -260 167.5 -238.5 c 128,-1,11
 196 -217 196 -217 224 -176 c 128,-1,12
 252 -135 252 -135 288 -68 c 2,13,-1
 339 17 l 1,14,-1
 102 1120 l 1,15,-1
 295 1120 l 1,16,-1
 476 245 l 1,17,-1
 995 1120 l 1,18,-1
 1191 1120 l 1,19,-1
 458 -102 l 1,0,1
1085 1639 m 1,20,-1
 686 1262 l 1,21,-1
 536 1262 l 1,22,-1
 885 1639 l 1,23,-1
 1085 1639 l 1,20,-1
EndSplineSet
EndChar
StartChar: Thorn
Encoding: 222 222 236
Width: 1239
VWidth: 3555
Flags: W
HStem: 0 21G<24 227.776> 339 166<319 762.429> 1066 165<462 860.854> 1473 20G<308.142 512>
Fore
512 1493 m 1,0,-1
 462 1231 l 1,1,-1
 719 1231 l 2,2,3
 1224 1231 1224 1231 1137 783 c 0,4,5
 1099 566 1099 566 946 452.5 c 128,-1,6
 793 339 793 339 543 339 c 2,7,-1
 288 339 l 1,8,-1
 224 0 l 1,9,-1
 24 0 l 1,10,-1
 312 1493 l 1,11,-1
 512 1493 l 1,0,-1
319 505 m 1,12,-1
 576 505 l 2,13,14
 719 505 719 505 809 578 c 128,-1,15
 899 651 899 651 924 783 c 0,16,17
 977 1066 977 1066 686 1066 c 2,18,-1
 431 1066 l 1,19,-1
 319 505 l 1,12,-1
EndSplineSet
EndChar
StartChar: thorn
Encoding: 254 254 237
Width: 1300
VWidth: 3555
Flags: W
HStem: -431 21G<-75 112.946> -28 153<380.623 695.26> 991 153<557.213 850.241>
Fore
109 -431 m 1,0,-1
 -75 -431 l 1,1,-1
 312 1557 l 1,2,-1
 498 1557 l 1,3,-1
 380 953 l 1,4,5
 526 1144 526 1144 771 1144 c 0,6,7
 977 1144 977 1144 1073.5 986 c 128,-1,8
 1170 828 1170 828 1120 562 c 0,9,10
 1095 431 1095 431 1039.5 320.5 c 128,-1,11
 984 210 984 210 908 133.5 c 128,-1,12
 832 57 832 57 740 14.5 c 128,-1,13
 648 -28 648 -28 543 -28 c 0,14,15
 302 -28 302 -28 227 167 c 1,16,-1
 109 -431 l 1,0,-1
924 562 m 0,17,18
 963 764 963 764 906 877.5 c 128,-1,19
 849 991 849 991 700 991 c 256,20,21
 550 991 550 991 446 877.5 c 128,-1,22
 342 764 342 764 302 562 c 0,23,24
 264 356 264 356 322 240.5 c 128,-1,25
 380 125 380 125 529 125 c 256,26,27
 679 125 679 125 782 240.5 c 128,-1,28
 885 356 885 356 924 562 c 0,17,18
EndSplineSet
EndChar
StartChar: minus
Encoding: 8722 8722 238
Width: 1716
VWidth: 3555
Flags: W
HStem: 559 170<181 1429>
Fore
1462 729 m 1,0,-1
 1429 559 l 1,1,-1
 149 559 l 1,2,-1
 181 729 l 1,3,-1
 1462 729 l 1,0,-1
EndSplineSet
EndChar
StartChar: multiply
Encoding: 215 215 239
Width: 1716
VWidth: 3555
Flags: W
Fore
924 641 m 1,0,-1
 1299 184 l 1,1,-1
 1153 64 l 1,2,-1
 779 523 l 1,3,-1
 231 64 l 1,4,-1
 139 184 l 1,5,-1
 682 641 l 1,6,-1
 316 1102 l 1,7,-1
 455 1224 l 1,8,-1
 825 760 l 1,9,-1
 1377 1224 l 1,10,-1
 1476 1102 l 1,11,-1
 924 641 l 1,0,-1
EndSplineSet
EndChar
StartChar: onesuperior
Encoding: 185 185 240
Width: 824
VWidth: 3555
Flags: W
HStem: 668 111<125 335 476 661> 1483 20G<358.211 618>
VStem: 102 580<668 779>
Fore
335 779 m 1,0,-1
 455 1391 l 1,1,-1
 220 1351 l 1,2,-1
 245 1465 l 1,3,-1
 484 1503 l 1,4,-1
 618 1503 l 1,5,-1
 476 779 l 1,6,-1
 682 779 l 1,7,-1
 661 668 l 1,8,-1
 102 668 l 1,9,-1
 125 779 l 1,10,-1
 335 779 l 1,0,-1
EndSplineSet
EndChar
StartChar: twosuperior
Encoding: 178 178 241
Width: 824
VWidth: 3555
Flags: W
HStem: 668 115<238 644> 1415 107<394.719 571.788>
VStem: 47 713<668 1283>
Fore
665 783 m 1,0,-1
 644 668 l 1,1,-1
 47 668 l 1,2,-1
 68 779 l 1,3,4
 85 797 85 797 113.5 816 c 128,-1,5
 142 835 142 835 181 865 c 0,6,7
 580 1170 580 1170 601 1266 c 0,8,9
 615 1333 615 1333 572 1374 c 128,-1,10
 529 1415 529 1415 444 1415 c 0,11,12
 391 1415 391 1415 325.5 1396 c 128,-1,13
 260 1377 260 1377 181 1344 c 1,14,-1
 207 1465 l 1,15,16
 288 1493 288 1493 359.5 1507.5 c 128,-1,17
 431 1522 431 1522 488 1522 c 0,18,19
 628 1522 628 1522 703.5 1454.5 c 128,-1,20
 779 1387 779 1387 760 1283 c 0,21,22
 729 1134 729 1134 342 858 c 0,23,24
 309 832 309 832 282 814.5 c 128,-1,25
 255 797 255 797 238 783 c 1,26,-1
 665 783 l 1,0,-1
EndSplineSet
EndChar
StartChar: threesuperior
Encoding: 179 179 242
Width: 824
VWidth: 3555
Flags: W
HStem: 654 106<159.632 482.925> 1062 112<309 537.288> 1373 21G<220.717 259.5> 1415 107<395.076 589.158>
VStem: 57 714<696 1305>
Fore
562 1120 m 1,0,1
 746 1082 746 1082 715 910 c 0,2,3
 689 786 689 786 580.5 720 c 128,-1,4
 472 654 472 654 299 654 c 0,5,6
 181 654 181 654 57 696 c 1,7,-1
 78 818 l 1,8,9
 125 786 125 786 181.5 773 c 128,-1,10
 238 760 238 760 306 760 c 0,11,12
 417 760 417 760 482 801 c 128,-1,13
 547 842 547 842 562 910 c 0,14,15
 594 1062 594 1062 377 1062 c 2,16,-1
 288 1062 l 1,17,-1
 309 1174 l 1,18,-1
 404 1174 l 2,19,20
 594 1174 594 1174 615 1299 c 0,21,22
 625 1351 625 1351 584 1383 c 128,-1,23
 543 1415 543 1415 448 1415 c 0,24,25
 410 1415 410 1415 356 1404.5 c 128,-1,26
 302 1394 302 1394 217 1373 c 1,27,-1
 238 1486 l 1,28,29
 316 1503 316 1503 382 1512.5 c 128,-1,30
 448 1522 448 1522 498 1522 c 0,31,32
 648 1522 648 1522 719 1461.5 c 128,-1,33
 790 1401 790 1401 771 1305 c 0,34,35
 743 1160 743 1160 562 1120 c 1,0,1
EndSplineSet
EndChar
StartChar: onequarter
Encoding: 188 188 243
Width: 1985
VWidth: 3555
Flags: W
HStem: -28 21G<274 446.886> 200 109<1212 1500 1668 1781> 668 111<125 335 476 661> 1483 20G<358.211 618>
Fore
335 779 m 1,0,-1
 455 1391 l 1,1,-1
 220 1351 l 1,2,-1
 245 1465 l 1,3,-1
 484 1503 l 1,4,-1
 618 1503 l 1,5,-1
 476 779 l 1,6,-1
 682 779 l 1,7,-1
 661 668 l 1,8,-1
 102 668 l 1,9,-1
 125 779 l 1,10,-1
 335 779 l 1,0,-1
1628 1479 m 1,11,-1
 431 -28 l 1,12,-1
 274 -28 l 1,13,-1
 1472 1479 l 1,14,-1
 1628 1479 l 1,11,-1
1212 309 m 1,15,-1
 1522 309 l 1,16,-1
 1604 729 l 1,17,-1
 1212 309 l 1,15,-1
1774 849 m 1,18,-1
 1668 309 l 1,19,-1
 1802 309 l 1,20,-1
 1781 200 l 1,21,-1
 1646 200 l 1,22,-1
 1611 14 l 1,23,-1
 1465 14 l 1,24,-1
 1500 200 l 1,25,-1
 1088 200 l 1,26,-1
 1113 323 l 1,27,-1
 1611 849 l 1,28,-1
 1774 849 l 1,18,-1
EndSplineSet
Ligature2: "'frac' Diagonal Fractions in Latin lookup 0 subtable" one fraction four
Ligature2: "'frac' Diagonal Fractions in Latin lookup 0 subtable" one slash four
EndChar
StartChar: onehalf
Encoding: 189 189 244
Width: 1985
VWidth: 3555
Flags: W
HStem: -28 21G<274 446.886> 14 114<1276 1682> 668 111<125 335 476 661> 760 108<1434.17 1610.57> 1483 20G<358.211 618>
Fore
335 779 m 1,0,-1
 455 1391 l 1,1,-1
 220 1351 l 1,2,-1
 245 1465 l 1,3,-1
 484 1503 l 1,4,-1
 618 1503 l 1,5,-1
 476 779 l 1,6,-1
 682 779 l 1,7,-1
 661 668 l 1,8,-1
 102 668 l 1,9,-1
 125 779 l 1,10,-1
 335 779 l 1,0,-1
1628 1479 m 1,11,-1
 431 -28 l 1,12,-1
 274 -28 l 1,13,-1
 1472 1479 l 1,14,-1
 1628 1479 l 1,11,-1
1703 128 m 1,15,-1
 1682 14 l 1,16,-1
 1085 14 l 1,17,-1
 1106 125 l 1,18,19
 1123 142 1123 142 1151.5 161.5 c 128,-1,20
 1180 181 1180 181 1219 210 c 0,21,22
 1625 523 1625 523 1639 611 c 0,23,24
 1653 679 1653 679 1610.5 719.5 c 128,-1,25
 1568 760 1568 760 1483 760 c 0,26,27
 1429 760 1429 760 1365.5 741 c 128,-1,28
 1302 722 1302 722 1219 689 c 1,29,-1
 1245 811 l 1,30,31
 1326 838 1326 838 1397.5 853 c 128,-1,32
 1469 868 1469 868 1526 868 c 0,33,34
 1668 868 1668 868 1743 800.5 c 128,-1,35
 1818 733 1818 733 1798 628 c 0,36,37
 1774 488 1774 488 1384 203 c 0,38,39
 1316 156 1316 156 1276 128 c 1,40,-1
 1703 128 l 1,15,-1
EndSplineSet
Ligature2: "'frac' Diagonal Fractions in Latin lookup 0 subtable" one fraction two
Ligature2: "'frac' Diagonal Fractions in Latin lookup 0 subtable" one slash two
EndChar
StartChar: threequarters
Encoding: 190 190 245
Width: 1985
VWidth: 3555
Flags: W
HStem: -28 21G<274 446.886> 200 109<1212 1500 1668 1781> 654 106<159.632 482.925> 1062 112<309 537.288> 1373 21G<220.717 259.5> 1415 107<395.076 589.158>
Fore
562 1120 m 1,0,1
 746 1082 746 1082 715 910 c 0,2,3
 689 786 689 786 580.5 720 c 128,-1,4
 472 654 472 654 299 654 c 0,5,6
 181 654 181 654 57 696 c 1,7,-1
 78 818 l 1,8,9
 125 786 125 786 181.5 773 c 128,-1,10
 238 760 238 760 306 760 c 0,11,12
 417 760 417 760 482 801 c 128,-1,13
 547 842 547 842 562 910 c 0,14,15
 594 1062 594 1062 377 1062 c 2,16,-1
 288 1062 l 1,17,-1
 309 1174 l 1,18,-1
 404 1174 l 2,19,20
 594 1174 594 1174 615 1299 c 0,21,22
 625 1351 625 1351 584 1383 c 128,-1,23
 543 1415 543 1415 448 1415 c 0,24,25
 410 1415 410 1415 356 1404.5 c 128,-1,26
 302 1394 302 1394 217 1373 c 1,27,-1
 238 1486 l 1,28,29
 316 1503 316 1503 382 1512.5 c 128,-1,30
 448 1522 448 1522 498 1522 c 0,31,32
 648 1522 648 1522 719 1461.5 c 128,-1,33
 790 1401 790 1401 771 1305 c 0,34,35
 743 1160 743 1160 562 1120 c 1,0,1
1628 1479 m 1,36,-1
 431 -28 l 1,37,-1
 274 -28 l 1,38,-1
 1472 1479 l 1,39,-1
 1628 1479 l 1,36,-1
1212 309 m 1,40,-1
 1522 309 l 1,41,-1
 1604 729 l 1,42,-1
 1212 309 l 1,40,-1
1774 849 m 1,43,-1
 1668 309 l 1,44,-1
 1802 309 l 1,45,-1
 1781 200 l 1,46,-1
 1646 200 l 1,47,-1
 1611 14 l 1,48,-1
 1465 14 l 1,49,-1
 1500 200 l 1,50,-1
 1088 200 l 1,51,-1
 1113 323 l 1,52,-1
 1611 849 l 1,53,-1
 1774 849 l 1,43,-1
EndSplineSet
Ligature2: "'frac' Diagonal Fractions in Latin lookup 0 subtable" three fraction four
Ligature2: "'frac' Diagonal Fractions in Latin lookup 0 subtable" three slash four
EndChar
StartChar: Gbreve
Encoding: 286 286 246
Width: 1588
VWidth: 3555
Flags: W
HStem: -28 167<482.252 915.549> 615 164<861 1160> 1354 168<702.437 1212.07> 1663 132<816.805 1115.6>
VStem: 672 121<1823.42 1906>
Fore
1160 615 m 1,0,-1
 828 615 l 1,1,-1
 861 779 l 1,2,-1
 1394 779 l 1,3,-1
 1269 139 l 1,4,5
 1134 54 1134 54 984.5 13 c 128,-1,6
 835 -28 835 -28 675 -28 c 0,7,8
 323 -28 323 -28 165 176 c 128,-1,9
 7 380 7 380 78 746 c 256,10,11
 149 1113 149 1113 388.5 1317.5 c 128,-1,12
 628 1522 628 1522 977 1522 c 0,13,14
 1279 1522 1279 1522 1469 1380 c 1,15,-1
 1425 1167 l 1,16,17
 1245 1354 1245 1354 963 1354 c 0,18,19
 417 1354 417 1354 295 746 c 0,20,21
 177 139 177 139 726 139 c 0,22,23
 832 139 832 139 919.5 154.5 c 128,-1,24
 1007 170 1007 170 1082 214 c 1,25,-1
 1160 615 l 1,0,-1
793 1906 m 1,26,27
 793 1795 793 1795 963 1795 c 0,28,29
 1049 1795 1049 1795 1101 1820 c 128,-1,30
 1153 1845 1153 1845 1180 1906 c 1,31,-1
 1302 1906 l 1,32,33
 1266 1785 1266 1785 1172 1724 c 128,-1,34
 1078 1663 1078 1663 936 1663 c 0,35,36
 644 1663 644 1663 672 1906 c 1,37,-1
 793 1906 l 1,26,27
EndSplineSet
EndChar
StartChar: gbreve
Encoding: 287 287 247
Width: 1300
VWidth: 3555
Flags: W
HStem: -431 157<242.555 548.646> 0 153<314.366 603.89> 991 153<458.554 780.57> 1323 135<621.871 906.518>
VStem: 469 121<1490.96 1608>
Fore
865 576 m 0,0,1
 903 771 903 771 841 881 c 128,-1,2
 779 991 779 991 628 991 c 256,3,4
 479 991 479 991 376.5 881 c 128,-1,5
 274 771 274 771 234 576 c 0,6,7
 196 373 196 373 256 263 c 128,-1,8
 316 153 316 153 465 153 c 256,9,10
 615 153 615 153 720 263 c 128,-1,11
 825 373 825 373 865 576 c 0,0,1
963 139 m 1,12,13
 854 -431 854 -431 339 -431 c 0,14,15
 238 -431 238 -431 158 -412.5 c 128,-1,16
 78 -394 78 -394 -3 -370 c 1,17,-1
 31 -189 l 1,18,19
 106 -231 106 -231 180.5 -252.5 c 128,-1,20
 255 -274 255 -274 342 -274 c 0,21,22
 696 -274 696 -274 771 106 c 2,23,-1
 790 200 l 1,24,25
 641 0 641 0 394 0 c 0,26,27
 189 0 189 0 93 158 c 128,-1,28
 -3 316 -3 316 47 576 c 0,29,30
 71 705 71 705 124 809 c 128,-1,31
 177 913 177 913 251.5 987.5 c 128,-1,32
 326 1062 326 1062 419 1103 c 128,-1,33
 512 1144 512 1144 615 1144 c 0,34,35
 868 1144 868 1144 939 953 c 1,36,-1
 970 1120 l 1,37,-1
 1156 1120 l 1,38,-1
 963 139 l 1,12,13
590 1608 m 1,39,40
 583 1458 583 1458 753 1458 c 0,41,42
 929 1458 929 1458 977 1608 c 1,43,-1
 1099 1608 l 1,44,45
 1024 1323 1024 1323 729 1323 c 0,46,47
 437 1323 437 1323 469 1608 c 1,48,-1
 590 1608 l 1,39,40
EndSplineSet
EndChar
StartChar: Idotaccent
Encoding: 304 304 248
Width: 604
VWidth: 3555
Flags: W
HStem: 0 21G<24 227.858> 1473 20G<308.142 512> 1672 201<398 566>
VStem: 24 580<0 1873>
Fore
512 1493 m 1,0,-1
 224 0 l 1,1,-1
 24 0 l 1,2,-1
 312 1493 l 1,3,-1
 512 1493 l 1,0,-1
604 1873 m 1,4,-1
 566 1672 l 1,5,-1
 359 1672 l 1,6,-1
 398 1873 l 1,7,-1
 604 1873 l 1,4,-1
EndSplineSet
EndChar
StartChar: Scedilla
Encoding: 350 350 249
Width: 1300
VWidth: 3555
Flags: W
HStem: -394 123<273.34 468.484> -28 28<437 457.092> 1358 164<536.904 950.333>
Fore
1163 1248 m 1,0,1
 953 1358 953 1358 771 1358 c 0,2,3
 601 1358 601 1358 499.5 1294.5 c 128,-1,4
 398 1231 398 1231 373 1113 c 0,5,6
 356 1010 356 1010 405.5 960 c 128,-1,7
 455 910 455 910 615 878 c 2,8,-1
 733 854 l 2,9,10
 953 814 953 814 1038 705.5 c 128,-1,11
 1123 597 1123 597 1088 413 c 0,12,13
 1045 196 1045 196 878.5 84 c 128,-1,14
 712 -28 712 -28 431 -28 c 0,15,16
 323 -28 323 -28 209 -5.5 c 128,-1,17
 95 17 95 17 -24 68 c 1,18,-1
 14 274 l 1,19,20
 125 207 125 207 237 171 c 128,-1,21
 349 135 349 135 462 135 c 0,22,23
 634 135 634 135 741.5 203 c 128,-1,24
 849 271 849 271 875 394 c 0,25,26
 896 509 896 509 839.5 568.5 c 128,-1,27
 783 628 783 628 641 661 c 2,28,-1
 519 689 l 2,29,30
 299 733 299 733 217 828.5 c 128,-1,31
 135 924 135 924 167 1095 c 0,32,33
 207 1299 207 1299 368 1410.5 c 128,-1,34
 529 1522 529 1522 774 1522 c 0,35,36
 882 1522 882 1522 987 1502.5 c 128,-1,37
 1092 1483 1092 1483 1201 1448 c 1,38,-1
 1163 1248 l 1,0,1
559 0 m 1,39,40
 597 -64 597 -64 615.5 -115.5 c 128,-1,41
 634 -167 634 -167 625 -217 c 0,42,43
 587 -394 587 -394 352 -394 c 0,44,45
 302 -394 302 -394 261 -387 c 128,-1,46
 220 -380 220 -380 177 -373 c 1,47,-1
 203 -238 l 1,48,49
 234 -255 234 -255 270 -263 c 128,-1,50
 306 -271 306 -271 356 -271 c 0,51,52
 469 -271 469 -271 491 -177 c 0,53,54
 502 -125 502 -125 437 0 c 1,55,-1
 559 0 l 1,39,40
EndSplineSet
EndChar
StartChar: scedilla
Encoding: 351 351 250
Width: 1069
VWidth: 3555
Flags: W
HStem: -394 123<156.024 350.778> -28 28<319 339.18> 991 153<366.143 708.371>
VStem: -61 1000<40 1088>
Fore
906 917 m 1,0,1
 838 957 838 957 756.5 974 c 128,-1,2
 675 991 675 991 587 991 c 0,3,4
 309 991 309 991 278 828 c 0,5,6
 264 760 264 760 306.5 724.5 c 128,-1,7
 349 689 349 689 488 654 c 2,8,-1
 550 641 l 2,9,10
 743 601 743 601 810.5 524.5 c 128,-1,11
 878 448 878 448 849 309 c 0,12,13
 821 149 821 149 678.5 60.5 c 128,-1,14
 536 -28 536 -28 319 -28 c 0,15,16
 139 -28 139 -28 -61 40 c 1,17,-1
 -24 231 l 1,18,19
 163 125 163 125 352 125 c 0,20,21
 479 125 479 125 560 171 c 128,-1,22
 641 217 641 217 658 295 c 0,23,24
 672 370 672 370 629.5 410.5 c 128,-1,25
 587 451 587 451 420 488 c 2,26,-1
 363 502 l 2,27,28
 193 536 193 536 134 612.5 c 128,-1,29
 75 689 75 689 99 821 c 0,30,31
 132 981 132 981 259.5 1062.5 c 128,-1,32
 387 1144 387 1144 594 1144 c 0,33,34
 693 1144 693 1144 780.5 1132 c 128,-1,35
 868 1120 868 1120 939 1088 c 1,36,-1
 906 917 l 1,0,1
441 0 m 1,37,38
 479 -64 479 -64 497.5 -115.5 c 128,-1,39
 516 -167 516 -167 509 -217 c 0,40,41
 469 -394 469 -394 234 -394 c 0,42,43
 184 -394 184 -394 143 -387 c 128,-1,44
 61 -373 l 1,45,-1
 85 -238 l 1,46,47
 118 -255 118 -255 153.5 -263 c 128,-1,48
 189 -271 189 -271 238 -271 c 0,49,50
 352 -271 352 -271 373 -177 c 0,51,52
 384 -125 384 -125 319 0 c 1,53,-1
 441 0 l 1,37,38
EndSplineSet
EndChar
StartChar: Cacute
Encoding: 262 262 251
Width: 1432
VWidth: 3555
Flags: W
HStem: -28 167<473.891 943.017> 1354 168<694.735 1171.55>
Fore
1368 1167 m 1,0,1
 1201 1354 1201 1354 943 1354 c 0,2,3
 686 1354 686 1354 521 1201.5 c 128,-1,4
 356 1049 356 1049 295 746 c 0,5,6
 238 448 238 448 343 293.5 c 128,-1,7
 448 139 448 139 705 139 c 0,8,9
 963 139 963 139 1205 326 c 1,10,-1
 1167 115 l 1,11,12
 924 -28 924 -28 661 -28 c 0,13,14
 316 -28 316 -28 161.5 176 c 128,-1,15
 7 380 7 380 78 746 c 0,16,17
 115 929 115 929 193 1070.5 c 128,-1,18
 271 1212 271 1212 386.5 1313.5 c 128,-1,19
 502 1415 502 1415 647.5 1468.5 c 128,-1,20
 793 1522 793 1522 963 1522 c 0,21,22
 1227 1522 1227 1522 1411 1380 c 1,23,-1
 1368 1167 l 1,0,1
1245 1903 m 1,24,-1
 963 1635 l 1,25,-1
 814 1635 l 1,26,-1
 1059 1903 l 1,27,-1
 1245 1903 l 1,24,-1
EndSplineSet
EndChar
StartChar: cacute
Encoding: 263 263 252
Width: 1126
VWidth: 3555
Flags: W
HStem: -28 156<345.845 685.272> 991 153<497.639 918.786>
Fore
995 906 m 1,0,1
 865 991 865 991 700 991 c 0,2,3
 519 991 519 991 398.5 877.5 c 128,-1,4
 278 764 278 764 238 562 c 0,5,6
 200 356 200 356 274.5 242 c 128,-1,7
 349 128 349 128 529 128 c 0,8,9
 608 128 608 128 693.5 147.5 c 128,-1,10
 779 167 779 167 861 214 c 1,11,-1
 828 43 l 1,12,13
 658 -28 658 -28 479 -28 c 0,14,15
 224 -28 224 -28 107 128.5 c 128,-1,16
 -10 285 -10 285 43 562 c 256,17,18
 95 838 95 838 275 991 c 128,-1,19
 455 1144 455 1144 722 1144 c 0,20,21
 896 1144 896 1144 1028 1078 c 1,22,-1
 995 906 l 1,0,1
1127 1639 m 1,23,-1
 729 1262 l 1,24,-1
 580 1262 l 1,25,-1
 929 1639 l 1,26,-1
 1127 1639 l 1,23,-1
EndSplineSet
EndChar
StartChar: Ccaron
Encoding: 268 268 253
Width: 1432
VWidth: 3555
Flags: W
HStem: -28 167<473.891 943.017> 1354 168<694.735 1171.55>
Fore
1368 1167 m 1,0,1
 1201 1354 1201 1354 943 1354 c 0,2,3
 686 1354 686 1354 521 1201.5 c 128,-1,4
 356 1049 356 1049 295 746 c 0,5,6
 238 448 238 448 343 293.5 c 128,-1,7
 448 139 448 139 705 139 c 0,8,9
 963 139 963 139 1205 326 c 1,10,-1
 1167 115 l 1,11,12
 924 -28 924 -28 661 -28 c 0,13,14
 316 -28 316 -28 161.5 176 c 128,-1,15
 7 380 7 380 78 746 c 0,16,17
 115 929 115 929 193 1070.5 c 128,-1,18
 271 1212 271 1212 386.5 1313.5 c 128,-1,19
 502 1415 502 1415 647.5 1468.5 c 128,-1,20
 793 1522 793 1522 963 1522 c 0,21,22
 1227 1522 1227 1522 1411 1380 c 1,23,-1
 1368 1167 l 1,0,1
705 1906 m 1,24,-1
 842 1906 l 1,25,-1
 970 1724 l 1,26,-1
 1177 1906 l 1,27,-1
 1316 1906 l 1,28,-1
 1049 1635 l 1,29,-1
 858 1635 l 1,30,-1
 705 1906 l 1,24,-1
EndSplineSet
EndChar
StartChar: ccaron
Encoding: 269 269 254
Width: 1126
VWidth: 3555
Flags: W
HStem: -28 156<345.845 685.272> 991 153<497.639 918.786>
Fore
995 906 m 1,0,1
 865 991 865 991 700 991 c 0,2,3
 519 991 519 991 398.5 877.5 c 128,-1,4
 278 764 278 764 238 562 c 0,5,6
 200 356 200 356 274.5 242 c 128,-1,7
 349 128 349 128 529 128 c 0,8,9
 608 128 608 128 693.5 147.5 c 128,-1,10
 779 167 779 167 861 214 c 1,11,-1
 828 43 l 1,12,13
 658 -28 658 -28 479 -28 c 0,14,15
 224 -28 224 -28 107 128.5 c 128,-1,16
 -10 285 -10 285 43 562 c 256,17,18
 95 838 95 838 275 991 c 128,-1,19
 455 1144 455 1144 722 1144 c 0,20,21
 896 1144 896 1144 1028 1078 c 1,22,-1
 995 906 l 1,0,1
472 1639 m 1,23,-1
 611 1639 l 1,24,-1
 743 1394 l 1,25,-1
 970 1639 l 1,26,-1
 1109 1639 l 1,27,-1
 793 1262 l 1,28,-1
 648 1262 l 1,29,-1
 472 1639 l 1,23,-1
EndSplineSet
EndChar
StartChar: dcroat
Encoding: 273 273 255
Width: 1300
VWidth: 3555
Flags: W
HStem: -28 153<309.582 598.258> 991 153<459.543 780.664> 1286 125<700 1003 1212 1340>
Fore
1003 1286 m 1,0,-1
 675 1286 l 1,1,-1
 700 1411 l 1,2,-1
 1028 1411 l 1,3,-1
 1055 1557 l 1,4,-1
 1241 1557 l 1,5,-1
 1212 1411 l 1,6,-1
 1364 1411 l 1,7,-1
 1340 1286 l 1,8,-1
 1187 1286 l 1,9,-1
 939 0 l 1,10,-1
 753 0 l 1,11,-1
 786 167 l 1,12,13
 705 71 705 71 608.5 21.5 c 128,-1,14
 512 -28 512 -28 387 -28 c 0,15,16
 184 -28 184 -28 88.5 133.5 c 128,-1,17
 -7 295 -7 295 43 562 c 0,18,19
 68 693 68 693 122.5 801.5 c 128,-1,20
 177 910 177 910 251.5 986 c 128,-1,21
 326 1062 326 1062 421 1103 c 128,-1,22
 516 1144 516 1144 615 1144 c 0,23,24
 858 1144 858 1144 939 953 c 1,25,-1
 1003 1286 l 1,0,-1
231 562 m 0,26,27
 193 356 193 356 251 240.5 c 128,-1,28
 309 125 309 125 458 125 c 256,29,30
 608 125 608 125 714.5 240.5 c 128,-1,31
 821 356 821 356 861 562 c 0,32,33
 899 764 899 764 839 877.5 c 128,-1,34
 779 991 779 991 628 991 c 256,35,36
 479 991 479 991 375 877.5 c 128,-1,37
 271 764 271 764 231 562 c 0,26,27
EndSplineSet
EndChar
StartChar: sfthyphen
Encoding: 173 173 256
Width: 737
VWidth: 3555
Flags: W
HStem: 479 165<47 554>
VStem: 14 573<479 644>
Fore
587 644 m 1,0,-1
 554 479 l 1,1,-1
 14 479 l 1,2,-1
 47 644 l 1,3,-1
 587 644 l 1,0,-1
EndSplineSet
EndChar
StartChar: periodcentered
Encoding: 8729 8729 257
Width: 631
VWidth: 3555
Flags: W
HStem: 569 245<193 352>
VStem: 146 252<569 814>
Fore
398 814 m 1,0,-1
 352 569 l 1,1,-1
 146 569 l 1,2,-1
 193 814 l 1,3,-1
 398 814 l 1,0,-1
EndSplineSet
EndChar
StartChar: Euro
Encoding: 8364 8364 258
Width: 1303
VWidth: 3555
Flags: W
HStem: -28 160<477.723 831.919> 519 125<0 135 345 708> 849 125<64 181 424 924> 1361 161<695.91 1063.8>
VStem: 135 200<288.75 519>
Fore
1215 1167 m 1,0,1
 1144 1269 1144 1269 1067.5 1315 c 128,-1,2
 991 1361 991 1361 892 1361 c 0,3,4
 569 1361 569 1361 424 974 c 1,5,-1
 1003 974 l 1,6,-1
 924 849 l 1,7,-1
 384 849 l 1,8,9
 377 828 377 828 371.5 803.5 c 128,-1,10
 366 779 366 779 359 746 c 256,11,12
 352 715 352 715 348.5 691.5 c 128,-1,13
 345 668 345 668 345 644 c 1,14,-1
 793 644 l 1,15,-1
 708 519 l 1,16,-1
 335 519 l 1,17,18
 330 335 330 335 412.5 233.5 c 128,-1,19
 495 132 495 132 654 132 c 0,20,21
 753 132 753 132 846 178 c 128,-1,22
 939 224 939 224 1052 326 c 1,23,-1
 1014 115 l 1,24,25
 807 -28 807 -28 615 -28 c 0,26,27
 377 -28 377 -28 251 116 c 128,-1,28
 125 260 125 260 135 519 c 1,29,-1
 -78 519 l 1,30,-1
 0 644 l 1,31,-1
 142 644 l 1,32,-1
 160 746 l 1,33,-1
 181 849 l 1,34,-1
 -14 849 l 1,35,-1
 64 974 l 1,36,-1
 224 974 l 1,37,38
 312 1231 312 1231 495.5 1376.5 c 128,-1,39
 679 1522 679 1522 917 1522 c 0,40,41
 1113 1522 1113 1522 1259 1380 c 1,42,-1
 1215 1167 l 1,0,1
EndSplineSet
EndChar
StartChar: c6459
Encoding: 65539 -1 259
Width: 1022
VWidth: 3555
Flags: W
HStem: 1299 197<326 488 719 882>
VStem: 288 632<1299 1496>
Fore
920 1496 m 1,0,-1
 882 1299 l 1,1,-1
 679 1299 l 1,2,-1
 719 1496 l 1,3,-1
 920 1496 l 1,0,-1
526 1496 m 1,4,-1
 488 1299 l 1,5,-1
 288 1299 l 1,6,-1
 326 1496 l 1,7,-1
 526 1496 l 1,4,-1
EndSplineSet
EndChar
StartChar: c6460
Encoding: 65540 -1 260
Width: 1022
VWidth: 3555
Flags: W
HStem: 1262 267<590 871>
VStem: 441 430<1262 1529>
Fore
871 1529 m 1,0,-1
 590 1262 l 1,1,-1
 441 1262 l 1,2,-1
 686 1529 l 1,3,-1
 871 1529 l 1,0,-1
EndSplineSet
EndChar
StartChar: c6461
Encoding: 65541 -1 261
Width: 1022
VWidth: 3555
Flags: W
HStem: 1299 119<688.258 816.569> 1394 120<400.088 518.538>
VStem: 255 702<1507 1514 1299 1514>
Fore
543 1373 m 1,0,1
 498 1394 498 1394 472 1394 c 0,2,3
 401 1394 401 1394 384 1302 c 1,4,-1
 380 1299 l 1,5,-1
 255 1299 l 1,6,7
 274 1394 274 1394 336 1454 c 128,-1,8
 398 1514 398 1514 488 1514 c 0,9,10
 519 1514 519 1514 551 1505 c 128,-1,11
 583 1496 583 1496 621 1472 c 2,12,-1
 675 1443 l 2,13,14
 712 1418 712 1418 740 1418 c 0,15,16
 814 1418 814 1418 832 1507 c 1,17,-1
 832 1514 l 1,18,-1
 957 1514 l 1,19,20
 936 1415 936 1415 873.5 1357 c 128,-1,21
 811 1299 811 1299 726 1299 c 0,22,23
 689 1299 689 1299 665 1305.5 c 128,-1,24
 641 1312 641 1312 590 1340 c 2,25,-1
 543 1373 l 1,0,1
EndSplineSet
EndChar
StartChar: c6462
Encoding: 65542 -1 262
Width: 1022
VWidth: 3555
Flags: W
VStem: 384 335<1262 1529>
Fore
719 1262 m 1,0,-1
 566 1262 l 1,1,-1
 384 1529 l 1,2,-1
 576 1529 l 1,3,-1
 719 1262 l 1,0,-1
EndSplineSet
EndChar
StartChar: c6463
Encoding: 65543 -1 263
Width: 1022
VWidth: 3555
Flags: W
HStem: 1262 271<726 889>
VStem: 278 611<1262 1262>
Fore
726 1533 m 1,0,-1
 889 1262 l 1,1,-1
 750 1262 l 1,2,-1
 611 1443 l 1,3,-1
 417 1262 l 1,4,-1
 278 1262 l 1,5,-1
 533 1533 l 1,6,-1
 726 1533 l 1,0,-1
EndSplineSet
EndChar
StartChar: c6466
Encoding: 65544 -1 264
Width: 1022
VWidth: 3555
Flags: W
HStem: 1262 271<326 675>
VStem: 326 613<1533 1533>
Fore
326 1533 m 1,0,-1
 465 1533 l 1,1,-1
 594 1351 l 1,2,-1
 800 1533 l 1,3,-1
 939 1533 l 1,4,-1
 675 1262 l 1,5,-1
 484 1262 l 1,6,-1
 326 1533 l 1,0,-1
EndSplineSet
EndChar
StartChar: c6467
Encoding: 65545 -1 265
Width: 824
VWidth: 3555
Flags: W
HStem: 854 109<174 462 628 743> 1364 20G<547.378 562.104> 1483 20G<554.065 736>
VStem: 50 714<854 963>
Fore
174 963 m 1,0,-1
 484 963 l 1,1,-1
 566 1384 l 1,2,-1
 174 963 l 1,0,-1
736 1503 m 1,3,-1
 628 963 l 1,4,-1
 764 963 l 1,5,-1
 743 854 l 1,6,-1
 608 854 l 1,7,-1
 573 668 l 1,8,-1
 427 668 l 1,9,-1
 462 854 l 1,10,-1
 50 854 l 1,11,-1
 75 977 l 1,12,-1
 573 1503 l 1,13,-1
 736 1503 l 1,3,-1
EndSplineSet
EndChar
StartChar: c6468
Encoding: 65546 -1 266
Width: 1022
VWidth: 3555
Flags: W
HStem: 1290 132<463.01 760.523>
VStem: 316 121<1450.42 1533>
Fore
437 1533 m 1,0,1
 437 1422 437 1422 608 1422 c 0,2,3
 693 1422 693 1422 746.5 1447 c 128,-1,4
 800 1472 800 1472 825 1533 c 1,5,-1
 946 1533 l 1,6,7
 913 1411 913 1411 819.5 1350.5 c 128,-1,8
 726 1290 726 1290 583 1290 c 0,9,10
 295 1290 295 1290 316 1533 c 1,11,-1
 437 1533 l 1,0,1
EndSplineSet
EndChar
StartChar: c6469
Encoding: 65547 -1 267
Width: 1022
VWidth: 3555
Flags: W
HStem: 1299 201<523 686>
VStem: 479 250<1299 1500>
Fore
729 1500 m 1,0,-1
 686 1299 l 1,1,-1
 479 1299 l 1,2,-1
 523 1500 l 1,3,-1
 729 1500 l 1,0,-1
EndSplineSet
EndChar
StartChar: uni0E01
Encoding: 3585 3585 269
Width: 1466
VWidth: 3555
Flags: W
HStem: 0 21G<14 184.83 917 1091.83> 913 129<227 295> 1252 128<518.483 890.886>
Fore
227 1042 m 1,0,-1
 516 1042 l 1,1,-1
 491 910 l 1,2,3
 420 889 420 889 375 830 c 128,-1,4
 330 771 330 771 316 705 c 2,5,-1
 181 0 l 1,6,-1
 14 0 l 1,7,-1
 153 726 l 2,8,9
 167 797 167 797 197 829 c 128,-1,10
 227 861 227 861 288 906 c 2,11,-1
 295 913 l 1,12,-1
 61 913 l 1,13,-1
 102 1127 l 1,14,15
 128 1149 128 1149 165.5 1175 c 128,-1,16
 203 1201 203 1201 227 1219 c 0,17,18
 363 1302 363 1302 482 1341 c 128,-1,19
 601 1380 601 1380 743 1380 c 0,20,21
 845 1380 845 1380 950 1358.5 c 128,-1,22
 1055 1337 1055 1337 1133.5 1287.5 c 128,-1,23
 1212 1238 1212 1238 1252.5 1158 c 128,-1,24
 1293 1078 1293 1078 1272 960 c 2,25,-1
 1088 0 l 1,26,-1
 917 0 l 1,27,-1
 1095 917 l 2,28,29
 1106 981 1106 981 1097 1040 c 128,-1,30
 1088 1099 1088 1099 1049 1146.5 c 128,-1,31
 1010 1194 1010 1194 932 1223 c 128,-1,32
 854 1252 854 1252 729 1252 c 0,33,34
 625 1252 625 1252 545 1226.5 c 128,-1,35
 465 1201 465 1201 404 1170 c 0,36,37
 339 1130 339 1130 281 1088 c 2,38,-1
 227 1042 l 1,0,-1
EndSplineSet
EndChar
StartChar: uni0E02
Encoding: 3586 3586 270
Width: 1340
VWidth: 3555
Flags: W
HStem: 0 128<377 814> 786 117<202.581 344.914> 1082 112<281 374.406> 1259 125<370.165 600.461>
Fore
505 1007 m 0,0,1
 484 903 484 903 403.5 844.5 c 128,-1,2
 323 786 323 786 227 786 c 0,3,4
 115 786 115 786 75 851.5 c 128,-1,5
 35 917 35 917 54 1024 c 0,6,7
 68 1099 68 1099 108.5 1165 c 128,-1,8
 149 1231 149 1231 206.5 1278.5 c 128,-1,9
 264 1326 264 1326 334 1355 c 128,-1,10
 404 1384 404 1384 479 1384 c 0,11,12
 665 1384 665 1384 750 1289 c 128,-1,13
 835 1194 835 1194 800 1010 c 0,14,15
 790 953 790 953 738 885.5 c 128,-1,16
 686 818 686 818 626 752 c 128,-1,17
 566 686 566 686 514 622.5 c 128,-1,18
 462 559 462 559 451 505 c 2,19,-1
 377 128 l 1,20,-1
 814 128 l 1,21,-1
 1055 1361 l 1,22,-1
 1224 1361 l 1,23,-1
 960 0 l 1,24,-1
 189 0 l 1,25,-1
 281 484 l 2,26,27
 299 573 299 573 354.5 642.5 c 128,-1,28
 410 712 410 712 471.5 777 c 128,-1,29
 533 842 533 842 587 908 c 128,-1,30
 641 974 641 974 654 1055 c 0,31,32
 672 1153 672 1153 611 1206 c 128,-1,33
 550 1259 550 1259 458 1259 c 0,34,35
 410 1259 410 1259 374.5 1243 c 128,-1,36
 339 1227 339 1227 302 1184 c 1,37,38
 319 1187 319 1187 334 1190.5 c 128,-1,39
 349 1194 349 1194 366 1194 c 0,40,41
 391 1194 391 1194 401 1191 c 0,42,43
 476 1174 476 1174 496 1123.5 c 128,-1,44
 516 1073 516 1073 505 1007 c 0,0,1
193 991 m 0,45,46
 184 950 184 950 207.5 926.5 c 128,-1,47
 231 903 231 903 274 903 c 0,48,49
 312 903 312 903 339 930 c 128,-1,50
 366 957 366 957 373 995 c 0,51,52
 391 1082 391 1082 302 1082 c 0,53,54
 260 1082 260 1082 230 1060 c 128,-1,55
 200 1038 200 1038 193 991 c 0,45,46
EndSplineSet
EndChar
StartChar: uni0E03
Encoding: 3587 3587 271
Width: 1350
VWidth: 3555
Flags: W
HStem: 0 149<404 828> 736 109<206.44 332.992> 1003 113<272.793 344.914> 1153 137<452.752 553.703> 1231 153<280.215 358.055 644.133 727.892>
Fore
299 488 m 1,0,1
 316 569 316 569 378.5 647.5 c 128,-1,2
 441 726 441 726 512 807.5 c 128,-1,3
 583 889 583 889 647.5 972 c 128,-1,4
 712 1055 712 1055 729 1144 c 0,5,6
 736 1177 736 1177 727.5 1204 c 128,-1,7
 719 1231 719 1231 679 1231 c 0,8,9
 628 1231 628 1231 575.5 1192 c 128,-1,10
 523 1153 523 1153 462 1153 c 0,11,12
 431 1153 431 1153 409 1165 c 128,-1,13
 387 1177 387 1177 373 1191 c 128,-1,14
 359 1205 359 1205 347 1218 c 128,-1,15
 335 1231 335 1231 316 1231 c 256,16,17
 299 1231 299 1231 283 1212.5 c 128,-1,18
 267 1194 267 1194 254 1171.5 c 128,-1,19
 241 1149 241 1149 232.5 1125.5 c 128,-1,20
 224 1102 224 1102 220 1088 c 1,21,22
 248 1099 248 1099 277 1107.5 c 128,-1,23
 306 1116 306 1116 335 1116 c 0,24,25
 417 1116 417 1116 456 1065 c 128,-1,26
 495 1014 495 1014 476 932 c 0,27,28
 458 838 458 838 388.5 787 c 128,-1,29
 319 736 319 736 234 736 c 0,30,31
 167 736 167 736 129.5 768 c 128,-1,32
 92 800 92 800 76.5 849.5 c 128,-1,33
 61 899 61 899 61 958 c 128,-1,34
 61 1017 61 1017 71 1069 c 0,35,36
 78 1113 78 1113 100 1168.5 c 128,-1,37
 122 1224 122 1224 153 1271.5 c 128,-1,38
 184 1319 184 1319 227.5 1351.5 c 128,-1,39
 271 1384 271 1384 326 1384 c 0,40,41
 366 1384 366 1384 393 1369 c 128,-1,42
 420 1354 420 1354 441 1336.5 c 128,-1,43
 462 1319 462 1319 476.5 1304.5 c 128,-1,44
 491 1290 491 1290 505 1290 c 0,45,46
 526 1290 526 1290 551 1304.5 c 128,-1,47
 576 1319 576 1319 602 1336.5 c 128,-1,48
 628 1354 628 1354 658.5 1369 c 128,-1,49
 689 1384 689 1384 722 1384 c 0,50,51
 828 1384 828 1384 865.5 1311 c 128,-1,52
 903 1238 903 1238 885 1137 c 0,53,54
 865 1038 865 1038 802.5 948 c 128,-1,55
 740 858 740 858 668.5 773.5 c 128,-1,56
 597 689 597 689 538 614.5 c 128,-1,57
 479 540 479 540 465 472 c 2,58,-1
 404 149 l 1,59,-1
 828 149 l 1,60,-1
 1062 1361 l 1,61,-1
 1234 1361 l 1,62,-1
 970 0 l 1,63,-1
 207 0 l 1,64,-1
 299 488 l 1,0,1
288 1003 m 0,65,66
 260 1003 260 1003 233.5 980 c 128,-1,67
 207 957 207 957 200 929 c 0,68,69
 193 896 193 896 210 870.5 c 128,-1,70
 227 845 227 845 264 845 c 0,71,72
 302 845 302 845 325.5 868.5 c 128,-1,73
 349 892 349 892 356 929 c 0,74,75
 363 967 363 967 343 985 c 128,-1,76
 323 1003 323 1003 288 1003 c 0,65,66
EndSplineSet
EndChar
StartChar: uni0E04
Encoding: 3588 3588 272
Width: 1477
VWidth: 3555
Flags: W
HStem: 0 21G<71 273.059 932 1102.86> 547 125<598.024 765.026> 885 129<635.974 797.811> 1248 136<656.386 871.755>
VStem: 78.5 199.5<31.6989 186.5>
Fore
774 1248 m 0,0,1
 686 1248 686 1248 601 1223 c 128,-1,2
 516 1198 516 1198 443 1148.5 c 128,-1,3
 370 1099 370 1099 320.5 1026 c 128,-1,4
 271 953 271 953 248 854 c 0,5,6
 224 722 224 722 232.5 590 c 128,-1,7
 241 458 241 458 252 335 c 1,8,9
 281 398 281 398 311.5 472.5 c 128,-1,10
 342 547 342 547 371.5 623.5 c 128,-1,11
 401 700 401 700 435 771 c 128,-1,12
 469 842 469 842 509 899 c 0,13,14
 550 960 550 960 609 987 c 128,-1,15
 668 1014 668 1014 733 1014 c 0,16,17
 838 1014 838 1014 899 956.5 c 128,-1,18
 960 899 960 899 936 786 c 0,19,20
 917 686 917 686 837 616.5 c 128,-1,21
 757 547 757 547 658 547 c 0,22,23
 608 547 608 547 581 560 c 128,-1,24
 554 573 554 573 519 601 c 1,25,26
 476 512 476 512 457 468 c 0,27,-1
 359 245 l 0,28,29
 356 234 356 234 343 209 c 128,-1,30
 330 184 330 184 316 154.5 c 128,-1,31
 302 125 302 125 290 100 c 128,-1,32
 278 75 278 75 278 68 c 2,33,-1
 271 0 l 1,34,-1
 71 0 l 1,35,36
 75 92 75 92 78.5 186.5 c 128,-1,37
 82 281 82 281 75 373 c 0,38,39
 68 479 68 479 55.5 586 c 128,-1,40
 43 693 43 693 68 807 c 0,41,42
 78 868 78 868 96.5 928 c 128,-1,43
 115 988 115 988 146 1049 c 0,44,45
 196 1134 196 1134 272.5 1196.5 c 128,-1,46
 349 1259 349 1259 437.5 1299.5 c 128,-1,47
 526 1340 526 1340 620.5 1362 c 128,-1,48
 715 1384 715 1384 797 1384 c 0,49,50
 892 1384 892 1384 990 1360.5 c 128,-1,51
 1088 1337 1088 1337 1161 1285.5 c 128,-1,52
 1234 1234 1234 1234 1269.5 1151.5 c 128,-1,53
 1305 1069 1305 1069 1283 953 c 2,54,-1
 1099 0 l 1,55,-1
 932 0 l 1,56,-1
 1109 924 l 2,57,58
 1127 1007 1127 1007 1102.5 1067 c 128,-1,59
 1078 1127 1078 1127 1029.5 1167.5 c 128,-1,60
 981 1208 981 1208 913 1228 c 128,-1,61
 845 1248 845 1248 774 1248 c 0,0,1
719 885 m 0,62,63
 675 885 675 885 639.5 849.5 c 128,-1,64
 604 814 604 814 597 774 c 0,65,66
 576 672 576 672 686 672 c 0,67,68
 726 672 726 672 759.5 704 c 128,-1,69
 793 736 793 736 800 774 c 0,70,71
 821 885 821 885 719 885 c 0,62,63
EndSplineSet
EndChar
StartChar: uni0E05
Encoding: 3589 3589 273
Width: 1517
VWidth: 3555
Flags: W
HStem: 0 21G<109 303.74 970 1140.88> 554 135<635.155 788.784> 882 132<660.182 814.261> 1123 149<755.509 885.268> 1234 150<428.339 607.609>
Fore
128 135 m 1,0,-1
 128 156 l 2,1,2
 125 207 125 207 121.5 258 c 128,-1,3
 118 309 118 309 109 359 c 0,4,5
 89 484 89 484 69.5 617 c 128,-1,6
 50 750 50 750 78 885 c 0,7,8
 95 974 95 974 138 1063.5 c 128,-1,9
 181 1153 181 1153 245 1223 c 128,-1,10
 309 1293 309 1293 394 1338.5 c 128,-1,11
 479 1384 479 1384 580 1384 c 0,12,13
 611 1384 611 1384 636 1365.5 c 128,-1,14
 661 1347 661 1347 686.5 1328 c 128,-1,15
 712 1309 712 1309 739.5 1290.5 c 128,-1,16
 767 1272 767 1272 811 1272 c 0,17,18
 896 1272 896 1272 958.5 1308 c 128,-1,19
 1021 1344 1021 1344 1099 1384 c 1,20,-1
 1106 1384 l 2,21,22
 1127 1384 1127 1384 1153.5 1369 c 128,-1,23
 1180 1354 1180 1354 1194 1340 c 0,24,25
 1290 1266 1290 1266 1318.5 1169.5 c 128,-1,26
 1347 1073 1347 1073 1319 939 c 2,27,-1
 1137 0 l 1,28,-1
 970 0 l 1,29,-1
 1149 932 l 2,30,31
 1163 995 1163 995 1163 1048.5 c 128,-1,32
 1163 1102 1163 1102 1127 1153 c 0,33,34
 1113 1174 1113 1174 1093 1189.5 c 128,-1,35
 1073 1205 1073 1205 1045 1205 c 0,36,37
 1014 1205 1014 1205 985.5 1192.5 c 128,-1,38
 957 1180 957 1180 924.5 1164.5 c 128,-1,39
 892 1149 892 1149 860 1136 c 128,-1,40
 828 1123 828 1123 790 1123 c 0,41,42
 746 1123 746 1123 714 1141.5 c 128,-1,43
 682 1160 682 1160 655 1179 c 128,-1,44
 628 1198 628 1198 600.5 1216 c 128,-1,45
 573 1234 573 1234 536 1234 c 0,46,47
 479 1234 479 1234 431.5 1197 c 128,-1,48
 384 1160 384 1160 348 1106 c 128,-1,49
 312 1052 312 1052 289.5 994 c 128,-1,50
 267 936 267 936 255 892 c 0,51,52
 227 746 227 746 241 620.5 c 128,-1,53
 255 495 255 495 295 366 c 1,54,-1
 431 696 l 2,55,56
 451 757 451 757 478 812.5 c 128,-1,57
 505 868 505 868 542.5 914 c 128,-1,58
 580 960 580 960 629.5 987 c 128,-1,59
 679 1014 679 1014 753 1014 c 0,60,61
 854 1014 854 1014 919 963.5 c 128,-1,62
 984 913 984 913 963 804 c 0,63,64
 946 700 946 700 862.5 627 c 128,-1,65
 779 554 779 554 672 554 c 0,66,67
 590 554 590 554 562 611 c 1,68,-1
 295 0 l 1,69,-1
 109 0 l 1,70,-1
 128 135 l 1,0,-1
746 882 m 0,71,72
 700 882 700 882 667 853.5 c 128,-1,73
 634 825 634 825 625 779 c 256,74,75
 618 733 618 733 641.5 711 c 128,-1,76
 665 689 665 689 708 689 c 256,77,78
 750 689 750 689 782 716 c 128,-1,79
 814 743 814 743 821 786 c 0,80,81
 832 828 832 828 811 855 c 128,-1,82
 790 882 790 882 746 882 c 0,71,72
EndSplineSet
EndChar
StartChar: uni0E06
Encoding: 3590 3590 274
Width: 1513
VWidth: 3555
Flags: W
HStem: -14 149<156.982 269.601> 750 111<200.063 327.777> 1017 113<258.139 345.685> 1153 123<448.223 537.274> 1238 149<255.428 344.033> 1364 20<737.5 780 1223.08 1397>
Fore
220 -14 m 0,0,1
 142 -14 142 -14 92.5 13 c 128,-1,2
 43 40 43 40 16.5 81 c 128,-1,3
 -10 122 -10 122 -17 174.5 c 128,-1,4
 -24 227 -24 227 -14 281 c 0,5,6
 3 373 3 373 76 449.5 c 128,-1,7
 149 526 149 526 238 562 c 0,8,9
 267 573 267 573 296.5 576.5 c 128,-1,10
 326 580 326 580 359 587 c 1,11,12
 366 615 366 615 369.5 640 c 128,-1,13
 373 665 373 665 387 693 c 0,14,15
 410 733 410 733 447 765 c 128,-1,16
 484 797 484 797 526.5 834 c 128,-1,17
 569 871 569 871 615 924 c 128,-1,18
 661 977 661 977 705 1055 c 1,19,-1
 705 1052 l 1,20,21
 712 1069 712 1069 722.5 1092.5 c 128,-1,22
 733 1116 733 1116 740 1141 c 0,23,24
 746 1177 746 1177 737.5 1204 c 128,-1,25
 729 1231 729 1231 693 1231 c 0,26,27
 668 1231 668 1231 638 1218 c 128,-1,28
 608 1205 608 1205 579 1191 c 128,-1,29
 550 1177 550 1177 522.5 1165 c 128,-1,30
 495 1153 495 1153 469 1153 c 0,31,32
 441 1153 441 1153 421 1166.5 c 128,-1,33
 401 1180 401 1180 387 1196 c 128,-1,34
 373 1212 373 1212 359 1225 c 128,-1,35
 345 1238 345 1238 323 1238 c 0,36,37
 271 1238 271 1238 252.5 1187.5 c 128,-1,38
 234 1137 234 1137 227 1099 c 1,39,40
 255 1113 255 1113 282 1121.5 c 128,-1,41
 309 1130 309 1130 339 1130 c 0,42,43
 417 1130 417 1130 454 1077 c 128,-1,44
 491 1024 491 1024 472 950 c 0,45,46
 455 842 455 842 383.5 796 c 128,-1,47
 312 750 312 750 231 750 c 0,48,49
 193 750 193 750 154 762 c 128,-1,50
 115 774 115 774 86 806 c 128,-1,51
 57 838 57 838 44 890.5 c 128,-1,52
 31 943 31 943 47 1021 c 0,53,54
 78 1177 78 1177 146 1282 c 128,-1,55
 214 1387 214 1387 288 1387 c 0,56,57
 339 1387 339 1387 366.5 1369 c 128,-1,58
 394 1351 394 1351 415.5 1331.5 c 128,-1,59
 437 1312 437 1312 458 1294 c 128,-1,60
 479 1276 479 1276 509 1276 c 256,61,62
 536 1276 536 1276 566.5 1292.5 c 128,-1,63
 597 1309 597 1309 627.5 1330 c 128,-1,64
 658 1351 658 1351 690 1367.5 c 128,-1,65
 722 1384 722 1384 753 1384 c 0,66,67
 807 1384 807 1384 837.5 1358.5 c 128,-1,68
 868 1333 868 1333 880 1292.5 c 128,-1,69
 892 1252 892 1252 892 1204 c 128,-1,70
 892 1156 892 1156 882 1113 c 0,71,72
 868 1028 868 1028 812.5 956.5 c 128,-1,73
 757 885 757 885 699 824.5 c 128,-1,74
 641 764 641 764 590.5 714.5 c 128,-1,75
 540 665 540 665 533 621 c 2,76,-1
 523 580 l 1,77,-1
 757 410 l 2,78,79
 849 339 l 0,80,81
 889 309 889 309 931.5 277 c 128,-1,82
 974 245 974 245 1003 217 c 1,83,-1
 1227 1361 l 1,84,-1
 1397 1361 l 1,85,-1
 1134 0 l 1,86,-1
 967 0 l 1,87,-1
 828 125 l 2,88,89
 767 184 767 184 712.5 231 c 128,-1,90
 658 278 658 278 580 339 c 0,91,92
 526 377 526 377 491 404 c 1,93,-1
 434 109 l 1,94,95
 391 28 391 28 332.5 7 c 128,-1,96
 274 -14 274 -14 220 -14 c 0,0,1
288 1017 m 0,97,98
 210 1017 210 1017 193 939 c 0,99,100
 184 910 184 910 205.5 885.5 c 128,-1,101
 227 861 227 861 255 861 c 0,102,103
 292 861 292 861 318.5 883.5 c 128,-1,104
 345 906 345 906 352 943 c 0,105,106
 359 970 359 970 341 993.5 c 128,-1,107
 323 1017 323 1017 288 1017 c 0,97,98
323 437 m 1,108,109
 260 424 260 424 213.5 383 c 128,-1,110
 167 342 167 342 156 278 c 0,111,112
 149 234 149 234 156 184.5 c 128,-1,113
 163 135 163 135 217 135 c 0,114,115
 255 135 255 135 268 169 c 128,-1,116
 281 203 281 203 288 241 c 2,117,-1
 323 437 l 1,108,109
EndSplineSet
EndChar
